<?xml version="1.0" encoding="utf-8"?>
<svg version="1.1" xmlns:xlink="http://www.w3.org/1999/xlink" width="80px" height="80px" xmlns="http://www.w3.org/2000/svg">
  <g transform="matrix(1 0 0 1 -381 -80 )">
    <path d="M 421 83.5  C 441.44 83.5  457.5 99.56  457.5 120  C 457.5 140.44  441.44 156.5  421 156.5  C 400.56 156.5  384.5 140.44  384.5 120  C 384.5 99.56  400.56 83.5  421 83.5  Z " fill-rule="nonzero" fill="#ffffff" stroke="none" fill-opacity="0" />
    <path d="M 421 82  C 442.28 82  459 98.72  459 120  C 459 141.28  442.28 158  421 158  C 399.72 158  383 141.28  383 120  C 383 98.72  399.72 82  421 82  Z " stroke-width="4" stroke="#ffffff" fill="none" stroke-opacity="0.996078431372549" />
  </g>
</svg>