<?xml version="1.0" encoding="utf-8"?>
<svg version="1.1" xmlns:xlink="http://www.w3.org/1999/xlink" width="160px" height="160px" xmlns="http://www.w3.org/2000/svg">
  <g transform="matrix(1 0 0 1 -341 -40 )">
    <path d="M 421 43.5  C 463.84 43.5  497.5 77.16  497.5 120  C 497.5 162.84  463.84 196.5  421 196.5  C 378.16 196.5  344.5 162.84  344.5 120  C 344.5 77.16  378.16 43.5  421 43.5  Z " fill-rule="nonzero" fill="#ffffff" stroke="none" fill-opacity="0" />
    <path d="M 421 42  C 464.68 42  499 76.32  499 120  C 499 163.68  464.68 198  421 198  C 377.32 198  343 163.68  343 120  C 343 76.32  377.32 42  421 42  Z " stroke-width="4" stroke="#ffffff" fill="none" stroke-opacity="0.996078431372549" />
  </g>
</svg>