<?xml version="1.0" encoding="utf-8"?>
<svg version="1.1" xmlns:xlink="http://www.w3.org/1999/xlink" width="160px" height="160px" xmlns="http://www.w3.org/2000/svg">
  <g transform="matrix(1 0 0 1 -341 -40 )">
    <path d="M 421 43  C 464.12 43  498 76.88  498 120  C 498 163.12  464.12 197  421 197  C 377.88 197  344 163.12  344 120  C 344 76.88  377.88 43  421 43  Z " fill-rule="nonzero" fill="#ffffff" stroke="none" fill-opacity="0" />
    <path d="M 421 42  C 464.68 42  499 76.32  499 120  C 499 163.68  464.68 198  421 198  C 377.32 198  343 163.68  343 120  C 343 76.32  377.32 42  421 42  Z " stroke-width="4" stroke="#673ab7" fill="none" />
  </g>
</svg>