<?xml version="1.0" encoding="utf-8"?>
<svg version="1.1" xmlns:xlink="http://www.w3.org/1999/xlink" width="200px" height="200px" xmlns="http://www.w3.org/2000/svg">
  <g transform="matrix(1 0 0 1 -321 -20 )">
    <path d="M 421 23.5  C 475.04 23.5  517.5 65.96  517.5 120  C 517.5 174.04  475.04 216.5  421 216.5  C 366.96 216.5  324.5 174.04  324.5 120  C 324.5 65.96  366.96 23.5  421 23.5  Z " fill-rule="nonzero" fill="#ffffff" stroke="none" fill-opacity="0" />
    <path d="M 421 22  C 475.88 22  519 65.12  519 120  C 519 174.88  475.88 218  421 218  C 366.12 218  323 174.88  323 120  C 323 65.12  366.12 22  421 22  Z " stroke-width="4" stroke="#ffffff" fill="none" stroke-opacity="0.996078431372549" />
  </g>
</svg>