<?xml version="1.0" encoding="utf-8"?>
<svg version="1.1" xmlns:xlink="http://www.w3.org/1999/xlink" width="200px" height="200px" xmlns="http://www.w3.org/2000/svg">
  <g transform="matrix(1 0 0 1 -321 -20 )">
    <path d="M 421 23  C 475.32 23  518 65.68  518 120  C 518 174.32  475.32 217  421 217  C 366.68 217  324 174.32  324 120  C 324 65.68  366.68 23  421 23  Z " fill-rule="nonzero" fill="#ffffff" stroke="none" fill-opacity="0" />
    <path d="M 421 22  C 475.88 22  519 65.12  519 120  C 519 174.88  475.88 218  421 218  C 366.12 218  323 174.88  323 120  C 323 65.12  366.12 22  421 22  Z " stroke-width="4" stroke="#673ab7" fill="none" />
  </g>
</svg>