<?xml version="1.0" encoding="utf-8"?>
<svg version="1.1" xmlns:xlink="http://www.w3.org/1999/xlink" width="35px" height="35px" xmlns="http://www.w3.org/2000/svg">
  <defs>
    <filter x="367px" y="-2px" width="35px" height="35px" filterUnits="userSpaceOnUse" id="filter190">
      <feOffset dx="3" dy="3" in="SourceAlpha" result="shadowOffsetInner" />
      <feGaussianBlur stdDeviation="2.5" in="shadowOffsetInner" result="shadowGaussian" />
      <feComposite in2="shadowGaussian" operator="atop" in="SourceAlpha" result="shadowComposite" />
      <feColorMatrix type="matrix" values="0 0 0 0 0  0 0 0 0 0  0 0 0 0 0  0 0 0 0.349019607843137 0  " in="shadowComposite" />
    </filter>
    <g id="widget191">
      <path d="M 381.5 1  C 387.94 1  393 6.06  393 12.5  C 393 18.94  387.94 24  381.5 24  C 375.06 24  370 18.94  370 12.5  C 370 6.06  375.06 1  381.5 1  Z " fill-rule="nonzero" fill="#c280ff" stroke="none" fill-opacity="0" />
      <path d="M 381.5 1  C 387.94 1  393 6.06  393 12.5  C 393 18.94  387.94 24  381.5 24  C 375.06 24  370 18.94  370 12.5  C 370 6.06  375.06 1  381.5 1  Z " stroke-width="2" stroke="#c280ff" fill="none" />
    </g>
  </defs>
  <g transform="matrix(1 0 0 1 -367 2 )">
    <use xlink:href="#widget191" filter="url(#filter190)" />
    <use xlink:href="#widget191" />
  </g>
</svg>