<?xml version="1.0" encoding="utf-8"?>
<svg version="1.1" xmlns:xlink="http://www.w3.org/1999/xlink" width="442px" height="316px" xmlns="http://www.w3.org/2000/svg">
  <defs>
    <filter x="506px" y="280px" width="442px" height="316px" filterUnits="userSpaceOnUse" id="filter206">
      <feOffset dx="0" dy="0" in="SourceAlpha" result="shadowOffsetInner" />
      <feGaussianBlur stdDeviation="2.5" in="shadowOffsetInner" result="shadowGaussian" />
      <feComposite in2="shadowGaussian" operator="atop" in="SourceAlpha" result="shadowComposite" />
      <feColorMatrix type="matrix" values="0 0 0 0 0  0 0 0 0 0  0 0 0 0 0  0 0 0 0.349019607843137 0  " in="shadowComposite" />
    </filter>
    <g id="widget207">
      <path d="M 172 87.1857142857143  L 172 209.342857142857  L 288 148.628571428571  L 172 87.1857142857143  Z M 65.0167224080268 4.37142857142856  C 105.311036789298 1.45714285714285  155.638795986622 0  216 0  C 242.969899665552 0  269.016722408027 0.364285714285713  294.140468227425 1.09285714285714  C 319.264214046823 1.82142857142856  337.685618729097 2.59047619047617  349.404682274247 3.39999999999999  L 366.983277591973 4.37142857142856  C 367.14381270903 4.37142857142856  368.508361204013 4.49285714285713  371.076923076923 4.73571428571427  C 373.645484949833 4.97857142857144  375.491638795987 5.22142857142859  376.615384615385 5.46428571428573  C 377.739130434783 5.70714285714287  379.625418060201 6.07142857142858  382.274247491639 6.55714285714287  C 384.923076923077 7.04285714285715  387.210702341137 7.69047619047615  389.137123745819 8.5  C 391.063545150502 9.30952380952379  393.311036789298 10.3619047619047  395.879598662207 11.6571428571428  C 398.448160535117 12.9523809523809  400.936454849498 14.5309523809524  403.344481605351 16.3928571428572  C 405.752508361204 18.2547619047619  408.080267558528 20.4  410.327759197324 22.8285714285714  C 411.290969899666 23.8  412.535117056856 25.297619047619  414.060200668896 27.3214285714286  C 415.585284280936 29.3452380952381  417.913043478261 34.0809523809524  421.04347826087 41.5285714285714  C 424.173913043478 48.9761904761904  426.301003344482 57.1523809523809  427.42474916388 66.0571428571429  C 428.709030100335 76.4190476190476  429.71237458194 87.4690476190476  430.434782608696 99.2071428571428  C 431.157190635452 110.945238095238  431.598662207358 120.133333333333  431.759197324415 126.771428571429  L 431 136.485714285714  L 431 169.514285714286  C 431.919732441472 192.990476190476  430.47491638796 216.466666666667  427.42474916388 239.942857142857  C 426.301003344482 248.847619047619  424.294314381271 256.902380952381  421.404682274248 264.107142857143  C 418.515050167224 271.311904761905  415.946488294314 276.290476190476  413.698996655518 279.042857142857  L 410.327759197324 283.171428571429  C 408.080267558528 285.6  405.752508361204 287.745238095238  403.344481605351 289.607142857143  C 400.936454849498 291.469047619048  398.448160535117 293.007142857143  395.879598662207 294.221428571429  C 393.311036789298 295.435714285714  391.063545150502 296.447619047619  389.137123745819 297.257142857143  C 387.210702341137 298.066666666667  384.923076923077 298.714285714286  382.274247491639 299.2  C 379.625418060201 299.685714285714  377.698996655518 300.05  376.494983277592 300.292857142857  C 375.290969899666 300.535714285714  373.444816053512 300.778571428571  370.95652173913 301.021428571429  C 368.468227424749 301.264285714286  367.14381270903 301.385714285714  366.983277591973 301.385714285714  C 326.688963210702 304.461904761905  276.361204013378 306  216 306  C 182.769230769231 305.676190476191  153.913043478261 305.15  129.43143812709 304.421428571429  C 104.94983277592 303.692857142857  88.8561872909699 303.085714285714  81.1505016722408 302.6  L 69.3511705685619 301.628571428571  L 60.6822742474916 300.657142857143  C 54.9030100334448 299.847619047619  50.5284280936455 299.038095238095  47.5585284280936 298.228571428571  C 44.5886287625418 297.419047619048  40.494983277592 295.719047619048  35.2775919732441 293.128571428571  C 30.0602006688963 290.538095238095  25.5250836120401 287.219047619048  21.6722408026756 283.171428571429  C 20.7090301003344 282.2  19.4648829431438 280.702380952381  17.9397993311037 278.678571428571  C 16.4147157190635 276.654761904762  14.0869565217391 271.919047619048  10.9565217391304 264.471428571429  C 7.82608695652174 257.02380952381  5.69899665551839 248.847619047619  4.5752508361204 239.942857142857  C 3.29096989966555 229.580952380952  2.2876254180602 218.530952380952  1.56521739130435 206.792857142857  C 0.842809364548495 195.054761904762  0.40133779264214 185.866666666667  0.240802675585284 179.228571428571  L 1 169.514285714286  L 1 136.485714285714  C 0.0802675585284281 113.009523809524  1.52508361204013 89.5333333333333  4.5752508361204 66.0571428571429  C 5.69899665551839 57.1523809523809  7.7056856187291 49.097619047619  10.5953177257525 41.8928571428571  C 13.4849498327759 34.6880952380952  16.0535117056856 29.7095238095238  18.3010033444816 26.9571428571429  L 21.6722408026756 22.8285714285714  C 23.9197324414716 20.4  26.247491638796 18.2547619047619  28.6555183946488 16.3928571428572  C 31.0635451505017 14.5309523809524  33.5518394648829 12.9523809523809  36.1204013377926 11.6571428571428  C 38.6889632107023 10.3619047619047  40.9364548494983 9.30952380952379  42.8628762541806 8.5  C 44.7892976588629 7.69047619047615  47.0769230769231 7.04285714285715  49.7257525083612 6.55714285714287  C 52.3745819397993 6.07142857142858  54.2608695652174 5.70714285714287  55.3846153846154 5.46428571428573  C 56.5083612040134 5.22142857142859  58.3545150501672 4.97857142857144  60.9230769230769 4.73571428571427  C 63.4916387959866 4.49285714285713  64.8561872909699 4.37142857142856  65.0167224080268 4.37142857142856  Z " fill-rule="nonzero" fill="#000000" stroke="none" transform="matrix(1 0 0 1 511 285 )" />
    </g>
  </defs>
  <g transform="matrix(1 0 0 1 -506 -280 )">
    <use xlink:href="#widget207" filter="url(#filter206)" />
    <use xlink:href="#widget207" />
  </g>
</svg>