<?xml version="1.0" standalone="no"?><!DOCTYPE svg PUBLIC "-//W3C//DTD SVG 1.1//EN" "http://www.w3.org/Graphics/SVG/1.1/DTD/svg11.dtd"><svg t="1570777100156" class="icon" viewBox="0 0 1024 1024" version="1.1" xmlns="http://www.w3.org/2000/svg" p-id="15272" xmlns:xlink="http://www.w3.org/1999/xlink" width="200" height="200"><defs><style type="text/css"></style></defs><path d="M837.2 551.9H417.9c-18.4 0-34.6-12.3-39.5-30.1l-77.9-282.5c-7.2-26.1 12.4-51.8 39.5-51.8h575.2c27.1 0 46.7 25.8 39.5 51.8l-77.9 282.5c-5 17.8-21.1 30.1-39.6 30.1z" fill="#EBECCE" p-id="15273"></path><path d="M888.7 187.5H857c27.1 0 46.7 25.8 39.5 51.8l-77.9 282.5c-4.9 17.8-21.1 30.1-39.5 30.1h31.6c18.4 0 34.6-12.3 39.5-30.1l77.9-282.5c7.2-26.1-12.4-51.8-39.4-51.8z" fill="#ABBE9D" p-id="15274"></path><path d="M661.7 371h-40.2v-40.2c0-6.4-5.2-11.6-11.6-11.6h-17.7c-6.4 0-11.6 5.2-11.6 11.6V371h-40.2c-6.4 0-11.6 5.2-11.6 11.6v17.7c0 6.4 5.2 11.6 11.6 11.6h40.2v40.2c0 6.4 5.2 11.6 11.6 11.6h17.7c6.4 0 11.6-5.2 11.6-11.6v-40.2h40.2c6.4 0 11.6-5.2 11.6-11.6v-17.7c0.1-6.4-5.2-11.6-11.6-11.6z" fill="#E5A42F" p-id="15275"></path><path d="M453.9 743.3m-69.9 0a69.9 69.9 0 1 0 139.8 0 69.9 69.9 0 1 0-139.8 0Z" fill="#EBECCE" p-id="15276"></path><path d="M453.8 673.3c-36.6 0-66.6 28.2-69.6 64 3-29.1 27.5-51.8 57.4-51.8 31.9 0 57.7 25.8 57.7 57.7 0 31.9-25.8 57.7-57.7 57.7-29.9 0-54.4-22.7-57.4-51.8 3 35.9 33 64 69.6 64 38.6 0 69.9-31.3 69.9-69.9 0-38.6-31.3-69.9-69.9-69.9z" fill="#ABBE9D" p-id="15277"></path><path d="M453.9 825.5c-45.3 0-82.2-36.9-82.2-82.2 0-45.3 36.9-82.2 82.2-82.2 45.3 0 82.2 36.9 82.2 82.2 0 45.3-36.9 82.2-82.2 82.2z m0-139.9c-31.8 0-57.7 25.9-57.7 57.7 0 31.8 25.9 57.7 57.7 57.7 31.8 0 57.7-25.9 57.7-57.7 0-31.8-25.9-57.7-57.7-57.7z" fill="#533545" p-id="15278"></path><path d="M762.8 743.3m-69.9 0a69.9 69.9 0 1 0 139.8 0 69.9 69.9 0 1 0-139.8 0Z" fill="#EBECCE" p-id="15279"></path><path d="M762.8 673.3c-36.6 0-66.6 28.2-69.6 64 3-29.1 27.5-51.8 57.4-51.8 31.9 0 57.7 25.8 57.7 57.7 0 31.9-25.8 57.7-57.7 57.7-29.9 0-54.4-22.7-57.4-51.8 3 35.9 33 64 69.6 64 38.6 0 69.9-31.3 69.9-69.9 0.1-38.6-31.3-69.9-69.9-69.9z" fill="#ABBE9D" p-id="15280"></path><path d="M762.8 825.5c-45.3 0-82.2-36.9-82.2-82.2 0-45.3 36.9-82.2 82.2-82.2 45.3 0 82.2 36.9 82.2 82.2 0 45.3-36.9 82.2-82.2 82.2z m0-139.9c-31.8 0-57.7 25.9-57.7 57.7 0 31.8 25.9 57.7 57.7 57.7 31.8 0 57.7-25.9 57.7-57.7 0-31.8-25.9-57.7-57.7-57.7zM810.7 564.2H391.4c-23.9 0-45-16.1-51.3-39.1l-77.9-282.5c-4.5-16.2-1.2-33.1 9-46.4 10.2-13.3 25.6-21 42.3-21h575.2c16.8 0 32.2 7.6 42.3 21 10.1 13.3 13.4 30.2 9 46.4l-23.3 84.6c-1.8 6.5-8.5 10.4-15.1 8.6-6.5-1.8-10.4-8.5-8.6-15.1l23.3-84.6c2.4-8.7 0.6-17.8-4.8-25-5.5-7.2-13.8-11.3-22.8-11.3H313.5c-9 0-17.4 4.1-22.8 11.3-5.5 7.2-7.2 16.3-4.8 25l77.9 282.5c3.4 12.4 14.8 21.1 27.7 21.1h419.3c12.9 0 24.2-8.7 27.7-21.1l21.4-77.6c1.8-6.5 8.6-10.4 15.1-8.6 6.5 1.8 10.4 8.6 8.6 15.1L862 525.1c-6.3 23-27.4 39.1-51.3 39.1z" fill="#533545" p-id="15281"></path><path d="M886.2 403.7c-1.1 0-2.2-0.1-3.3-0.4-6.5-1.8-10.4-8.5-8.6-15.1L883 357c1.8-6.5 8.5-10.4 15.1-8.6 6.5 1.8 10.4 8.5 8.6 15.1l-8.6 31.2c-1.6 5.4-6.5 9-11.9 9zM928.1 251.6H274c-6.8 0-12.3-5.5-12.3-12.3 0-6.8 5.5-12.3 12.3-12.3h654.2c6.8 0 12.3 5.5 12.3 12.3-0.1 6.8-5.6 12.3-12.4 12.3z" fill="#533545" p-id="15282"></path><path d="M465.7 290.4H352.1c-0.9 0-1.6-0.7-1.6-1.6v-47.9c0-0.9 0.7-1.6 1.6-1.6h113.7c0.9 0 1.6 0.7 1.6 1.6v47.9c-0.1 0.9-0.8 1.6-1.7 1.6z" fill="#E5A42F" p-id="15283"></path><path d="M448.1 239.3h-78.3c-10.6 0-19.3 8.6-19.3 19.3v12.6c0 0.9 0.1 1.8 0.3 2.8 1.3-9.3 9.3-16.5 19-16.5h78.3c9.7 0 17.7 7.2 19 16.5 0.1-0.9 0.3-1.8 0.3-2.8v-12.6c-0.1-10.6-8.7-19.3-19.3-19.3z" fill="#BF691C" p-id="15284"></path><path d="M451 302.7h-84.2c-15.8 0-28.6-12.8-28.6-28.6v-18.4c0-15.8 12.8-28.6 28.6-28.6H451c15.8 0 28.6 12.8 28.6 28.6v18.4c0 15.8-12.8 28.6-28.6 28.6z m-84.2-51.1c-2.3 0-4.1 1.8-4.1 4.1v18.4c0 2.3 1.8 4.1 4.1 4.1H451c2.3 0 4.1-1.8 4.1-4.1v-18.4c0-2.3-1.8-4.1-4.1-4.1h-84.2z" fill="#533545" p-id="15285"></path><path d="M856.1 290.4H742.4c-0.9 0-1.6-0.7-1.6-1.6v-47.9c0-0.9 0.7-1.6 1.6-1.6h113.7c0.9 0 1.6 0.7 1.6 1.6v47.9c0 0.9-0.7 1.6-1.6 1.6z" fill="#E5A42F" p-id="15286"></path><path d="M838.4 239.3h-78.3c-10.6 0-19.3 8.6-19.3 19.3v12.6c0 0.9 0.1 1.8 0.3 2.8 1.3-9.3 9.3-16.5 19-16.5h78.3c9.7 0 17.7 7.2 19 16.5 0.1-0.9 0.3-1.8 0.3-2.8v-12.6c0-10.6-8.6-19.3-19.3-19.3z" fill="#BF691C" p-id="15287"></path><path d="M841.4 302.7h-84.2c-15.8 0-28.6-12.8-28.6-28.6v-18.4c0-15.8 12.8-28.6 28.6-28.6h84.2c15.8 0 28.6 12.8 28.6 28.6v18.4c0 15.8-12.9 28.6-28.6 28.6z m-84.2-51.1c-2.3 0-4.1 1.8-4.1 4.1v18.4c0 2.3 1.8 4.1 4.1 4.1h84.2c2.3 0 4.1-1.8 4.1-4.1v-18.4c0-2.3-1.8-4.1-4.1-4.1h-84.2zM906.4 628.9H344.9c-24 0-45.3-15.3-52.9-38.1L180.1 257.9c-1.8-5.4-6.9-9.1-12.6-9.1h-90c-6.8 0-12.3-5.5-12.3-12.3 0-6.8 5.5-12.3 12.3-12.3h90.1c16.3 0 30.7 10.4 35.9 25.8l111.7 333c4.3 12.8 16.2 21.4 29.7 21.4h561.6c6.8 0 12.3 5.5 12.3 12.3-0.1 6.7-5.6 12.2-12.4 12.2z" fill="#533545" p-id="15288"></path><path d="M453.9 685.6c-6.8 0-12.3-5.5-12.3-12.3v-56.7c0-6.8 5.5-12.3 12.3-12.3 6.8 0 12.3 5.5 12.3 12.3v56.7c0 6.8-5.5 12.3-12.3 12.3zM762.8 685.6c-6.8 0-12.3-5.5-12.3-12.3v-56.7c0-6.8 5.5-12.3 12.3-12.3s12.3 5.5 12.3 12.3v56.7c0 6.8-5.5 12.3-12.3 12.3zM762.8 755.5H453.9c-6.8 0-12.3-5.5-12.3-12.3 0-6.8 5.5-12.3 12.3-12.3h308.9c6.8 0 12.3 5.5 12.3 12.3 0 6.8-5.5 12.3-12.3 12.3z" fill="#533545" p-id="15289"></path></svg>