<?xml version="1.0" encoding="utf-8"?>
<svg version="1.1" xmlns:xlink="http://www.w3.org/1999/xlink" width="90px" height="73px" xmlns="http://www.w3.org/2000/svg">
  <g transform="matrix(1 0 0 1 -973 -26 )">
    <path d="M 68.26171875 33.93359375  C 69.00390625 34.6559895833333  69.375 35.5114583333333  69.375 36.5  C 69.375 37.4885416666667  69.00390625 38.3440104166667  68.26171875 39.06640625  L 36.38671875 70.09140625  C 35.64453125 70.8138020833333  34.765625 71.175  33.75 71.175  C 32.734375 71.175  31.85546875 70.8138020833333  31.11328125 70.09140625  C 30.37109375 69.3690104166667  30 68.5135416666667  30 67.525  L 30 51  L 3.75 51  C 2.734375 51.1  1.85546875 50.7388020833333  1.11328125 50.01640625  C 0.37109375 49.2940104166667  0 48.4385416666667  0 47.45  L 0 25.55  C 0 24.5614583333333  0.37109375 23.7059895833333  1.11328125 22.98359375  C 1.85546875 22.2611979166667  2.734375 21.9  3.75 22  L 30 22  L 30 5.475  C 30 4.48645833333332  30.37109375 3.63098958333332  31.11328125 2.90859375  C 31.85546875 2.18619791666666  32.734375 1.825  33.75 1.825  C 34.765625 1.825  35.64453125 2.18619791666666  36.38671875 2.90859375  L 68.26171875 33.93359375  Z M 85.048828125 4.819140625  C 88.349609375 8.03190104166666  90 11.9005208333333  90 16.425  L 90 56.575  C 90 61.0994791666667  88.349609375 64.9680989583333  85.048828125 68.180859375  C 81.748046875 71.3936197916667  77.7734375 73  73.125 73  L 54.375 73  C 53.8671875 73  53.427734375 72.8194010416667  53.056640625 72.458203125  C 52.685546875 72.0970052083333  52.5 71.6692708333333  52.5 71.175  C 52.5 71.0229166666667  52.48046875 70.6427083333333  52.44140625 70.034375  C 52.40234375 69.4260416666667  52.392578125 68.922265625  52.412109375 68.523046875  C 52.431640625 68.123828125  52.490234375 67.6770833333333  52.587890625 67.1828125  C 52.685546875 66.6885416666667  52.880859375 66.3178385416667  53.173828125 66.070703125  C 53.466796875 65.8235677083333  53.8671875 65.7  54.375 65  L 73.125 65  C 75.703125 65.7  77.91015625 64.8065104166667  79.74609375 63.01953125  C 81.58203125 61.2325520833333  82.5 59.084375  82 56.575  L 82 16.425  C 82.5 13.915625  81.58203125 11.7674479166667  79.74609375 9.98046875  C 77.91015625 8.19348958333332  75.703125 7.3  73.125 8  L 56.25 8  L 55.60546875 7.3  L 54.84375 7.3  C 54.84375 7.3  54.619140625 7.28098958333332  54.169921875 7.24296875  C 53.720703125 7.20494791666666  53.49609375 7.14791666666667  53.49609375 7.071875  C 53.49609375 6.99583333333332  53.33984375 6.89127604166666  53.02734375 6.758203125  C 52.71484375 6.62513020833332  52.578125 6.45403645833332  52.6171875 6.244921875  C 52.65625 6.03580729166666  52.6171875 5.77916666666666  52.5 5.475  C 52.5 5.32291666666666  52.48046875 4.94270833333333  52.44140625 4.334375  C 52.40234375 3.72604166666667  52.392578125 3.222265625  52.412109375 2.823046875  C 52.431640625 2.423828125  52.490234375 1.97708333333333  52.587890625 1.4828125  C 52.685546875 0.988541666666659  52.880859375 0.617838541666664  53.173828125 0.370703125000003  C 53.466796875 0.123567708333326  53.8671875 0  54.375 0  L 73.125 0  C 77.7734375 0  81.748046875 1.60638020833332  85.048828125 4.819140625  Z " fill-rule="nonzero" fill="#55c2fd" stroke="none" transform="matrix(1 0 0 1 973 26 )" />
  </g>
</svg>