<?xml version="1.0" encoding="utf-8"?>
<svg version="1.1" xmlns:xlink="http://www.w3.org/1999/xlink" width="100px" height="100px" xmlns="http://www.w3.org/2000/svg">
  <g transform="matrix(1 0 0 1 -325 -380 )">
    <path d="M 325.5 430  A 49.5 49.5 0 0 1 375 380.5 A 49.5 49.5 0 0 1 424.5 430 A 49.5 49.5 0 0 1 375 479.5 A 49.5 49.5 0 0 1 325.5 430 Z " fill-rule="nonzero" fill="#67bee3" stroke="none" />
    <path d="M 325.5 430  A 49.5 49.5 0 0 1 375 380.5 A 49.5 49.5 0 0 1 424.5 430 A 49.5 49.5 0 0 1 375 479.5 A 49.5 49.5 0 0 1 325.5 430 Z " stroke-width="1" stroke="#797979" fill="none" />
  </g>
</svg>