<?xml version="1.0" standalone="no"?><!DOCTYPE svg PUBLIC "-//W3C//DTD SVG 1.1//EN" "http://www.w3.org/Graphics/SVG/1.1/DTD/svg11.dtd"><svg t="1572335437575" class="icon" viewBox="0 0 1024 1024" version="1.1" xmlns="http://www.w3.org/2000/svg" p-id="6833" xmlns:xlink="http://www.w3.org/1999/xlink" width="200" height="200"><defs><style type="text/css"></style></defs><path d="M400.2 829.4c-38.4 0-75.5-15-102.9-42.4L110.4 614.5C53 557.1 53 464.7 109.7 407.9l188.2-173.8c29.2-29.2 70.6-44.3 112.8-41.5 7.5-1 14.1-1.4 20.5-1.4h315.3c92 0 166.9 74.9 166.9 166.9v303.1c0 92-74.9 166.9-166.9 166.9H431.2c-2.9 0-5.7-0.2-8.5-0.4-7.5 1.2-15 1.7-22.5 1.7z m0-591.4c-26.5 0-51.8 10.3-70.5 29.1L141.4 440.9c-38.3 38.3-38.3 101.6 0.7 140.6L329 754c23.5 23.5 56.5 33.8 88.7 28.1l2.8-0.5 2.8 0.2c3.6 0.3 5.8 0.4 8 0.4h315.3c66.8 0 121.1-54.3 121.1-121.1v-303c0-66.8-54.3-121.1-121.1-121.1H431.2c-5.7 0-11.2 0.6-16.7 1.3l-2.6 0.4-2.6-0.2c-3-0.3-6.1-0.5-9.1-0.5z" fill="#6B6E7E" p-id="6834"></path><path d="M708.5 666.3c-5.9 0-11.9-2.3-16.3-6.9L424 385.8c-8.9-9-8.7-23.5 0.3-32.4 9-8.9 23.5-8.7 32.4 0.3l268.2 273.6c8.9 9 8.7 23.5-0.3 32.4-4.5 4.4-10.3 6.6-16.1 6.6z" fill="#6B6E7E" p-id="6835"></path><path d="M440.3 666.3c-5.8 0-11.6-2.2-16-6.5-9-8.9-9.2-23.3-0.3-32.4l268.2-273.6c8.8-9 23.3-9.2 32.4-0.3 9 8.9 9.2 23.3 0.3 32.4L456.6 659.4c-4.4 4.6-10.4 6.9-16.3 6.9z" fill="#6B6E7E" p-id="6836"></path></svg>