<?xml version="1.0" standalone="no"?><!DOCTYPE svg PUBLIC "-//W3C//DTD SVG 1.1//EN" "http://www.w3.org/Graphics/SVG/1.1/DTD/svg11.dtd"><svg t="1570777336150" class="icon" viewBox="0 0 1024 1024" version="1.1" xmlns="http://www.w3.org/2000/svg" p-id="21150" width="200" height="200" xmlns:xlink="http://www.w3.org/1999/xlink"><defs><style type="text/css"></style></defs><path d="M 968.533 972.8 c 0 18.7733 -206.507 34.1333 -460.8 34.1333 s -460.8 -15.36 -460.8 -34.1333 s 206.507 -34.1333 460.8 -34.1333 s 460.8 15.36 460.8 34.1333 Z" fill="#e7eaf1" p-id="21151"></path><path d="M 695.467 955.733 h -17.0667 v -836.267 c 0 -10.24 -6.82667 -17.0667 -17.0667 -17.0667 h -494.933 c -10.24 0 -17.0667 6.82667 -17.0667 17.0667 v 836.267 h -34.1333 c -10.24 0 -17.0667 -6.82667 -17.0667 -17.0667 v -853.333 c 0 -10.24 6.82667 -17.0667 17.0667 -17.0667 h 580.267 c 10.24 0 17.0667 6.82667 17.0667 17.0667 v 853.333 c 0 8.53333 -6.82667 17.0667 -17.0667 17.0667 Z" fill="#e7e7e8" p-id="21152"></path><path d="M 707.413 964.267 h -25.6 c -6.82667 0 -13.6533 -5.12 -13.6533 -13.6533 V 121.173 c 0 -5.12 -5.12 -10.24 -10.24 -10.24 h -493.227 c -5.12 0 -10.24 5.12 -10.24 10.24 v 831.147 c 0 6.82667 -5.12 13.6533 -13.6533 13.6533 h -17.0667 c -20.48 0 -39.2533 -17.0667 -39.2533 -39.2533 v -827.733 c 0 -20.48 17.0667 -37.5467 39.2533 -37.5467 h 554.667 c 20.48 0 39.2533 17.0667 39.2533 37.5467 V 954.027 c 3.41333 5.12 -1.70667 10.24 -10.24 10.24 Z m -20.48 -17.0667 h 17.0667 v -849.92 c 0 -11.9467 -10.24 -20.48 -22.1867 -20.48 h -554.667 c -11.9467 0 -22.1867 10.24 -22.1867 20.48 v 827.733 c 0 11.9467 10.24 22.1867 22.1867 22.1867 c 6.82667 0 13.6533 -5.12 13.6533 -13.6533 v -820.907 c 0 -10.24 8.53333 -18.7733 18.7733 -18.7733 h 506.88 c 10.24 0 18.7733 8.53333 18.7733 18.7733 v 834.56 Z" fill="#d8d8d8" p-id="21153"></path><path d="M 174.933 68.2667 l 288.427 -51.2 c 11.9467 -1.70667 23.8933 5.12 25.6 17.0667 v 955.733 c -3.41333 11.9467 -13.6533 18.7733 -25.6 17.0667 l -288.427 -51.2 c -11.9467 1.70667 -23.8933 -5.12 -25.6 -17.0667 v -853.333 c 3.41333 -11.9467 13.6533 -18.7733 25.6 -17.0667 Z" fill="#fbfbfb" p-id="21154"></path><path d="M 473.6 1015.47 h -10.24 l -288.427 -51.2 c -15.36 1.70667 -30.72 -8.53333 -34.1333 -23.8933 v -856.747 c 3.41333 -15.36 18.7733 -25.6 34.1333 -23.8933 l 286.72 -51.2 h 10.24 c 13.6533 0 22.1867 10.24 25.6 23.8933 V 991.573 c -1.70667 15.36 -10.24 23.8933 -23.8933 23.8933 Z m -298.667 -68.2667 l 290.133 51.2 c 6.82667 1.70667 13.6533 -3.41333 17.0667 -10.24 V 35.84 c -1.70667 -6.82667 -8.53333 -11.9467 -17.0667 -10.24 l -290.133 51.2 h -1.70667 c -6.82667 -1.70667 -13.6533 3.41333 -17.0667 10.24 v 851.627 c 3.41333 5.12 10.24 10.24 18.7733 8.53333 Z" fill="#d8d8d8" p-id="21155"></path><path d="M 473.6 8.53333 h 34.1333 v 1006.93 h -34.1333 Z M 140.8 59.7333 h 34.1333 v 904.533 h -34.1333 Z" fill="#d8d8d8" p-id="21156"></path><path d="M 405.333 460.8 c 10.24 0 17.0667 6.82667 17.0667 17.0667 v 68.2667 c 0 10.24 -6.82667 17.0667 -17.0667 17.0667 s -17.0667 -6.82667 -17.0667 -17.0667 v -68.2667 c 0 -10.24 6.82667 -17.0667 17.0667 -17.0667 Z" fill="#cfbfb2" p-id="21157"></path><path d="M 832 836.267 h 51.2 c 10.24 0 17.0667 6.82667 17.0667 17.0667 v 85.3333 c 0 10.24 -6.82667 17.0667 -17.0667 17.0667 h -51.2 c -10.24 0 -17.0667 -6.82667 -17.0667 -17.0667 v -85.3333 c 0 -10.24 6.82667 -17.0667 17.0667 -17.0667 Z" fill="#e7e7e8" p-id="21158"></path><path d="M 883.2 964.267 h -51.2 c -13.6533 0 -25.6 -11.9467 -25.6 -25.6 v -85.3333 c 0 -13.6533 11.9467 -25.6 25.6 -25.6 h 51.2 c 13.6533 0 25.6 11.9467 25.6 25.6 v 85.3333 c 0 13.6533 -11.9467 25.6 -25.6 25.6 Z m -51.2 -119.467 c -5.12 0 -8.53333 3.41333 -8.53333 8.53333 v 85.3333 c 0 5.12 3.41333 8.53333 8.53333 8.53333 h 51.2 c 5.12 0 8.53333 -3.41333 8.53333 -8.53333 v -85.3333 c 0 -5.12 -3.41333 -8.53333 -8.53333 -8.53333 h -51.2 Z" fill="#d8d8d8" p-id="21159"></path><path d="M 840.533 836.267 c 0 -1.70667 -3.41333 -51.2 -44.3733 -63.1467 l 6.82667 -15.36 c 42.6667 11.9467 54.6133 56.32 54.6133 76.8 l -17.0667 1.70667 Z" fill="#d8d8d8" p-id="21160"></path><path d="M 855.893 827.733 c -8.53333 -49.4933 10.24 -97.28 52.9067 -124.587 l 6.82667 13.6533 c -37.5467 23.8933 -54.6133 66.56 -46.08 110.933 h -13.6533 Z" fill="#d8d8d8" p-id="21161"></path><path d="M 869.547 827.733 l -11.9467 -11.9467 c 1.70667 -1.70667 22.1867 -54.6133 71.68 -56.32 l -8.53333 20.48 c -39.2533 1.70667 -51.2 47.7867 -51.2 47.7867 Z" fill="#d8d8d8" p-id="21162"></path><path d="M 942.933 810.667 c -18.7733 0 -34.1333 -15.36 -34.1333 -34.1333 s 15.36 -34.1333 34.1333 -34.1333 s 34.1333 15.36 34.1333 34.1333 s -15.36 34.1333 -34.1333 34.1333 Z m 0 -51.2 c -10.24 0 -17.0667 6.82667 -17.0667 17.0667 s 6.82667 17.0667 17.0667 17.0667 s 17.0667 -6.82667 17.0667 -17.0667 s -6.82667 -17.0667 -17.0667 -17.0667 Z m -153.6 17.0667 c -18.7733 0 -34.1333 -15.36 -34.1333 -34.1333 s 15.36 -34.1333 34.1333 -34.1333 s 34.1333 15.36 34.1333 34.1333 s -15.36 34.1333 -34.1333 34.1333 Z m 0 -51.2 c -10.24 0 -17.0667 6.82667 -17.0667 17.0667 s 6.82667 17.0667 17.0667 17.0667 s 17.0667 -6.82667 17.0667 -17.0667 s -6.82667 -17.0667 -17.0667 -17.0667 Z m 145.067 17.0667 c -23.8933 0 -42.6667 -18.7733 -42.6667 -42.6667 s 18.7733 -42.6667 42.6667 -42.6667 s 42.6667 18.7733 42.6667 42.6667 s -18.7733 42.6667 -42.6667 42.6667 Z m 0 -68.2667 c -13.6533 0 -25.6 11.9467 -25.6 25.6 s 11.9467 25.6 25.6 25.6 s 25.6 -11.9467 25.6 -25.6 s -11.9467 -25.6 -25.6 -25.6 Z" fill="#d8d8d8" p-id="21163"></path></svg>