<?xml version="1.0" encoding="utf-8"?>
<svg version="1.1" xmlns:xlink="http://www.w3.org/1999/xlink" width="134px" height="110px" xmlns="http://www.w3.org/2000/svg">
  <g transform="matrix(1 0 0 1 -86 -87 )">
    <path d="M 86 87  L 220 87  L 220 197  L 86 197  L 86 87  " fill-rule="nonzero" fill="#cccccc" stroke="none" />
    <path d="M 94 95  L 212 95  L 212 189  L 94 189  L 94 95  " fill-rule="nonzero" fill="#ffffff" stroke="none" />
    <path d="M 163.93 120  C 159.31 120  155.68 116.37  155.68 111.75  C 155.68 107.13  159.31 103.5  163.93 103.5  C 168.55 103.5  172.18 107.13  172.18 111.75  C 172.18 116.37  168.55 120  163.93 120  " fill-rule="nonzero" fill="#cccccc" stroke="none" />
    <path d="M 97 186  L 97 137.6  L 125 115.6  L 164.2 142.65671641791  L 186.6 128.8  L 209 142.65671641791  L 209 186  L 97 186  " fill-rule="nonzero" fill="#169bd5" stroke="none" />
  </g>
</svg>