<?xml version="1.0" encoding="utf-8"?>
<svg version="1.1" xmlns:xlink="http://www.w3.org/1999/xlink" width="100px" height="97px" xmlns="http://www.w3.org/2000/svg">
  <g transform="matrix(1 0 0 1 -186 -22 )">
    <path d="M 100 87.6813675213675  C 100 92.6681623931624  96.03125 96.7471367521367  91.05 96  L 9.35 96  C 4.27658068312685 96.9532961318823  0.099211356112711 92.9334731415466  0 87.8865598290598  L 0 27.2180341880342  C 0 24.7557264957265  0.987500000000002 22.386688034188  2.75 20.6580982905983  C 4.50423237978708 18.9322265458629  6.88318934619417 17.981937675288  9.35 18  L 26.1375 18  L 26.1375 9.87617521367521  C 26.175 7.43873931623931  27.1875 5.11322649572649  28.9375 3.41572649572649  C 30.69375 1.71822649572649  33.05 0.791752136752131  35.4875 1  L 66.28125 1  C 71.3 0.829059829059825  75.4 4.8582905982906  75.48125 9.88239316239316  L 75.48125 18  L 90.65 18  C 95.7234193168731 17.9523235262373  99.9007886438873 21.9721465165731  100 27.0190598290598  L 100 87.6813675213675  Z M 69.46875 9.87617521367521  L 69.4625 9.88239316239316  C 69.4316909892091 8.15790676912825  68.0085615674091 6.78094140479162  66.275 7  L 35.49375 7  C 33.7499928143515 6.77382794604819  32.3101992485112 8.14805495670552  32.2625 9.88239316239316  L 32.2625 18  L 69.46875 18  L 69.46875 9.87617521367521  Z M 94 87.9363034188034  L 94 27.0190598290598  C 94.1125301537948 25.3807381828767  92.7056607119078 24.148609697508  91.05 25  L 9.35 25  C 7.60624281435152 24.1592125614328  6.16644924851119 25.5334395720901  7 27.2677777777778  L 7 87.9363034188034  C 6.175 89.6773290598291  7.61875 91.0452777777778  9.35 91  L 91.05 91  C 92.7961759214336 91.0483086419706  94.2397847985252 89.6731000429283  94 87.9363034188034  Z M 54.60625 79.2933547008547  L 54.6 79.2933547008547  L 47.11875 79.2933547008547  C 44.357326250846 79.2933547008547  42.11875 77.0662583282181  42.11875 74.3189957264957  L 42.11875 66.5465598290598  L 33.76875 66.5465598290598  C 31.007326250846 66.5465598290598  28.76875 64.3194634564233  28.76875 61.5722008547009  L 28.76875 54.4402136752137  C 28.76875 51.6929510734913  31.007326250846 49.4658547008547  33.76875 49.4658547008547  L 42.1125 49.4658547008547  L 42.1125 41.8488675213675  C 42.1125 39.1016049196451  44.351076250846 36.8745085470086  47.1125 36.8745085470086  L 54.60625 36.8745085470086  C 57.367673749154 36.8745085470086  59.60625 39.1016049196451  59.60625 41.8488675213675  L 59.60625 49.4658547008547  L 67.7 49.4658547008547  C 70.461423749154 49.4658547008547  72.7 51.6929510734913  72.7 54.4402136752137  L 72.7 61.3732264957265  C 72.7 64.1204890974489  70.461423749154 66.3475854700855  67.7 66.3475854700855  L 59.60625 66.3475854700855  L 59.60625 74.3189957264957  C 59.60625 77.0662583282182  57.367673749154 79.2933547008547  54.60625 79.2933547008547  Z M 66.575 60  L 66.58125 60.6395085470085  L 66.58125 55  L 53 55  L 53 42.7877777777778  L 49 42.7877777777778  L 49 55  L 35.0375 55  L 35.0375 60  L 49 60  L 49 73.3738675213675  L 53 73.3738675213675  L 53 60  L 66.575 60  Z " fill-rule="nonzero" fill="#000000" stroke="none" fill-opacity="0.349019607843137" transform="matrix(1 0 0 1 186 22 )" />
  </g>
</svg>