<?xml version="1.0" encoding="utf-8"?>
<svg version="1.1" xmlns:xlink="http://www.w3.org/1999/xlink" width="40px" height="34px" xmlns="http://www.w3.org/2000/svg">
  <g transform="matrix(1 0 0 1 0 -1 )">
    <path d="M 18.0048076923077 2.91701828410689  C 18.3092948717949 3.21987810595405  18.4615384615385 3.57852789498359  19 3.9929676511955  L 19 30.0070323488045  C 18.4615384615385 30.4214721050164  18.3092948717949 30.7801218940459  18.0048076923077 31.0829817158931  C 17.7003205128205 31.3858415377403  17.3397435897436 31.5372714486639  16.9230769230769 31.5372714486639  C 16.5064102564103 31.5372714486639  16.1458333333333 31.3858415377403  15.8413461538462 31.0829817158931  L 7.83653846153846 23.1209563994374  L 1.53846153846154 23.1209563994374  C 1.12179487179487 23.1209563994374  0.761217948717949 22.9695264885138  0.456730769230769 22.6666666666667  C 0.15224358974359 22.3638068448195  0 22.00515705579  0 21.5907172995781  L 0 12.4092827004219  C 0 11.99484294421  0.15224358974359 11.6361931551805  0.456730769230769 11.3333333333333  C 0.761217948717949 11.0304735114862  1.12179487179487 10.8790436005626  1.53846153846154 10.8790436005626  L 7.83653846153846 10.8790436005626  L 15.8413461538462 2.91701828410689  C 16.1458333333333 2.61415846225973  16.5064102564103 2.46272855133615  16.9230769230769 2.46272855133615  C 17.3397435897436 2.46272855133615  17.7003205128205 2.61415846225973  18.0048076923077 2.91701828410689  Z M 26.6706730769231 13.6047819971871  C 27.3517628205128 14.6568213783404  27.6923076923077 15.7885607126113  27.6923076923077 17  C 27.6923076923077 18.2114392873887  27.3517628205128 19.3391936240038  26.6706730769231 20.3832630098453  C 25.9895833333333 21.4273323956868  25.088141025641 22.1725269573371  23.9663461538462 22.6188466947961  C 23.8060897435897 22.6985466479137  23.6057692307692 22.7383966244726  23.3653846153846 22.7383966244726  C 22.948717948718 22.7383966244726  22.588141025641 22.5909517112049  22.2836538461538 22.2960618846695  C 21.9791666666667 22.0011720581341  21.8269230769231 21.6385372714487  21.8269230769231 21.2081575246132  C 21.8269230769231 20.873417721519  21.9230769230769 20.5904828879512  22.1153846153846 20.35935302391  C 22.3076923076923 20.1282231598687  22.5400641025641 19.9289732770745  22.8125 19.7616033755274  C 23.0849358974359 19.5942334739803  23.3573717948718 19.4109235818097  23.6298076923077 19.2116736990155  C 23.9022435897436 19.0124238162213  24.1346153846154 18.7255039849977  24.3269230769231 18.3509142053446  C 24.5192307692308 17.9763244256915  24.6153846153846 17.5260196905767  24.6153846153846 17  C 24.6153846153846 16.4739803094234  24.5192307692308 16.0236755743085  24.3269230769231 15.6490857946554  C 24.1346153846154 15.2744960150023  23.9022435897436 14.9875761837787  23.6298076923077 14.7883263009845  C 23.3573717948718 14.5890764181903  23.0849358974359 14.4057665260197  22.8125 14.2383966244726  C 22.5400641025641 14.0710267229255  22.3076923076923 13.8717768401313  22.1153846153846 13.64064697609  C 21.9230769230769 13.4095171120488  21.8269230769231 13.126582278481  21.8269230769231 12.7918424753868  C 21.8269230769231 12.3614627285513  21.9791666666667 11.9988279418659  22.2836538461538 11.7039381153305  C 22.588141025641 11.4090482887951  22.948717948718 11.2616033755274  23.3653846153846 11.2616033755274  C 23.6057692307692 11.2616033755274  23.8060897435897 11.3014533520863  23.9663461538462 11.3811533052039  C 25.088141025641 11.8115330520394  25.9895833333333 12.5527426160338  26.6706730769231 13.6047819971871  Z M 31.8028846153846 10.2454289732771  C 33.1650641025641 12.3096577590248  33.8461538461538 14.5611814345992  33.8461538461538 17  C 33.8461538461538 19.4388185654008  33.1650641025641 21.6903422409751  31.8028846153846 23.7545710267229  C 30.4407051282051 25.8187998124707  28.6378205128205 27.3211439287389  26.3942307692308 28.2616033755274  C 26.1858974358974 28.3413033286451  25.9855769230769 28.3811533052039  25.7932692307692 28.3811533052039  C 25.3605769230769 28.3811533052039  24.9919871794872 28.2297233942804  24.6875 27.9268635724332  C 24.3830128205128 27.624003750586  24.2307692307692 27.2653539615565  24.2307692307692 26.8509142053446  C 24.2307692307692 26.2292545710267  24.5432692307692 25.7590248476324  25.1682692307692 25.4402250351617  C 26.0657051282051 24.9779653070792  26.6746794871795 24.6272855133615  26.9951923076923 24.3881856540084  C 28.1810897435897 23.5274261603376  29.1065705128205 22.4474917955931  29.7716346153846 21.148382559775  C 30.4366987179487 19.8492733239569  30.7692307692308 18.4664791373652  30.7692307692308 17  C 30.7692307692308 15.5335208626348  30.4366987179487 14.1507266760431  29.7716346153846 12.851617440225  C 29.1065705128205 11.5525082044069  28.1810897435897 10.4725738396624  26.9951923076923 9.61181434599156  C 26.6746794871795 9.37271448663854  26.0657051282051 9.02203469292077  25.1682692307692 8.55977496483825  C 24.5432692307692 8.24097515236755  24.2307692307692 7.77074542897328  24.2307692307692 7.14908579465541  C 24.2307692307692 6.7346460384435  24.3830128205128 6.37599624941397  24.6875 6.07313642756681  C 24.9919871794872 5.77027660571964  25.3525641025641 5.61884669479606  25.7692307692308 5.61884669479606  C 25.9775641025641 5.61884669479606  26.1858974358974 5.65869667135489  26.3942307692308 5.73839662447258  C 28.6378205128205 6.67885607126113  30.4407051282051 8.1812001875293  31.8028846153846 10.2454289732771  Z M 36.9471153846154 6.89803094233474  C 38.9823717948718 9.96647913736521  40 13.333802156587  40 17  C 40 20.666197843413  38.9823717948718 24.0335208626348  36.9471153846154 27.1019690576653  C 34.911858974359 30.1704172526957  32.2035256410256 32.4299109235818  28.8221153846154 33.8804500703235  C 28.6137820512821 33.9601500234412  28.4054487179487 34  28.1971153846154 34  C 27.7804487179487 34  27.4198717948718 33.8485700890764  27.1153846153846 33.5457102672293  C 26.8108974358974 33.2428504453821  26.6586538461538 32.8842006563526  26.6586538461538 32.4697609001406  C 26.6586538461538 31.8959212376934  26.9711538461538 31.4256915142991  27.5961538461538 31.0590717299578  C 27.7083333333333 30.9953117674637  27.8886217948718 30.9116268166901  28.1370192307692 30.8080168776371  C 28.3854166666667 30.7044069385842  28.5657051282051 30.6207219878106  28.6778846153846 30.5569620253165  C 29.4150641025641 30.1584622597281  30.0721153846154 29.7519924988279  30.6490384615385 29.337552742616  C 32.6201923076923 27.8870135958744  34.1586538461538 26.0778246601031  35.2644230769231 23.9099859353024  C 36.3701923076923 21.7421472105016  36.9230769230769 19.4388185654008  36.9230769230769 17  C 36.9230769230769 14.5611814345992  36.3701923076923 12.2578527894984  35.2644230769231 10.0900140646976  C 34.1586538461538 7.92217533989686  32.6201923076923 6.11298640412564  30.6490384615385 4.66244725738397  C 30.0721153846154 4.24800750117206  29.4150641025641 3.84153774027191  28.6778846153846 3.44303797468354  C 28.5657051282051 3.3792780121894  28.3854166666667 3.29559306141584  28.1370192307692 3.19198312236287  C 27.8886217948718 3.08837318330989  27.7083333333333 3.00468823253633  27.5961538461538 2.9409282700422  C 26.9711538461538 2.57430848570089  26.6586538461538 2.10407876230661  26.6586538461538 1.53023909985935  C 26.6586538461538 1.11579934364744  26.8108974358974 0.757149554617906  27.1153846153846 0.454289732770745  C 27.4198717948718 0.15142991092358  27.7804487179487 0  28.1971153846154 0  C 28.4054487179487 0  28.6137820512821 0.0398499765588352  28.8221153846154 0.119549929676513  C 32.2035256410256 1.57008907641819  34.911858974359 3.82958274730426  36.9471153846154 6.89803094233474  Z " fill-rule="nonzero" fill="#673ab7" stroke="none" transform="matrix(1 0 0 1 0 1 )" />
  </g>
</svg>