<?xml version="1.0" standalone="no"?><!DOCTYPE svg PUBLIC "-//W3C//DTD SVG 1.1//EN" "http://www.w3.org/Graphics/SVG/1.1/DTD/svg11.dtd"><svg t="1571988028970" class="icon" viewBox="0 0 1024 1024" version="1.1" xmlns="http://www.w3.org/2000/svg" p-id="29741" xmlns:xlink="http://www.w3.org/1999/xlink" width="200" height="200"><defs><style type="text/css"></style></defs><path d="M399.611 824.867c-2.427 0-4.895-0.563-7.202-1.756-2.987-1.533-73.246-38.362-90.713-109.746-25.969-106.137 34.557-173.002 37.147-175.797 5.933-6.405 15.937-6.788 22.342-0.854 6.396 5.926 6.787 15.897 0.89 22.307-0.311 0.346-13.258 14.816-23.275 39.986-13.362 33.586-15.515 69.535-6.385 106.842 13.988 57.166 73.874 88.842 74.478 89.153 7.737 4.022 10.78 13.551 6.771 21.297-2.679 5.127-7.959 8.569-14.044 8.569-0.003 0-0.005 0-0.010 0zM574.228 123.721h-170.895c-14.553 0-26.351-11.798-26.351-26.356s11.798-26.356 26.351-26.356h170.894c14.556 0 26.356 11.799 26.356 26.356s-11.799 26.356-26.355 26.356zM574.228 226.172h-170.895c-14.553 0-26.351-11.799-26.351-26.355 0-14.557 11.798-26.356 26.351-26.356h170.894c14.556 0 26.356 11.798 26.356 26.356 0 14.554-11.799 26.355-26.355 26.355z" fill="#d81e06" p-id="29742"></path><path d="M488.786 944.82c-44.814 0-90.209-10.091-134.188-30.085-57.826-26.297-104.067-72.879-130.191-131.177-18.428-41.111-28.246-83.407-29.185-125.719-0.891-40.016 6.132-78.966 20.868-115.776 27.789-69.393 81.859-126.159 149.504-157.497v-44.471c0-35.983 29.27-65.255 65.249-65.255h115.872c35.979 0 65.251 29.271 65.251 65.255v49.359c4.434 6.963 5.535 15.903 2.175 24.129-5.505 13.479-20.89 19.94-34.366 14.438-12.464-5.087-20.524-17.057-20.524-30.493v-57.435c0-6.797-5.741-12.544-12.539-12.544h-115.871c-6.798 0-12.545 5.747-12.545 12.544v57.427c0 13.435-8.055 25.406-20.524 30.499-60.198 24.58-108.588 73.29-132.755 133.634-25.049 62.546-22.388 133.695 7.483 200.343 20.868 46.574 57.774 83.774 103.908 104.75 129.843 59.036 246.927 6.702 305.363-71.35 8.723-11.65 25.241-14.022 36.894-5.298 11.651 8.723 14.023 25.239 5.298 36.894-39.403 52.627-95.899 90.924-159.084 107.838-24.913 6.672-50.413 9.989-76.099 9.989z" fill="#d81e06" p-id="29743"></path><path d="M828.853 779.52c0 1.457-0.273 2.727-0.819 3.82s-1.731 2.003-3.547 2.727c-1.821 0.724-4.365 1.268-7.639 1.636-3.274 0.361-7.639 0.545-13.092 0.545-4.731 0-8.592-0.185-11.593-0.546-3.001-0.366-5.413-0.954-7.229-1.773-1.821-0.819-3.231-1.952-4.228-3.408-1.002-1.453-1.866-3.273-2.591-5.455l-32.461-83.199c-3.821-9.453-7.776-18.14-11.867-26.049-4.093-7.911-8.96-14.73-14.594-20.459-5.638-5.729-12.275-10.183-19.914-13.367-7.641-3.18-16.823-4.773-27.551-4.773h-31.369v150.301c0 1.456-0.41 2.726-1.229 3.819-0.818 1.092-2.092 1.957-3.819 2.591-1.73 0.639-4.092 1.182-7.092 1.637-3.002 0.451-6.779 0.681-11.321 0.681-4.547 0-8.318-0.231-11.321-0.681-2.999-0.455-5.411-0.997-7.226-1.637-1.821-0.635-3.094-1.5-3.821-2.591-0.727-1.092-1.092-2.362-1.092-3.82v-326.787c0-7.093 1.863-12.046 5.594-14.867 3.726-2.816 7.68-4.228 11.867-4.228h75.013c8.908 0 16.319 0.231 22.23 0.683 5.907 0.455 11.228 0.956 15.956 1.502 13.639 2.366 25.683 6.094 36.143 11.183 10.455 5.092 19.231 11.551 26.322 19.367 7.092 7.822 12.412 16.775 15.956 26.868 3.547 10.092 5.319 21.234 5.319 33.414 0 11.824-1.593 22.414-4.774 31.778-3.185 9.367-7.775 17.642-13.775 24.821-6.001 7.186-13.187 13.414-21.55 18.687-8.366 5.277-17.73 9.731-28.095 13.366 5.818 2.547 11.090 5.775 15.82 9.682 4.729 3.913 9.14 8.592 13.231 14.048s7.953 11.728 11.593 18.822c3.635 7.092 7.27 15.099 10.911 24.003l31.642 77.74c2.545 6.547 4.18 11.14 4.91 13.775 0.732 2.642 1.099 4.688 1.099 6.141zM758.206 531.567c0-13.818-3.094-25.505-9.275-35.054-6.185-9.546-16.55-16.409-31.095-20.594-4.55-1.269-9.683-2.182-15.413-2.727-5.728-0.546-13.23-0.819-22.503-0.819h-39.553v118.931h45.827c12.364 0 23.052-1.5 32.051-4.5s16.501-7.182 22.503-12.547c6.001-5.362 10.407-11.683 13.23-18.959 2.817-7.27 4.229-15.182 4.229-23.729z" fill="#d81e06" p-id="29744"></path></svg>