<?xml version="1.0" encoding="utf-8"?>
<svg version="1.1" xmlns:xlink="http://www.w3.org/1999/xlink" width="6px" height="11px" xmlns="http://www.w3.org/2000/svg">
  <g transform="matrix(1 0 0 1 -8 -81 )">
    <path d="M 4.5857678125 10.45274921875  C 4.500580375 10.45274921875  4.41379609375 10.4328235625  4.33291315625 10.391132375  C 4.22807775 10.337326125  1.76277953125 9.0450735625  1.149909 6.54002815625  C 0.238535281250002 2.81583725  2.362458875 0.469537625000001  2.4532699375 0.371471406250002  C 2.66148278125 0.146700125000002  3.0125425 0.133231218750002  3.2373485 0.341444062500003  C 3.46173790625 0.549448625000004  3.47538040625 0.899397531250003  3.268556125 1.12416878125  C 3.2576213125 1.1364574375  2.8032535625 1.644076  2.4519508125 2.52736634375  C 1.98289915625 3.70579265625  1.90746628125 4.96728884375  2.2277696875 6.276308125  C 2.71862153125 8.28223984375  4.820085375 9.39384225  4.84115659375 9.4047770625  C 5.11268721875 9.545923  5.21932775 9.88021603125  5.07880665625 10.1519549375  C 4.98032384375 10.34298446875  4.7867601875 10.45274921875  4.5857678125 10.45274921875  Z " fill-rule="nonzero" fill="#00ff00" stroke="none" transform="matrix(1 0 0 1 8 81 )" />
  </g>
</svg>