<?xml version="1.0" encoding="utf-8"?>
<svg version="1.1" xmlns:xlink="http://www.w3.org/1999/xlink" width="20px" height="24px" xmlns="http://www.w3.org/2000/svg">
  <g transform="matrix(1 0 0 1 -5 -72 )">
    <path d="M 10.71479215625 23.6617170625  C 9.14236525 23.6617170625  7.5492836875 23.307741375  6.00612046875 22.606107875  C 3.9771735625 21.6834521875  2.3544465 20.04885303125  1.437831 18.00313940625  C 0.791218718750001 16.56054178125  0.446754593750001 15.0764265625  0.413811281250002 13.59175590625  C 0.382430093750002 12.18755165625  0.628793281250002 10.82087290625  1.1460275625 9.52917578125  C 2.12113565625 7.09414790625  4.018482875 5.10224053125  6.391928625 4.00275321875  L 6.391928625 2.44219840625  C 6.391928625 1.17955665625  7.4190725625 0.152378000000002  8.68154075 0.152378000000002  L 12.747627 0.152377999999999  C 14.0100951875 0.152377999999999  15.037239125 1.1795219375  15.037239125 2.44219840625  L 15.037239125 4.174065375  C 15.19279125 4.41855403125  15.231427625 4.73219240625  15.11343571875 5.0209063125  C 14.9202539375 5.49384590625  14.38049046875 5.720561125  13.9077244375 5.52755290625  C 13.47029696875 5.34898559375  13.1874496875 4.92888028125  13.1874496875 4.45753753125  L 13.1874496875 2.44219840625  C 13.1874496875 2.20361109375  12.98607546875 2.0020285625  12.747627 2.0020285625  L 8.68154078125 2.00202859375  C 8.4430923125 2.00202859375  8.24133621875 2.20361109375  8.24133621875 2.4421984375  L 8.24133621875 4.45732928125  C 8.24133621875 4.92867203125  7.95887075 5.34877734375  7.52123503125 5.52734465625  C 5.40897521875 6.3900150625  3.71105828125 8.0992486875  2.86307178125 10.21671553125  C 1.9840859375 12.4113856875  2.0774658125 14.908030375  3.12547271875 17.2467276875  C 3.85782784375 18.88097971875  5.15289221875 20.186284625  6.77166190625 20.92221525  C 11.327871 22.99389471875  15.43627321875 21.15750478125  17.48688146875 18.418558375  C 17.79295225 18.00976971875  18.372497625 17.9266998125  18.78132096875 18.23277059375  C 19.190109625 18.538841375  19.27352665625 19.11838675  18.9672823125 19.52721009375  C 17.58473940625 21.37391  15.60217003125 22.7178165625  13.38510953125 23.31121271875  C 12.510983625 23.54535671875  11.61616834375 23.6617170625  10.71479215625 23.6617170625  Z " fill-rule="nonzero" fill="#00ff00" stroke="none" transform="matrix(1 0 0 1 5 72 )" />
  </g>
</svg>