<?xml version="1.0" encoding="utf-8"?>
<svg version="1.1" xmlns:xlink="http://www.w3.org/1999/xlink" width="10px" height="13px" xmlns="http://www.w3.org/2000/svg">
  <g transform="matrix(1 0 0 1 -17 -77 )">
    <path d="M 9.68887171875 2.01416753124999  C 9.71848265625 2.11501084375  9.73330540625 2.26025303125  9.73330540625 2.44992871875  C 9.73330540625 2.562644125  9.72733465625 2.66202946875  9.715532 2.74784178125  C 9.70359046875 2.83386234375  9.6858170625 2.90502546875  9.66217703125 2.961296375  C 9.63843284375 3.01770615625  9.6088220625 3.05776578125  9.57327521875 3.08137109375  C 9.53769365625 3.1051846875  9.4990573125 3.11695265625  9.457609125 3.11695265625  C 9.38644603125 3.11695265625  9.2677945625 3.06068171875  9.1018283125 2.94800103125  C 8.9357579375 2.8354591875  8.71345134375 2.71094109375  8.43476965625 2.5744468125  C 8.1560185625 2.4381260625  7.82248925 2.31364271875  7.43421640625 2.2009273125  C 7.0458394375 2.08835075  6.5848760625 2.03194096875  6.05122221875 2.03194096875  C 5.4166903125 2.03194096875  4.84752434375 2.14757234375  4.34358540625 2.37880034375  C 3.83961178125 2.610028375  3.41266784375 2.930227625  3.0628578125 3.33936340625  C 2.712943625 3.74846446875  2.44478021875 4.23469940625  2.25795103125 4.7979640625  C 2.07119128125 5.36133284375  1.97781140625 5.971947  1.97781140625 6.63008421875  C 1.97781140625 7.36539  2.080078 8.01752175  2.28468059375 8.58675715625  C 2.48921378125 9.155923125  2.77226934375 9.63622203125  3.1340209375 10.027584375  C 3.495668375 10.4188773125  3.92698621875 10.71547125  4.4281133125 10.916949625  C 4.92903215625 11.1186015625  5.4790014375 11.21934075  6.0779170625 11.21934075  C 6.43362843749999 11.21934075  6.79385259375 11.17639990625  7.158520125 11.09034459375  C 7.52315293749999 11.004462875  7.86254887499999 10.87553615625  8.1768815 10.7034603125  L 8.1768815 7.35046309374999  L 5.50871634375 7.35046309374999  C 5.40783831249999 7.35046309374999  5.33223184374999 7.30016293749999  5.28193168749999 7.19928487499999  C 5.23145796875 7.09851096874999  5.20632521875 6.94136199999999  5.20632521875 6.72790740624999  C 5.20632521875 6.61533084374999  5.21219184375 6.51889615624999  5.224098625 6.43884634374999  C 5.235936 6.35883124999999  5.25520209375 6.29363890624999  5.28193165624999 6.24316515624999  C 5.30859178124999 6.19286499999999  5.33976468749999 6.15579074999999  5.37534625 6.13201184374999  C 5.4109278125 6.10837181249999  5.45536134375 6.09643028124999  5.50875103125 6.09643028124999  L 9.1641740625 6.09643028124999  C 9.22936640624999 6.09643028124999  9.29448931249999 6.10837181249999  9.35985525 6.13201184374999  C 9.425012875 6.15575603124999  9.4843733125 6.19133756249999  9.5377283125 6.23875649999999  C 9.5910485625 6.28624484374999  9.63249675 6.35143718749999  9.6622116875 6.43436825  C 9.69182246875 6.51750759374999  9.70671465625 6.6122413125  9.70671465625 6.71898596874999  L 9.70671465625 11.103674625  C 9.70671465625 11.25794234375  9.6800198125 11.391347125  9.62663012499999 11.50395840625  C 9.573309875 11.61663909375  9.46055974999999 11.71602446875  9.28869215624999 11.8019061875  C 9.11661631249999 11.88789203125  8.89427499999999 11.981306625  8.62163349999999 12.0820458125  C 8.34885315624999 12.18292384375  8.06711671874999 12.2688055625  7.77670181249999 12.3399686875  C 7.48611334375 12.41113178125  7.19264365625 12.46448675  6.89618856249999 12.5000683125  C 6.59966406249999 12.535649875  6.30612493749999 12.55342328125  6.01567531249999 12.55342328125  C 5.12631006249999 12.55342328125  4.3316785625 12.41557515625  3.63212787499999 12.13984415625  C 2.932403625 11.864147875  2.34098615624999 11.4714316875  1.85780603125 10.9614525625  C 1.37445234375 10.451542875  1.0053761875 9.84078987499999  0.750508124999996 9.12929768749999  C 0.495501218749997 8.41777078124999  0.368067187499996 7.62327812499999  0.368067187499996 6.74575024999999  C 0.368067187499996 5.83271024999999  0.505915312499997 5.00558671874999  0.781611593749997 4.26434487499999  C 1.05734259375 3.52324187499999  1.4456154375 2.89176481249999  1.94674253125 2.36994831249999  C 2.44773078124999 1.84827068749999  3.049562375 1.44357824999999  3.7522025625 1.15590574999999  C 4.45480803125 0.868372093749992  5.23305468749999 0.724553187499991  6.086838375 0.724553187499991  C 6.5255849375 0.724553187499991  6.93756725 0.76318953124999  7.32309771875 0.84018456249999  C 7.70841990625 0.91731843749999  8.05087062499999 1.00778234374999  8.35031109374999 1.11143749999999  C 8.64964740624999 1.21526621874999  8.90173837499999 1.32794690624999  9.10630625 1.44941018749999  C 9.3108394375 1.57101231249999  9.45163821875 1.67036293749999  9.52877209375 1.74735796874999  C 9.605732375 1.82445712499999  9.65908734375 1.91342834374999  9.68887171875 2.01416753124999  Z " fill-rule="nonzero" fill="#00ff00" stroke="none" transform="matrix(1 0 0 1 17 77 )" />
  </g>
</svg>