<?xml version="1.0" encoding="utf-8"?>
<svg version="1.1" xmlns:xlink="http://www.w3.org/1999/xlink" width="32px" height="36px" xmlns="http://www.w3.org/2000/svg">
  <g transform="matrix(1 0 0 1 -4 -2 )">
    <path d="M 9.38375 35.13375  C 9.1489927249613 35.3683656784637  8.83064679502353 35.5001105336498  8.49875 35.5  C 8.2675 35.5  8.03375 35.435  7.8275 35.305  C 7.3325 34.99  7.12375 34.37375  7.32375 33.8225  L 11.715 21.75  L 2.25 21.75  C 1.745 21.75  1.28875 21.44625  1.095 20.97875  C 0.901249999999999 20.51125  1.00875 19.97375  1.36625 19.61625  L 20.11625 0.866249999999999  C 20.605 0.377499999999999  21.395 0.377499999999999  21.88375 0.866249999999999  C 22.3725 1.355  22.3725 2.145  21.88375 2.63375  L 5.2675 19.25  L 13.5 19.25  C 13.907974364551 19.2499074512597  14.290242393732 19.4492095861318  14.52375 19.78375  C 14.75875 20.1175  14.81375 20.54375  14.675 20.9275  L 11.6 29.3825  L 26.7325 14.25  L 18.5 14.25  C 17.80875 14.25  17.25 13.69  17.25 13  C 17.25 12.31  17.80875 11.75  18.5 12  L 29.75 12  C 30.255 11.75  30.7125 12.055  30.905 12.52125  C 31.0985553715089 12.988468775731  30.9914857975565 13.5262836863673  30.63375 13.88375  L 9.38375 35.13375  Z " fill-rule="nonzero" fill="#673ab7" stroke="none" transform="matrix(1 0 0 1 4 2 )" />
  </g>
</svg>