<?xml version="1.0" standalone="no"?><!DOCTYPE svg PUBLIC "-//W3C//DTD SVG 1.1//EN" "http://www.w3.org/Graphics/SVG/1.1/DTD/svg11.dtd"><svg t="1571989493203" class="icon" viewBox="0 0 1024 1024" version="1.1" xmlns="http://www.w3.org/2000/svg" p-id="31521" xmlns:xlink="http://www.w3.org/1999/xlink" width="200" height="200"><defs><style type="text/css"></style></defs><path d="M150.016 873.984c-79.872-79.872-79.872-209.408 0-289.792l434.688-434.688c79.872-79.872 209.408-79.872 289.792 0 79.872 79.872 79.872 209.408 0 289.792l-434.688 434.688c-80.384 79.872-209.92 79.872-289.792 0z" fill="#F98463" p-id="31522"></path><path d="M493.9008 240.46592l289.62304 289.62816-253.42464 253.42464-289.62304-289.62816z" fill="#F8AC86" p-id="31523"></path><path d="M591.90272 497.52576l-65.16736-65.16736 43.4432-43.4432 65.16736 65.16736zM620.34944 526.37184l43.44832-43.4432 65.16224 65.16736-43.4432 43.4432zM497.408 403.14368L432.25088 337.9712l43.4432-43.4432 65.16736 65.16224zM453.82144 635.10016l-65.16736-65.16736 43.4432-43.4432 65.16736 65.16736zM482.77504 664.1664l43.44832-43.44832 65.16224 65.16736-43.4432 43.4432zM360.04864 540.71808L294.8864 475.5456l43.4432-43.4432 65.16736 65.16224zM475.79648 519.30112L410.624 454.13376l43.4432-43.4432 65.16736 65.16736zM504.8064 548.20352l43.4432-43.4432 65.16736 65.16736-43.4432 43.4432z" fill="#FB9F7F" p-id="31524"></path></svg>