<?xml version="1.0" encoding="utf-8"?>
<svg version="1.1" xmlns:xlink="http://www.w3.org/1999/xlink" width="64px" height="80px" xmlns="http://www.w3.org/2000/svg">
  <defs>
    <filter x="283px" y="112px" width="64px" height="80px" filterUnits="userSpaceOnUse" id="filter228">
      <feOffset dx="0" dy="0" in="SourceAlpha" result="shadowOffsetInner" />
      <feGaussianBlur stdDeviation="5" in="shadowOffsetInner" result="shadowGaussian" />
      <feComposite in2="shadowGaussian" operator="atop" in="SourceAlpha" result="shadowComposite" />
      <feColorMatrix type="matrix" values="0 0 0 0 0  0 0 0 0 0  0 0 0 0 0  0 0 0 0.313725490196078 0  " in="shadowComposite" />
    </filter>
    <g id="widget229">
      <path d="M 42.40234375 19.96875  C 42.4140625 19.740234375  42.23828125 19.541015625  42.00390625 20  L 3.70703125 20  C 3.478515625 19.541015625  3.296875 19.740234375  3.3203125 19.96875  L 6.841796875 56.8828125  C 6.841796875 58.599609375  8.236328125 59.994140625  9.953125 60  L 35.76953125 60  C 37.486328125 59.994140625  38.880859375 58.599609375  38.880859375 56.8828125  L 42.40234375 19.96875  Z M 16.1640625 50.818359375  C 16.1640625 51.580078125  15.54296875 52.201171875  14.78125 52.201171875  L 13.638671875 52.201171875  C 12.876953125 52.201171875  12.255859375 51.580078125  12.255859375 50.818359375  L 10.83203125 28.787109375  C 10.83203125 28.025390625  11.453125 27.404296875  12.21484375 27.404296875  L 13.357421875 27.404296875  C 14.119140625 27.404296875  14.740234375 28.025390625  14.740234375 28.787109375  L 16.1640625 50.818359375  Z M 24 28.787109375  L 24 50.818359375  C 24.818359375 51.580078125  24.197265625 52.201171875  23.435546875 52.201171875  L 22.29296875 52.201171875  C 21.53125 52.201171875  20.91015625 51.580078125  21 50.818359375  L 21 28.787109375  C 20.91015625 28.025390625  21.53125 27.404296875  22.29296875 27.404296875  L 23.435546875 27.404296875  C 24.197265625 27.404296875  24.818359375 28.025390625  24 28.787109375  Z M 34.931640625 28.787109375  L 33.5078125 50.818359375  C 33.5078125 51.580078125  32.88671875 52.201171875  32.125 52.201171875  L 30.982421875 52.201171875  C 30.220703125 52.201171875  29.599609375 51.580078125  29.599609375 50.818359375  L 31.0234375 28.787109375  C 31.0234375 28.025390625  31.64453125 27.404296875  32.40625 27.404296875  L 33.548828125 27.404296875  C 34.310546875 27.404296875  34.931640625 28.025390625  34.931640625 28.787109375  Z M 43.2578125 8.455078125  C 43.310546875 8.689453125  43.169921875 8.923828125  42.935546875 8.9765625  L 1.626953125 18.46875  C 1.392578125 18.521484375  1.1640625 18.375  1.111328125 18.146484375  L 0.595703124999996 15.890625  C 0.197265624999995 14.162109375  1.287109375 12.421875  3.015625 12.0234375  L 38.875 3.779296875  C 40.603515625 3.380859375  42.34375 4.470703125  42.7421875 6.19921875  L 43.2578125 8.455078125  Z M 14.86328125 8.396484375  L 14.646484375 7.458984375  C 14.265625 5.82421875  15.291015625 4.171875  16.931640625 3.791015625  L 22.685546875 2.455078125  C 24.3203125 2.07421875  25.97265625 3.099609375  26.353515625 4.740234375  L 26.576171875 5.689453125  L 29.171875 5.0859375  L 28.990234375 4.306640625  C 28.3046875 1.353515625  25.328125 -0.498046875  22.380859375 0.1875  L 16.234375 1.6171875  C 13.28125 2.302734375  11.4296875 5.279296875  12.115234375 8.2265625  L 12.291015625 8.994140625  L 14.86328125 8.396484375  Z " fill-rule="nonzero" fill="#aeea00" stroke="none" transform="matrix(1 0 0 1 293 122 )" />
    </g>
  </defs>
  <g transform="matrix(1 0 0 1 -283 -112 )">
    <use xlink:href="#widget229" filter="url(#filter228)" />
    <use xlink:href="#widget229" />
  </g>
</svg>