<?xml version="1.0" encoding="utf-8"?>
<svg version="1.1" xmlns:xlink="http://www.w3.org/1999/xlink" width="90px" height="90px" xmlns="http://www.w3.org/2000/svg">
  <defs>
    <filter x="270px" y="107px" width="90px" height="90px" filterUnits="userSpaceOnUse" id="filter362">
      <feOffset dx="0" dy="0" in="SourceAlpha" result="shadowOffsetInner" />
      <feGaussianBlur stdDeviation="5" in="shadowOffsetInner" result="shadowGaussian" />
      <feComposite in2="shadowGaussian" operator="atop" in="SourceAlpha" result="shadowComposite" />
      <feColorMatrix type="matrix" values="0 0 0 0 0  0 0 0 0 0  0 0 0 0 0  0 0 0 0.349019607843137 0  " in="shadowComposite" />
    </filter>
    <g id="widget363">
      <path d="M 315 117  C 334.6 117  350 132.4  350 152  C 350 171.6  334.6 187  315 187  C 295.4 187  280 171.6  280 152  C 280 132.4  295.4 117  315 117  Z " fill-rule="nonzero" fill="#c1b7d2" stroke="none" />
      <path d="M 315 117.5  C 334.32 117.5  349.5 132.68  349.5 152  C 349.5 171.32  334.32 186.5  315 186.5  C 295.68 186.5  280.5 171.32  280.5 152  C 280.5 132.68  295.68 117.5  315 117.5  Z " stroke-width="1" stroke="#797979" fill="none" />
    </g>
  </defs>
  <g transform="matrix(1 0 0 1 -270 -107 )">
    <use xlink:href="#widget363" filter="url(#filter362)" />
    <use xlink:href="#widget363" />
  </g>
</svg>