<?xml version="1.0" encoding="utf-8"?>
<svg version="1.1" xmlns:xlink="http://www.w3.org/1999/xlink" width="70px" height="70px" xmlns="http://www.w3.org/2000/svg">
  <defs>
    <filter x="268px" y="0px" width="70px" height="70px" filterUnits="userSpaceOnUse" id="filter222">
      <feOffset dx="0" dy="0" in="SourceAlpha" result="shadowOffsetInner" />
      <feGaussianBlur stdDeviation="2.5" in="shadowOffsetInner" result="shadowGaussian" />
      <feComposite in2="shadowGaussian" operator="atop" in="SourceAlpha" result="shadowComposite" />
      <feColorMatrix type="matrix" values="0 0 0 0 0  0 0 0 0 0  0 0 0 0 0  0 0 0 0.313725490196078 0  " in="shadowComposite" />
    </filter>
    <g id="widget223">
      <path d="M 58.5858585858586 44.8484848484848  C 59.5286195286195 45.7912457912458  60 46.9360269360269  60 48.2828282828283  C 60 49.6296296296296  59.5286195286195 50.7744107744108  58.5858585858586 51.7171717171717  L 51.7171717171717 58.5858585858586  C 50.7744107744108 59.5286195286195  49.6296296296296 60  48.2828282828283 60  C 46.9360269360269 60  45.7912457912458 59.5286195286195  44.8484848484849 58.5858585858586  L 30 43.7373737373737  L 15.1515151515152 58.5858585858586  C 14.2087542087542 59.5286195286195  13.0639730639731 60  11.7171717171717 60  C 10.3703703703704 60  9.22558922558923 59.5286195286195  8.28282828282828 58.5858585858586  L 1.41414141414141 51.7171717171717  C 0.471380471380472 50.7744107744108  0 49.6296296296296  0 48.2828282828283  C 0 46.9360269360269  0.471380471380472 45.7912457912458  1.41414141414141 44.8484848484848  L 16.2626262626263 30  L 1.41414141414141 15.1515151515151  C 0.471380471380472 14.2087542087542  0 13.0639730639731  0 11.7171717171717  C 0 10.3703703703704  0.471380471380472 9.22558922558922  1.41414141414141 8.28282828282829  L 8.28282828282828 1.41414141414141  C 9.22558922558923 0.471380471380469  10.3703703703704 0  11.7171717171717 0  C 13.0639730639731 0  14.2087542087542 0.471380471380469  15.1515151515152 1.41414141414141  L 30 16.2626262626263  L 44.8484848484849 1.41414141414141  C 45.7912457912458 0.471380471380469  46.9360269360269 0  48.2828282828283 0  C 49.6296296296296 0  50.7744107744108 0.471380471380469  51.7171717171717 1.41414141414141  L 58.5858585858586 8.28282828282829  C 59.5286195286195 9.22558922558922  60 10.3703703703704  60 11.7171717171717  C 60 13.0639730639731  59.5286195286195 14.2087542087542  58.5858585858586 15.1515151515151  L 43.7373737373737 30  L 58.5858585858586 44.8484848484848  Z " fill-rule="nonzero" fill="#d9001b" stroke="none" transform="matrix(1 0 0 1 273 5 )" />
    </g>
  </defs>
  <g transform="matrix(1 0 0 1 -268 0 )">
    <use xlink:href="#widget223" filter="url(#filter222)" />
    <use xlink:href="#widget223" />
  </g>
</svg>