<?xml version="1.0" encoding="utf-8"?>
<svg version="1.1" xmlns:xlink="http://www.w3.org/1999/xlink" width="188px" height="188px" xmlns="http://www.w3.org/2000/svg">
  <g transform="matrix(1 0 0 1 -106 -55 )">
    <path d="M 12.75 94  C 12.75 138.8734375  49.1265625 175.25  94 175.25  C 138.8734375 175.25  175.25 138.8734375  175.25 94  C 175.25 49.1265625  138.8734375 12.75  94 12.75  C 49.1265625 12.75  12.75 49.1265625  12.75 94  Z M 187.75 94  C 187.75 145.7765625  145.7765625 187.75  94 187.75  C 42.2234375 187.75  0.25 145.7765625  0.25 94  C 0.25 42.2234375  42.2234375 0.25  94 0.25  C 145.7765625 0.25  187.75 42.2234375  187.75 94  Z M 126.07734375 82  L 93.7546875 48.9328125  L 61.4328125 82  L 75.0046875 82  C 78.4564671864425 81.2546875  81.2546875 84.0529078135575  82 87.5046875  L 82 106  L 106 106  L 106 87.5046875  C 106.2546875 84.0529078135575  109.052907813558 81.2546875  112.5046875 82  L 126.07734375 82  Z M 98.17421875 35.675  L 145.58515625 83.08515625  C 146.757328289058 84.2572678741233  147.415852762611 85.8470286486972  147.415852762611 87.5046875245079  C 147.415852762611 90.9562510626617  144.617969774619 93.7543818364976  141.16640625 94  L 118 94  L 118 112.5046875  C 118.7546875 115.956467186442  115.956467186442 118.7546875  112.5046875 118  L 75.0046875 118  C 71.5529078135576 118.7546875  68.7546875 115.956467186442  69 112.5046875  L 69 94  L 46.34375 94  C 46.3436740859688 93.7546875027662  46.3435981717796 93.7546875041493  46.3435222577484 93.7546875041493  C 42.891742571306 93.7546875041493  40.0935222577484 90.9564671905918  40.0935222577484 87.5046875041493  C 40.0935222577484 85.8470286383158  40.752046723397 84.2572678724685  41.92421875 83.08515625  L 89.33515625 35.67421875  C 90.5072678721313 34.5020467259354  92.0970286361999 33.8435222618979  93.7546875 33.8435222618979  C 95.4123463638001 33.8435222618979  97.0021071278687 34.5020467259354  98.17421875 35.67421875  Z M 69 144  L 69 131  L 119 131  L 119 144  L 69 144  Z " fill-rule="nonzero" fill="#673ab7" stroke="none" transform="matrix(1 0 0 1 106 55 )" />
  </g>
</svg>