<?xml version="1.0" encoding="utf-8"?>
<svg version="1.1" xmlns:xlink="http://www.w3.org/1999/xlink" width="200px" height="200px" xmlns="http://www.w3.org/2000/svg">
  <g transform="matrix(1 0 0 1 -100 -50 )">
    <path d="M 200 100  C 200 45  155 0  100 0  C 45 0  0 45  0 100  C 0 155  45 200  100 200  C 155 200  200 155  200 100  Z M 187 100  C 187 148  148 187  100 187  C 88 187  76.669230859375 184.669230859375  66.330769140625 180.330769140625  L 54.669230859375 173.669230859375  C 45.0139580073331 167.676889815062  36.7226911668639 159.726288170951  30.330769140625 150.330769140625  L 23 139.330769140625  C 16.330769140625 127.669230664062  13 114.330769140625  13 100  C 13 52  52 13  100 13  C 148 13  187 52  187 100  Z " fill-rule="nonzero" fill="#673ab7" stroke="none" transform="matrix(1 0 0 1 100 50 )" />
  </g>
</svg>