<?xml version="1.0" encoding="utf-8"?>
<svg version="1.1" xmlns:xlink="http://www.w3.org/1999/xlink" width="176px" height="110px" xmlns="http://www.w3.org/2000/svg">
  <g transform="matrix(1 0 0 1 -112 -123 )">
    <path d="M 175.440415429687 55.0171265625  C 175.440615234375 24.7472494140625  150.900453515625 0.21408281250001  120.634174023437 0.21408281250001  C 109.16415078125 0.21408281250001  98.51816875 3.7408916015625  89.7167361328125 9.76580683593751  C 81.930415234375 10.3218298828125  73.75216015625 10.683384765625  65.637062109375 10.683384765625  C 32.5610876953125 10.683384765625  0.559384765624992 3.8334291015625  1 3.8334291015625  L 1 31.23505078125  C 0.559384765624992 31.23505078125  32.5610876953125 38.084806640625  65.637062109375 38.084806640625  C 66.5930140625 38.084806640625  67.549765234375 38.079010546875  68.50671640625 38.0692171875  C 66.7724921875 43.4063986328125  65.8313302734375 49.1013375  65.8313302734375 55.0171265625  C 65.8313302734375 56.2331021484375  65.8751005859375 57.4390845703125  65.95324765625 58.6354732421875  C 65.847719140625 58.6354732421875  65.7419908203125 58.63627265625  65.636862109375 58.63627265625  C 32.5608876953125 58.63627265625  0.559184765624998 51.786516796875  1 51.786516796875  L 1 79.1881384765625  C 0.559184765624998 79.1881384765625  32.5608876953125 86.0378943359375  65.636862109375 86.0378943359375  C 68.87186875 86.0378943359375  72.11686875 85.97993359375  75.34328125 85.875804296875  C 85.2111908203125 100.330404101562  101.815133398437 109.821569140625  120.63397421875 109.821569140625  C 150.900253710937 109.821569140625  175.440415429687 85.281407421875  175.440415429687 55.0171265625  Z M 168.590659570312 55.0167265625  C 168.590659570313 81.49757265625  147.122015234375 102.969814453125  120.634174023437 102.969814453125  C 94.1465326171875 102.969814453125  72.6810861328125 81.4973728515625  72.6810861328125 55.0167265625  C 72.6810861328125 28.5304841796875  94.1463326171875 7.063638671875  120.634174023437 7.063638671875  C 147.122015234375 7.063638671875  168.590659570312 28.5304841796875  168.590659570312 55.0167265625  Z " fill-rule="nonzero" fill="#673ab7" stroke="none" transform="matrix(1 0 0 1 112 123 )" />
  </g>
</svg>