<?xml version="1.0" encoding="utf-8"?>
<svg version="1.1" xmlns:xlink="http://www.w3.org/1999/xlink" width="410px" height="410px" xmlns="http://www.w3.org/2000/svg">
  <defs>
    <filter x="-5px" y="-5px" width="410px" height="410px" filterUnits="userSpaceOnUse" id="filter274">
      <feOffset dx="0" dy="0" in="SourceAlpha" result="shadowOffsetInner" />
      <feGaussianBlur stdDeviation="2.5" in="shadowOffsetInner" result="shadowGaussian" />
      <feComposite in2="shadowGaussian" operator="atop" in="SourceAlpha" result="shadowComposite" />
      <feColorMatrix type="matrix" values="0 0 0 0 0  0 0 0 0 0  0 0 0 0 0  0 0 0 0.349019607843137 0  " in="shadowComposite" />
    </filter>
    <g id="widget275">
      <path d="M 0.5 5  A 4.5 4.5 0 0 1 5 0.5 L 395 0.5  A 4.5 4.5 0 0 1 399.5 5 L 399.5 395  A 4.5 4.5 0 0 1 395 399.5 L 5 399.5  A 4.5 4.5 0 0 1 0.5 395 L 0.5 5  Z " fill-rule="nonzero" fill="#169bd5" stroke="none" fill-opacity="0" />
      <path d="M 0.5 5  A 4.5 4.5 0 0 1 5 0.5 L 395 0.5  A 4.5 4.5 0 0 1 399.5 5 L 399.5 395  A 4.5 4.5 0 0 1 395 399.5 L 5 399.5  A 4.5 4.5 0 0 1 0.5 395 L 0.5 5  Z " stroke-width="1" stroke="#673ab7" fill="none" />
    </g>
  </defs>
  <g transform="matrix(1 0 0 1 5 5 )">
    <use xlink:href="#widget275" filter="url(#filter274)" />
    <use xlink:href="#widget275" />
  </g>
</svg>