<?xml version="1.0" encoding="utf-8"?>
<svg version="1.1" xmlns:xlink="http://www.w3.org/1999/xlink" width="60px" height="49px" xmlns="http://www.w3.org/2000/svg">
  <g transform="matrix(1 0 0 1 -1789 -39 )">
    <path d="M 24.4132653061225 44.808203125  C 24.3877551020408 44.9485677083333  24.4132653061225 45.1208333333333  24.4897959183673 45.325  C 24.4897959183673 45.4270833333333  24.5025510204082 45.6822916666667  24.5280612244898 46.090625  C 24.5535714285714 46.4989583333333  24.5599489795918 46.837109375  24.547193877551 47.105078125  C 24.5344387755102 47.373046875  24.4961734693878 47.6729166666667  24.4323979591837 48.0046875  C 24.3686224489796 48.3364583333333  24.2410714285714 48.5852864583333  24.0497448979592 48.751171875  C 23.8584183673469 48.9170572916667  23.5969387755102 49  23.265306122449 49  L 11.0204081632653 49  C 7.98469387755102 49  5.3890306122449 47.9217447916667  3.23341836734694 45.765234375  C 1.07780612244898 43.6087239583333  0 41.0119791666667  0 37.975  L 0 11.025  C 0 7.98802083333333  1.07780612244898 5.39127604166667  3.23341836734694 3.234765625  C 5.3890306122449 1.07825520833333  7.98469387755102 0  11.0204081632653 0  L 23.265306122449 0  C 23.5969387755102 0  23.8839285714286 0.121223958333326  24.1262755102041 0.363671875000001  C 24.3686224489796 0.606119791666665  24.4897959183673 0.893229166666665  24.4897959183673 1.225  C 24.4897959183673 1.32708333333333  24.5025510204082 1.58229166666666  24.5280612244898 1.990625  C 24.5535714285714 2.39895833333333  24.5599489795918 2.737109375  24.547193877551 3.005078125  C 24.5344387755102 3.273046875  24.4961734693878 3.57291666666666  24.4323979591837 3.9046875  C 24.3686224489796 4.23645833333333  24.2410714285714 4.48528645833333  24.0497448979592 4.651171875  C 23.8584183673469 4.81705729166667  23.5969387755102 4.9  23.265306122449 5  L 11.0204081632653 5  C 9.33673469387755 4.9  7.89540816326531 5.49973958333333  6.69642857142857 6.69921875  C 5.49744897959184 7.89869791666666  4.89795918367347 9.340625  5 11.025  L 5 37.975  C 4.89795918367347 39.659375  5.49744897959184 41.1013020833333  6.69642857142857 42.30078125  C 7.89540816326531 43.5002604166667  9.33673469387755 44.1  11.0204081632653 44  L 22.0408163265306 44  L 22.4617346938775 44.1  L 22.9591836734694 44.1  C 22.9591836734694 44.1  23.1058673469388 44.1127604166667  23.3992346938775 44.13828125  C 23.6926020408163 44.1638020833333  23.8392857142857 44.2020833333333  23.8392857142857 44.253125  C 23.8392857142857 44.3041666666667  23.9413265306122 44.3743489583333  24.1454081632653 44.463671875  C 24.3494897959184 44.5529947916667  24.4387755102041 44.6678385416667  24.4132653061225 44.808203125  Z M 59.2729591836735 22.77734375  C 59.7576530612245 23.2622395833333  60 23.8364583333333  60 24.5  C 60 25.1635416666667  59.7576530612245 25.7377604166667  59.2729591836735 26.22265625  L 38.4566326530612 47.04765625  C 37.9719387755102 47.5325520833333  37.3979591836735 47.775  36.734693877551 47.775  C 36.0714285714286 47.775  35.4974489795918 47.5325520833333  35.0127551020408 47.04765625  C 34.5280612244898 46.5627604166667  34.2857142857143 45.9885416666667  34 45.325  L 34 34  L 17.1428571428571 34  C 16.4795918367347 34.3  15.905612244898 34.0575520833333  15.4209183673469 33.57265625  C 14.9362244897959 33.0877604166667  14.6938775510204 32.5135416666667  15 31.85  L 15 17.15  C 14.6938775510204 16.4864583333333  14.9362244897959 15.9122395833333  15.4209183673469 15.42734375  C 15.905612244898 14.9424479166667  16.4795918367347 14.7  17.1428571428571 15  L 34 15  L 34 3.675  C 34.2857142857143 3.01145833333333  34.5280612244898 2.43723958333333  35.0127551020408 1.95234375  C 35.4974489795918 1.46744791666666  36.0714285714286 1.225  36.734693877551 1.225  C 37.3979591836735 1.225  37.9719387755102 1.46744791666666  38.4566326530612 1.95234375  L 59.2729591836735 22.77734375  Z " fill-rule="nonzero" fill="#41b6fb" stroke="none" transform="matrix(1 0 0 1 1789 39 )" />
  </g>
</svg>