<?xml version="1.0" encoding="utf-8"?>
<svg version="1.1" xmlns:xlink="http://www.w3.org/1999/xlink" width="100px" height="119px" xmlns="http://www.w3.org/2000/svg">
  <g transform="matrix(1 0 0 1 -116 -40 )">
    <path d="M 99.3359375 86.0348307291667  C 99.7786458333333 89.9343532986111  100 94.0792100694444  100 98.4694010416667  C 100 104.099175347222  98.3723958333333 108.928385416667  95.1171875 112.95703125  C 91.8619791666667 116.985677083333  87.9427083333333 119  83.359375 119  L 16.640625 119  C 12.0572916666667 119  8.13802083333333 116.985677083333  4.8828125 112.95703125  C 1.62760416666667 108.928385416667  0 104.099175347222  0 98.4694010416667  C 0 94.0792100694444  0.221354166666667 89.9343532986111  0.664062500000001 86.0348307291667  C 1.10677083333333 82.1353081597222  1.92708333333333 78.2099609375  3.125 74.2587890625  C 4.32291666666667 70.3076171875  5.84635416666667 66.9245876736111  7.6953125 64.1097005208333  C 9.54427083333334 61.2948133680555  11.9921875 58.9964192708333  15.0390625 57.2145182291667  C 18.0859375 55.4326171875  21.5885416666667 54.5416666666667  25.546875 54.5416666666667  C 32.3697916666667 61.1527777777778  40.5208333333333 64.4583333333333  50 64.4583333333333  C 59.4791666666667 64.4583333333333  67.6302083333333 61.1527777777778  74.453125 54.5416666666667  C 78.4114583333333 54.5416666666667  81.9140625 55.4326171875  84.9609375 57.2145182291667  C 88.0078125 58.9964192708333  90.4557291666667 61.2948133680555  92.3046875 64.1097005208333  C 94.1536458333333 66.9245876736111  95.6770833333333 70.3076171875  96.875 74.2587890625  C 98.0729166666667 78.2099609375  98.8932291666667 82.1353081597222  99.3359375 86.0348307291667  Z M 71.2109375 8.7158203125  C 77.0703125 14.5263671875  80 21.5377604166667  80 29.75  C 80 37.9622395833333  77.0703125 44.9736328125  71.2109375 50.7841796875  C 65.3515625 56.5947265625  58.28125 59.5  50 59.5  C 41.71875 59.5  34.6484375 56.5947265625  28.7890625 50.7841796875  C 22.9296875 44.9736328125  20 37.9622395833333  20 29.75  C 20 21.5377604166667  22.9296875 14.5263671875  28.7890625 8.7158203125  C 34.6484375 2.9052734375  41.71875 0  50 0  C 58.28125 0  65.3515625 2.9052734375  71.2109375 8.7158203125  Z " fill-rule="nonzero" fill="#ffffff" stroke="none" transform="matrix(1 0 0 1 116 40 )" />
  </g>
</svg>