<?xml version="1.0" encoding="utf-8"?>
<svg version="1.1" xmlns:xlink="http://www.w3.org/1999/xlink" width="84px" height="80px" xmlns="http://www.w3.org/2000/svg">
  <defs>
    <filter x="70px" y="379px" width="84px" height="80px" filterUnits="userSpaceOnUse" id="filter270">
      <feOffset dx="0" dy="0" in="SourceAlpha" result="shadowOffsetInner" />
      <feGaussianBlur stdDeviation="5" in="shadowOffsetInner" result="shadowGaussian" />
      <feComposite in2="shadowGaussian" operator="atop" in="SourceAlpha" result="shadowComposite" />
      <feColorMatrix type="matrix" values="0 0 0 0 0  0 0 0 0 0  0 0 0 0 0  0 0 0 0.313725490196078 0  " in="shadowComposite" />
    </filter>
    <g id="widget271">
      <path d="M 63.1484375 15.5078125  C 63.234375 14.828125  63.046875 14.1796875  62.640625 13.6796875  C 61.390625 12.1484375  59.828125 10.3359375  58.4609375 8.828125  C 58.375 8.734375  58.28125 8.6484375  58.1796875 8.578125  C 56.8359375 7.578125  55.265625 8.5  54.671875 8.8515625  C 54.0390625 9.2265625  53.2578125 9.7734375  52.3515625 10.5  C 51 11.5703125  49.7578125 12.6875  49.5 12.921875  C 47.6015625 14.4453125  45.9921875 15.734375  44.4375 16.984375  C 41.28125 19.515625  38.546875 21.703125  34.6875 24.8359375  L 34.6796875 24.84375  C 34.671875 24.8515625  34.6640625 24.859375  34.6484375 24.8671875  C 34.6328125 24.8828125  34.609375 24.8984375  34.59375 24.9140625  C 34.5859375 24.921875  34.5703125 24.9296875  34.5625 24.9453125  L 34.515625 24.9921875  L 34.484375 25.0234375  C 34.46875 25.0390625  34.4453125 25.0625  34.4296875 25.0859375  C 34.421875 25.09375  34.4140625 25.1015625  34.4140625 25.109375  C 34.390625 25.140625  34.3671875 25.1640625  34.34375 25.1953125  C 34.3359375 25.203125  34.3359375 25.2109375  34.328125 25.21875  C 34.3125 25.2421875  34.296875 25.265625  34.28125 25.28125  C 34.2734375 25.2890625  34.265625 25.3046875  34.2578125 25.3125  C 34.2421875 25.3359375  34.234375 25.3515625  34.21875 25.375  C 34.21875 25.3828125  34.2109375 25.390625  34.203125 25.3984375  C 34.046875 25.6796875  30.3125 32.328125  28.78125 35.234375  C 28.4140625 35.9296875  28.5 36.78125  29 37.3828125  C 29.375 37.84375  29.9375 38.09375  30.5078125 38.09375  C 30.6953125 38.09375  30.8828125 38.0703125  31.0703125 38.015625  C 34.203125 37.078125  40.3515625 35.0546875  41.8125 34.5703125  C 41.828125 34.5625  41.8515625 34.5546875  41.8671875 34.546875  C 41.8984375 34.5390625  41.921875 34.5234375  41.953125 34.515625  C 41.96875 34.5078125  41.9921875 34.5  42.0078125 34.4921875  C 42.0390625 34.4765625  42.0703125 34.4609375  42.09375 34.4453125  C 42.109375 34.4375  42.125 34.4296875  42.1328125 34.421875  C 42.171875 34.3984375  42.21875 34.375  42.2578125 34.34375  C 42.265625 34.3359375  42.28125 34.328125  42.2890625 34.3203125  L 42.3828125 34.25  C 42.390625 34.2421875  42.3984375 34.2421875  42.40625 34.234375  C 44.2109375 32.7890625  45.75 31.5625  47.2421875 30.375  C 50.484375 27.796875  53.2890625 25.5625  57.2734375 22.3203125  C 57.40625 22.2109375  58.6328125 21.234375  59.8984375 20.0625  C 62.59375 17.5546875  63.0546875 16.390625  63.1484375 15.5078125  Z M 34.5390625 32.8203125  C 35.125 31.7578125  35.7109375 30.6953125  36.21875 29.7890625  C 36.7578125 30.4453125  37.296875 31.09375  37.8359375 31.75  C 36.8359375 32.078125  35.6875 32.453125  34.5390625 32.8203125  Z M 53.2890625 20.5234375  C 50.09375 23.1171875  47.625 25.078125  44.8203125 27.3125  C 43.75 28.1640625  42.65625 29.03125  41.4609375 29.9921875  C 40.765625 29.1640625  39.921875 28.1484375  39.1171875 27.171875  C 38.96875 26.9921875  38.8203125 26.8046875  38.671875 26.625  C 41.7578125 24.125  44.15625 22.203125  46.875 20.0234375  C 48.015625 19.109375  49.1953125 18.1640625  50.484375 17.125  C 50.7265625 17.421875  50.96875 17.71875  51.203125 18  C 51.90625 18.8515625  52.578125 19.6796875  53.2890625 20.5234375  Z M 58.984375 15.3828125  C 58.46875 16.03125  57.46875 17.03125  56.3203125 18.03125  L 53.484375 14.6015625  C 54.6015625 13.65625  55.671875 12.828125  56.390625 12.359375  C 57.265625 13.34375  58.171875 14.3984375  58.984375 15.3828125  Z M 51 38.2890625  C 51.4453125 37  50.3984375 35.9453125  49.1015625 35.9453125  C 47.8046875 35.9453125  46.7578125 36.9921875  46 38.2890625  L 46 54  L 5 54  L 5 28.65625  C 4.7265625 28.3515625  4.96875 28.109375  5.2734375 29  L 25.2890625 29  C 26.5859375 28.109375  27.6328125 27.0625  27.6328125 25.765625  C 27.6328125 24.46875  26.5859375 23.421875  25.2890625 24  L 14 24  L 14 10.6875  C 13.375 7.5390625  15.9375 4.984375  19.078125 5  L 33.21875 5  C 35.921875 4.984375  38.1171875 7.1796875  38.1171875 9.8828125  L 38.1171875 10.453125  C 38.1171875 11.75  39.1640625 12.796875  40.4609375 12.796875  C 41.7578125 12.796875  42.8046875 11.75  42.8046875 10.453125  L 42.8046875 9.8828125  C 42.8046875 4.59375  38.5078125 0.296874999999998  33.21875 1  L 19.078125 1  C 13.34375 0.296874999999998  8.6875 4.9609375  9 10.6875  L 9 23.421875  L 5.28125 23.421875  C 2.3984375 23.421875  0.0468750000000036 25.7734375  0 28.65625  L 0 59  L 51 59  L 51 38.2890625  Z M 23.3984375 48.21875  C 23.3984375 49.5078125  24.453125 50.5625  25.7421875 50.5625  C 27.03125 50.5625  28.0859375 49.5078125  28.0859375 48.21875  L 28.0859375 42.8359375  L 28.15625 42.8125  C 28.96875 42.515625  29.3828125 41.6171875  29.078125 40.8046875  C 28.78125 39.9921875  27.8828125 39.578125  27.0703125 39.8828125  C 26.0703125 40.2578125  25.3671875 40.2578125  24.734375 39.8984375  C 23.625 39.2734375  23.234375 37.859375  23.859375 36.75  C 24.2265625 36.1015625  24.7890625 35.7421875  25.6953125 35.578125  C 26.546875 35.421875  27.109375 34.609375  26.953125 33.7578125  C 26.796875 32.90625  25.984375 32.34375  25.1328125 32.5  C 23.3046875 32.8359375  21.9609375 33.75  21.140625 35.2109375  C 19.671875 37.8203125  20.59375 41.140625  23.203125 42.6171875  C 23.265625 42.65625  23.3359375 42.6875  23.3984375 42.7265625  L 23.3984375 48.21875  Z " fill-rule="nonzero" fill="#aeea00" stroke="none" transform="matrix(1 0 0 1 80 389 )" />
    </g>
  </defs>
  <g transform="matrix(1 0 0 1 -70 -379 )">
    <use xlink:href="#widget271" filter="url(#filter270)" />
    <use xlink:href="#widget271" />
  </g>
</svg>