<?xml version="1.0" encoding="utf-8"?>
<svg version="1.1" xmlns:xlink="http://www.w3.org/1999/xlink" width="78px" height="100px" xmlns="http://www.w3.org/2000/svg">
  <defs>
    <filter x="186px" y="369px" width="78px" height="100px" filterUnits="userSpaceOnUse" id="filter268">
      <feOffset dx="0" dy="0" in="SourceAlpha" result="shadowOffsetInner" />
      <feGaussianBlur stdDeviation="5" in="shadowOffsetInner" result="shadowGaussian" />
      <feComposite in2="shadowGaussian" operator="atop" in="SourceAlpha" result="shadowComposite" />
      <feColorMatrix type="matrix" values="0 0 0 0 0  0 0 0 0 0  0 0 0 0 0  0 0 0 0.313725490196078 0  " in="shadowComposite" />
    </filter>
    <g id="widget269">
      <path d="M 56.203125 26.625  C 56.21875 26.3203125  55.984375 26.0546875  55.671875 26  L 4.609375 26  C 4.3046875 26.0546875  4.0625 26.3203125  4.09375 26.625  L 8.7890625 75.84375  C 8.7890625 78.1328125  10.6484375 79.9921875  12.9375 80  L 47.359375 80  C 49.6484375 79.9921875  51.5078125 78.1328125  51.5078125 75.84375  L 56.203125 26.625  Z M 21.21875 67.7578125  C 21.21875 68.7734375  20.390625 69.6015625  19.375 69.6015625  L 17.8515625 69.6015625  C 16.8359375 69.6015625  16.0078125 68.7734375  16.0078125 67.7578125  L 14.109375 38.3828125  C 14.109375 37.3671875  14.9375 36.5390625  15.953125 36.5390625  L 17.4765625 36.5390625  C 18.4921875 36.5390625  19.3203125 37.3671875  19.3203125 38.3828125  L 21.21875 67.7578125  Z M 32 38.3828125  L 32 67.7578125  C 32.7578125 68.7734375  31.9296875 69.6015625  30.9140625 69.6015625  L 29.390625 69.6015625  C 28.375 69.6015625  27.546875 68.7734375  28 67.7578125  L 28 38.3828125  C 27.546875 37.3671875  28.375 36.5390625  29.390625 36.5390625  L 30.9140625 36.5390625  C 31.9296875 36.5390625  32.7578125 37.3671875  32 38.3828125  Z M 46.2421875 38.3828125  L 44.34375 67.7578125  C 44.34375 68.7734375  43.515625 69.6015625  42.5 69.6015625  L 40.9765625 69.6015625  C 39.9609375 69.6015625  39.1328125 68.7734375  39.1328125 67.7578125  L 41.03125 38.3828125  C 41.03125 37.3671875  41.859375 36.5390625  42.875 36.5390625  L 44.3984375 36.5390625  C 45.4140625 36.5390625  46.2421875 37.3671875  46.2421875 38.3828125  Z M 57.34375 11.2734375  C 57.4140625 11.5859375  57.2265625 11.8984375  56.9140625 11.96875  L 1.8359375 24.625  C 1.5234375 24.6953125  1.21875 24.5  1.1484375 24.1953125  L 0.460937499999995 21.1875  C -0.0703125000000071 18.8828125  1.3828125 16.5625  3.6875 16.03125  L 51.5 5.0390625  C 53.8046875 4.5078125  56.125 5.9609375  56.65625 8.265625  L 57.34375 11.2734375  Z M 19.484375 11.1953125  L 19.1953125 9.9453125  C 18.6875 7.765625  20.0546875 5.5625  22.2421875 5.0546875  L 29.9140625 3.2734375  C 32.09375 2.765625  34.296875 4.1328125  34.8046875 6.3203125  L 35.1015625 7.5859375  L 38.5625 6.78125  L 38.3203125 5.7421875  C 37.40625 1.8046875  33.4375 -0.6640625  29.5078125 0.25  L 21.3125 2.15625  C 17.375 3.0703125  14.90625 7.0390625  15.8203125 10.96875  L 16.0546875 11.9921875  L 19.484375 11.1953125  Z " fill-rule="nonzero" fill="#aeea00" stroke="none" transform="matrix(1 0 0 1 196 379 )" />
    </g>
  </defs>
  <g transform="matrix(1 0 0 1 -186 -369 )">
    <use xlink:href="#widget269" filter="url(#filter268)" />
    <use xlink:href="#widget269" />
  </g>
</svg>