<?xml version="1.0" encoding="utf-8"?>
<svg version="1.1" xmlns:xlink="http://www.w3.org/1999/xlink" width="120px" height="96px" xmlns="http://www.w3.org/2000/svg">
  <defs>
    <filter x="834px" y="912px" width="120px" height="96px" filterUnits="userSpaceOnUse" id="filter266">
      <feOffset dx="0" dy="0" in="SourceAlpha" result="shadowOffsetInner" />
      <feGaussianBlur stdDeviation="5" in="shadowOffsetInner" result="shadowGaussian" />
      <feComposite in2="shadowGaussian" operator="atop" in="SourceAlpha" result="shadowComposite" />
      <feColorMatrix type="matrix" values="0 0 0 0 0  0 0 0 0 0  0 0 0 0 0  0 0 0 0.349019607843137 0  " in="shadowComposite" />
    </filter>
    <g id="widget267">
      <path d="M 47.6318359375 32.43359375  C 43.9697265625 36.14453125  39.55078125 38  34.375 38  C 29.19921875 38  24.7802734375 36.14453125  21.1181640625 32.43359375  C 17.4560546875 28.72265625  15.625 24.2447916666667  15.625 19  C 15.625 13.7552083333333  17.4560546875 9.27734375  21.1181640625 5.56640625  C 24.7802734375 1.85546875  29.19921875 0  34.375 0  C 39.55078125 0  43.9697265625 1.85546875  47.6318359375 5.56640625  C 51.2939453125 9.27734375  53.125 13.7552083333333  53.125 19  C 53.125 24.2447916666667  51.2939453125 28.72265625  47.6318359375 32.43359375  Z M 81 26.9166666666667  L 81 44  L 98.4375 44  C 98.8606770833333 44.3333333333333  99.2268880208333 44.4900173611111  99.5361328125 44.8033854166667  C 99.8453776041667 45.1167534722222  100 45.4878472222222  100 45.9166666666667  L 100 55.4166666666667  C 100 55.8454861111111  99.8453776041667 56.2165798611111  99.5361328125 56.5299479166667  C 99.2268880208333 56.8433159722222  98.8606770833333 57  98.4375 57  L 81 57  L 81 74.4166666666667  C 81.25 74.8454861111111  81.0953776041667 75.2165798611111  80.7861328125 75.5299479166667  C 80.4768880208333 75.8433159722222  80.1106770833333 76  79.6875 76  L 70.3125 76  C 69.8893229166667 76  69.5231119791667 75.8433159722222  69.2138671875 75.5299479166667  C 68.9046223958333 75.2165798611111  68.75 74.8454861111111  68 74.4166666666667  L 68 57  L 51.5625 57  C 51.1393229166667 57  50.7731119791667 56.8433159722222  50.4638671875 56.5299479166667  C 50.1546223958333 56.2165798611111  50 55.8454861111111  50 55.4166666666667  L 50 45.9166666666667  C 50 45.4878472222222  50.1546223958333 45.1167534722222  50.4638671875 44.8033854166667  C 50.7731119791667 44.4900173611111  51.1393229166667 44.3333333333333  51.5625 44  L 68 44  L 68 26.9166666666667  C 68.75 26.4878472222222  68.9046223958333 26.1167534722222  69.2138671875 25.8033854166667  C 69.5231119791667 25.4900173611111  69.8893229166667 25.3333333333333  70.3125 25.3333333333333  L 79.6875 25.3333333333333  C 80.1106770833333 25.3333333333333  80.4768880208333 25.4900173611111  80.7861328125 25.8033854166667  C 81.0953776041667 26.1167534722222  81.25 26.4878472222222  81 26.9166666666667  Z M 45.3125 45.9166666666667  L 45.3125 55.4166666666667  C 45.3125 57.1319444444445  45.9309895833333 58.6163194444445  47.16796875 59.8697916666667  C 48.4049479166667 61.1232638888889  49.8697916666667 61.75  51.5625 61  L 64 61  L 64 73.5260416666667  C 61.8489583333333 75.1753472222222  59.0657552083333 76  55.712890625 76  L 13.037109375 76  C 9.09830729166667 76  5.94075520833333 74.8619791666667  3.564453125 72.5859375  C 1.18815104166667 70.3098958333333  0 67.1762152777778  0 63.1848958333333  C 0 61.4366319444445  0.0569661458333333 59.7296006944445  0.1708984375 58.0638020833333  C 0.284830729166667 56.3980034722222  0.5126953125 54.6002604166667  0.8544921875 52.6705729166667  C 1.1962890625 50.7408854166667  1.62760416666667 48.9513888888889  2.1484375 47.3020833333333  C 2.66927083333333 45.6527777777778  3.369140625 44.0447048611111  4.248046875 42.4778645833333  C 5.126953125 40.9110243055556  6.13606770833333 39.5750868055556  7.275390625 38.4700520833333  C 8.41471354166667 37.3650173611111  9.80631510416667 36.4826388888889  11.4501953125 35.8229166666667  C 13.0940755208333 35.1631944444444  14.9088541666667 34.8333333333333  16.89453125 34.8333333333333  C 17.5130208333333 34.8333333333333  18.1477864583333 35.1137152777778  18.798828125 35.6744791666667  C 21.3704427083333 37.6866319444444  23.8850911458333 39.1957465277778  26.3427734375 40.2018229166667  C 28.8004557291667 41.2078993055556  31.4778645833333 41.7109375  34.375 41.7109375  C 37.2721354166667 41.7109375  39.9495442708333 41.2078993055556  42.4072265625 40.2018229166667  C 44.8649088541667 39.1957465277778  47.3795572916667 37.6866319444444  49.951171875 35.6744791666667  C 50.6022135416667 35.1137152777778  51.2369791666667 34.8333333333333  51.85546875 34.8333333333333  C 56.15234375 34.8333333333333  59.6842447916667 36.4166666666667  62.451171875 39  L 51.5625 39  C 49.8697916666667 39.5833333333333  48.4049479166667 40.2100694444445  47.16796875 41.4635416666667  C 45.9309895833333 42.7170138888889  45.3125 44.2013888888889  45.3125 45.9166666666667  Z " fill-rule="nonzero" fill="#ffffff" stroke="none" transform="matrix(1 0 0 1 844 922 )" />
    </g>
  </defs>
  <g transform="matrix(1 0 0 1 -834 -912 )">
    <use xlink:href="#widget267" filter="url(#filter266)" />
    <use xlink:href="#widget267" />
  </g>
</svg>