<?xml version="1.0" encoding="utf-8"?>
<svg version="1.1" xmlns:xlink="http://www.w3.org/1999/xlink" width="152px" height="88px" xmlns="http://www.w3.org/2000/svg">
  <g transform="matrix(1 0 0 1 -197 -347 )">
    <path d="M 151.041796875 80.194140625  C 151.041796875 75.912109375  148.96953125 72.43046875  146.407421875 72  L 5.36484374999999 72  C 2.79648437500001 72.43046875  0.726171874999991 75.916015625  0.726171874999991 80.194140625  C 0.726171874999991 84.475390625  2.79648437500001 87.93359375  5.36484374999999 88  L 146.407421875 88  C 148.969921875 87.93359375  151.041796875 84.47578125  151.041796875 80.194140625  Z M 151.041796875 44.405859375  C 151.041796875 40.1109375  148.96953125 36.639453125  146.407421875 37  L 5.36484374999999 37  C 2.79648437500001 36.639453125  0.726171874999991 40.1109375  0.726171874999991 44.405859375  C 0.726171874999991 48.6859375  2.79648437500001 52.145703125  5.36484374999999 52  L 146.407421875 52  C 148.969921875 52.145703125  151.041796875 48.6855468750001  151.041796875 44.405859375  Z M 151.041796875 8.61562499999999  C 151.041796875 4.33437499999999  148.96953125 0.872656250000006  146.407421875 1  L 5.36484374999999 1  C 2.79648437500001 0.872656250000006  0.726171874999991 4.33437500000002  0.726171874999991 8.61601562500002  C 0.726171874999991 12.895703125  2.79648437500001 16.36953125  5.36484374999999 17  L 146.407421875 17  C 148.969921875 16.36953125  151.041796875 12.895703125  151.041796875 8.61562499999999  Z " fill-rule="nonzero" fill="#1fa2fe" stroke="none" transform="matrix(1 0 0 1 197 347 )" />
  </g>
</svg>