<?xml version="1.0" encoding="utf-8"?>
<svg version="1.1" xmlns:xlink="http://www.w3.org/1999/xlink" width="305px" height="351px" xmlns="http://www.w3.org/2000/svg">
  <g transform="matrix(1 0 0 1 -139 -220 )">
    <path d="M 304.62421875 44.53125  C 304.62421875 20.1921875  284.853125 0.383984375000001  260.550390625 1  L 44.48515625 1  C 44.384375 0.383984375000001  44.296484375 0.399218750000003  44.18671875 0.405468750000004  C 44.083984375 0.399218750000003  43.98828125 0.383984375000001  43.885546875 0.383984375000001  C 20.225390625 0.383984375000001  0.973046875000001 20.1921875  1 44.53125  L 1 302.620703125  C 0.973046875000001 305.873828125  2.248046875 308.972265625  4.52187500000001 311.215625  L 39.58125 346.003125  C 44.07734375 350.45546875  51.18984375 350.45546875  55.68515625 346.003125  L 91.452734375 310.51484375  L 128.561328125 347.328515625  C 133.058203125 351.800390625  140.176953125 351.800390625  144.6734375 347.328515625  L 181.784375 310.514453125  L 218.8984375 347.328515625  C 221.14609375 349.558984375  224.051171875 350.680078125  226.94453125 350.680078125  C 229.846484375 350.680078125  232.756640625 349.558984375  235.004296875 347.328515625  L 268.598046875 314.005078125  C 270.866015625 311.748046875  272.14609375 308.651171875  272 305.412109375  L 272 87.09375  C 290.835546875 81.96171875  304.62421875 64.842578125  304.62421875 44.530859375  Z M 229.11640625 325.755078125  L 191.107421875 288.04453125  C 186.511328125 283.471875  179.228515625 283.471875  174.623046875 288.04453125  L 136.623046875 325.755078125  L 98.61796875 288.04453125  C 94.01328125 283.471875  86.730859375 283.471875  82.124609375 288.04453125  L 45.49765625 324.3765625  L 22 300.5484375  L 22 41.440234375  C 21.471875 29.9828125  30.528125 20.666796875  41.659375 20.666796875  C 41.759375 20.666796875  41.8484375 20.637109375  41.93984375 20.637109375  C 42.05859375 20.637109375  42.16484375 20.6671875  42.274609375 20.6671875  L 42.316015625 20.6671875  C 54.085546875 20.693359375  63.650390625 30.0046875  63.650390625 41.440234375  C 63.650390625 52.89453125  54.0640625 62.21875  42.274609375 62.21875  C 35.710546875 62.21875  30.401953125 67.6796875  30.401953125 74.42734375  C 30.401953125 81.183203125  35.710546875 86.659375  42.274609375 87  L 251 87  L 251 303.389453125  L 229.116015625 325.7546875  Z M 261.9109375 66.596875  L 255.67265625 67.1734375  L 70.720703125 65.990625  C 81.983984375 60.46953125  81.991796875 49.3734375  81.983984375 46.037109375  C 81.95546875 33.582421875  80.066015625 28.074609375  76.890234375 21.936328125  L 262.056640625 21.624609375  C 273.673828125 21.624609375  285.79296875 33.80703125  285.79296875 45.0953125  C 285.79296875 56.38046875  273.52734375 66.596875  261.9109375 66.596875  Z " fill-rule="nonzero" fill="#000000" stroke="none" transform="matrix(1 0 0 1 139 220 )" />
  </g>
</svg>