<?xml version="1.0" encoding="utf-8"?>
<svg version="1.1" xmlns:xlink="http://www.w3.org/1999/xlink" width="300px" height="234px" xmlns="http://www.w3.org/2000/svg">
  <g transform="matrix(1 0 0 1 -491 -1823 )">
    <path d="M 58.0078125 163.949573863636  C 62.1930803571429 159.794744318182  64.2857142857143 154.78125  64.2857142857143 148.909090909091  C 64.2857142857143 143.036931818182  62.1930803571429 138.0234375  58.0078125 133.868607954545  C 53.8225446428571 129.713778409091  48.7723214285714 127.636363636364  42.8571428571429 127.636363636364  C 36.9419642857143 127.636363636364  31.8917410714286 129.713778409091  27.7064732142857 133.868607954545  C 23.5212053571429 138.0234375  21.4285714285714 143.036931818182  21.4285714285714 148.909090909091  C 21.4285714285714 154.78125  23.5212053571429 159.794744318182  27.7064732142857 163.949573863636  C 31.8917410714286 168.104403409091  36.9419642857143 170.181818181818  42.8571428571429 170.181818181818  C 48.7723214285714 170.181818181818  53.8225446428571 168.104403409091  58.0078125 163.949573863636  Z M 90.1506696428571 89.4950284090909  C 94.3359375 85.3401988636364  96.4285714285714 80.3267045454545  96.4285714285714 74.4545454545455  C 96.4285714285714 68.5823863636363  94.3359375 63.5688920454545  90.1506696428571 59.4140625  C 85.9654017857143 55.2592329545455  80.9151785714286 53.1818181818182  75 53.1818181818182  C 69.0848214285714 53.1818181818182  64.0345982142857 55.2592329545455  59.8493303571429 59.4140625  C 55.6640625 63.5688920454545  53.5714285714286 68.5823863636363  53.5714285714286 74.4545454545455  C 53.5714285714286 80.3267045454545  55.6640625 85.3401988636364  59.8493303571429 89.4950284090909  C 64.0345982142857 93.6498579545455  69.0848214285714 95.7272727272727  75 95.7272727272727  C 80.9151785714286 95.7272727272727  85.9654017857143 93.6498579545455  90.1506696428571 89.4950284090909  Z M 180.133928571429 169.517045454545  C 177.678571428571 163.201704545455  173.660714285714 158.160511363636  168.080357142857 154.393465909091  L 184.988839285714 90.9076704545455  C 185.658482142857 88.0269886363636  185.239955357143 85.3401988636364  183.733258928571 82.8473011363636  C 182.2265625 80.3544034090909  180.078125 78.7201704545454  177.287946428571 77.9446022727273  C 174.497767857143 77.1690340909091  171.819196428571 77.5291193181818  169.252232142857 79.0248579545455  C 166.685267857143 80.5205965909091  165.011160714286 82.7088068181818  164.229910714286 85.5894886363636  L 147.321428571429 149.075284090909  C 140.625 149.629261363636  134.654017857143 152.0390625  129.408482142857 156.3046875  C 124.162946428571 160.5703125  120.647321428571 166.026988636364  118.861607142857 172.674715909091  C 116.629464285714 181.205965909091  117.745535714286 189.294034090909  122.209821428571 196.938920454545  C 126.674107142857 204.583806818182  133.203125 209.514204545455  141.796875 211.730113636364  C 150.390625 213.946022727273  158.537946428571 212.838068181818  166.238839285714 208.40625  C 173.939732142857 203.974431818182  178.90625 197.492897727273  181.138392857143 188.961647727273  C 182.924107142857 182.313920454545  182.589285714286 175.832386363636  180.133928571429 169.517045454545  Z M 272.293526785714 163.949573863636  C 276.478794642857 159.794744318182  278.571428571429 154.78125  278.571428571429 148.909090909091  C 278.571428571429 143.036931818182  276.478794642857 138.0234375  272.293526785714 133.868607954545  C 268.108258928571 129.713778409091  263.058035714286 127.636363636364  257.142857142857 127.636363636364  C 251.227678571429 127.636363636364  246.177455357143 129.713778409091  241.9921875 133.868607954545  C 237.806919642857 138.0234375  235.714285714286 143.036931818182  235.714285714286 148.909090909091  C 235.714285714286 154.78125  237.806919642857 159.794744318182  241.9921875 163.949573863636  C 246.177455357143 168.104403409091  251.227678571429 170.181818181818  257.142857142857 170.181818181818  C 263.058035714286 170.181818181818  268.108258928571 168.104403409091  272.293526785714 163.949573863636  Z M 165.150669642857 57.5859375  C 169.3359375 53.4311079545455  171.428571428571 48.4176136363636  171.428571428571 42.5454545454545  C 171.428571428571 36.6732954545454  169.3359375 31.6598011363636  165.150669642857 27.5049715909091  C 160.965401785714 23.3501420454545  155.915178571429 21.2727272727273  150 21.2727272727273  C 144.084821428571 21.2727272727273  139.034598214286 23.3501420454545  134.849330357143 27.5049715909091  C 130.6640625 31.6598011363636  128.571428571429 36.6732954545454  128.571428571429 42.5454545454545  C 128.571428571429 48.4176136363636  130.6640625 53.4311079545455  134.849330357143 57.5859375  C 139.034598214286 61.7407670454545  144.084821428571 63.8181818181818  150 63.8181818181818  C 155.915178571429 63.8181818181818  160.965401785714 61.7407670454545  165.150669642857 57.5859375  Z M 240.150669642857 89.4950284090909  C 244.3359375 85.3401988636364  246.428571428571 80.3267045454545  246.428571428571 74.4545454545455  C 246.428571428571 68.5823863636363  244.3359375 63.5688920454545  240.150669642857 59.4140625  C 235.965401785714 55.2592329545455  230.915178571429 53.1818181818182  225 53.1818181818182  C 219.084821428571 53.1818181818182  214.034598214286 55.2592329545455  209.849330357143 59.4140625  C 205.6640625 63.5688920454545  203.571428571429 68.5823863636363  203.571428571429 74.4545454545455  C 203.571428571429 80.3267045454545  205.6640625 85.3401988636364  209.849330357143 89.4950284090909  C 214.034598214286 93.6498579545455  219.084821428571 95.7272727272727  225 95.7272727272727  C 230.915178571429 95.7272727272727  235.965401785714 93.6498579545455  240.150669642857 89.4950284090909  Z M 288.113839285714 91.0738636363636  C 296.037946428571 109.465909090909  300 128.744318181818  300 148.909090909091  C 300 177.826704545455  292.131696428571 204.583806818182  276.395089285714 229.180397727273  C 274.274553571429 232.393465909091  271.261160714286 234  267.354910714286 234  L 32.6450892857143 234  C 28.7388392857143 234  25.7254464285714 232.393465909091  23.6049107142857 229.180397727273  C 7.86830357142857 204.694602272727  0 177.9375  0 148.909090909091  C 0 128.744318181818  3.96205357142857 109.465909090909  11.8861607142857 91.0738636363636  C 19.8102678571429 72.6818181818182  30.46875 56.8380681818182  43.8616071428571 43.5426136363636  C 57.2544642857143 30.2471590909091  73.2142857142857 19.6661931818182  91.7410714285714 11.7997159090909  C 110.267857142857 3.93323863636362  129.6875 0  150 0  C 170.3125 0  189.732142857143 3.93323863636362  208.258928571429 11.7997159090909  C 226.785714285714 19.6661931818182  242.745535714286 30.2471590909091  256.138392857143 43.5426136363636  C 269.53125 56.8380681818182  280.189732142857 72.6818181818182  288.113839285714 91.0738636363636  Z " fill-rule="nonzero" fill="#000000" stroke="none" transform="matrix(1 0 0 1 491 1823 )" />
  </g>
</svg>