<?xml version="1.0" encoding="utf-8"?>
<svg version="1.1" xmlns:xlink="http://www.w3.org/1999/xlink" width="60px" height="60px" viewBox="548 1722  60 60" xmlns="http://www.w3.org/2000/svg">
  <path d="M 578 1722  C 594.8 1722  608 1735.2  608 1752  C 608 1768.8  594.8 1782  578 1782  C 561.2 1782  548 1768.8  548 1752  C 548 1735.2  561.2 1722  578 1722  Z " fill-rule="nonzero" fill="#ffffff" stroke="none" />
  <path d="M 578 1722.5  C 594.52 1722.5  607.5 1735.48  607.5 1752  C 607.5 1768.52  594.52 1781.5  578 1781.5  C 561.48 1781.5  548.5 1768.52  548.5 1752  C 548.5 1735.48  561.48 1722.5  578 1722.5  Z " stroke-width="1" stroke="#797979" fill="none" />
  <path d="M 578 1767  C 569.6 1767  563 1760.4  563 1752  C 563 1743.6  569.6 1737  578 1737  C 586.4 1737  593 1743.6  593 1752  C 593 1760.4  586.4 1767  578 1767  " fill-rule="nonzero" fill="#797979" stroke="none" />
</svg>