<?xml version="1.0" encoding="utf-8"?>
<svg version="1.1" xmlns:xlink="http://www.w3.org/1999/xlink" width="70px" height="70px" xmlns="http://www.w3.org/2000/svg">
  <defs>
    <path d="M 0 0  L 1024 0  L 1024 1024  L 0 1024  Z " fill-rule="evenodd" fill="black" id="path371" />
    <clipPath id="clip372">
      <use xlink:href="#path371" />
    </clipPath>
    <defs>
      <style type="text/css"></style>
    </defs>
    <path d="M910.051556 437.418667c0-27.363556-12.288-52.224-36.977778-74.581334 22.641778-22.414222 36.977778-47.217778 36.977778-74.638222 0-96.938667-166.343111-174.08-369.607112-174.08s-369.607111 77.141333-369.607111 174.08c0 27.363556 12.288 52.224 36.977778 74.638222-24.689778 22.357333-36.977778 47.217778-36.977778 74.524445 0 27.420444 12.288 52.280889 36.977778 74.638222-24.689778 22.357333-36.977778 47.217778-36.977778 74.581333s12.288 52.224 36.977778 74.581334c-24.689778 22.414222-36.977778 47.217778-36.977778 74.638222 0 96.938667 166.343111 174.08 369.607111 174.08s369.607111-77.141333 369.607112-174.08c0-27.363556-12.288-52.224-36.977778-74.638222 22.641778-22.357333 36.977778-47.217778 36.977778-74.524445 0-27.420444-12.288-52.280889-36.977778-74.638222 24.689778-22.357333 36.977778-47.217778 36.977778-74.581333z m-41.073778 149.162666c0 69.632-147.854222 124.359111-328.533334 124.359111s-328.533333-54.727111-328.533333-124.359111c0-17.408 10.24-34.816 26.680889-49.720889 67.754667 44.771556 176.583111 74.581333 301.852444 74.581334s234.097778-29.809778 301.852445-74.524445c16.440889 14.848 26.737778 32.256 26.737778 49.664zM540.444444 561.720889c-180.679111 0-328.533333-54.670222-328.533333-124.302222 0-17.408 10.24-34.816 26.680889-49.720889 67.754667 44.714667 176.583111 74.524444 301.852444 74.524444s234.097778-29.809778 301.852445-74.524444c16.440889 14.904889 26.737778 32.312889 26.737778 49.720889 0 69.632-147.911111 124.302222-328.590223 124.302222z m0-397.824c180.679111 0 328.533333 54.727111 328.533334 124.302222 0 69.632-147.854222 124.359111-328.533334 124.359111S211.911111 357.831111 211.911111 288.199111c0-69.575111 147.854222-124.302222 328.533333-124.302222z m0 696.206222c-180.679111 0-328.533333-54.727111-328.533333-124.302222 0-17.408 10.24-34.816 26.680889-49.720889 67.754667 44.714667 176.583111 74.524444 301.852444 74.524444s234.097778-29.809778 301.852445-74.524444c16.440889 14.904889 26.737778 32.312889 26.737778 49.720889 0 69.575111-147.911111 124.302222-328.590223 124.302222z" p-id="26320"></path>
    <filter x="-50.00%" y="-50.00%" width="200.00%" height="200.00%" filterUnits="objectBoundingBox" id="filter373">
      <feColorMatrix type="matrix" values="1 0 0 0 0  0 1 0 0 0  0 0 1 0 0  0 0 0 1 0  " in="SourceGraphic" />
    </filter>
  </defs>
  <g>
    <g transform="matrix(0.068359375 0 0 0.068359375 0 0 )" clip-path="url(#clip372)" filter="url(#filter373)">
      <path d="M910.051556 437.418667c0-27.363556-12.288-52.224-36.977778-74.581334 22.641778-22.414222 36.977778-47.217778 36.977778-74.638222 0-96.938667-166.343111-174.08-369.607112-174.08s-369.607111 77.141333-369.607111 174.08c0 27.363556 12.288 52.224 36.977778 74.638222-24.689778 22.357333-36.977778 47.217778-36.977778 74.524445 0 27.420444 12.288 52.280889 36.977778 74.638222-24.689778 22.357333-36.977778 47.217778-36.977778 74.581333s12.288 52.224 36.977778 74.581334c-24.689778 22.414222-36.977778 47.217778-36.977778 74.638222 0 96.938667 166.343111 174.08 369.607111 174.08s369.607111-77.141333 369.607112-174.08c0-27.363556-12.288-52.224-36.977778-74.638222 22.641778-22.357333 36.977778-47.217778 36.977778-74.524445 0-27.420444-12.288-52.280889-36.977778-74.638222 24.689778-22.357333 36.977778-47.217778 36.977778-74.581333z m-41.073778 149.162666c0 69.632-147.854222 124.359111-328.533334 124.359111s-328.533333-54.727111-328.533333-124.359111c0-17.408 10.24-34.816 26.680889-49.720889 67.754667 44.771556 176.583111 74.581333 301.852444 74.581334s234.097778-29.809778 301.852445-74.524445c16.440889 14.848 26.737778 32.256 26.737778 49.664zM540.444444 561.720889c-180.679111 0-328.533333-54.670222-328.533333-124.302222 0-17.408 10.24-34.816 26.680889-49.720889 67.754667 44.714667 176.583111 74.524444 301.852444 74.524444s234.097778-29.809778 301.852445-74.524444c16.440889 14.904889 26.737778 32.312889 26.737778 49.720889 0 69.632-147.911111 124.302222-328.590223 124.302222z m0-397.824c180.679111 0 328.533333 54.727111 328.533334 124.302222 0 69.632-147.854222 124.359111-328.533334 124.359111S211.911111 357.831111 211.911111 288.199111c0-69.575111 147.854222-124.302222 328.533333-124.302222z m0 696.206222c-180.679111 0-328.533333-54.727111-328.533333-124.302222 0-17.408 10.24-34.816 26.680889-49.720889 67.754667 44.714667 176.583111 74.524444 301.852444 74.524444s234.097778-29.809778 301.852445-74.524444c16.440889 14.904889 26.737778 32.312889 26.737778 49.720889 0 69.575111-147.911111 124.302222-328.590223 124.302222z" p-id="26320"></path>
    </g>
  </g>
</svg>