<?xml version="1.0" encoding="utf-8"?>
<svg version="1.1" xmlns:xlink="http://www.w3.org/1999/xlink" width="70px" height="70px" viewBox="78 0  70 70" xmlns="http://www.w3.org/2000/svg">
  <path d="M 113 0  C 132.6 0  148 15.4  148 35  C 148 54.6  132.6 70  113 70  C 93.4 70  78 54.6  78 35  C 78 15.4  93.4 0  113 0  Z " fill-rule="nonzero" fill="#ffffff" stroke="none" />
  <path d="M 113 0.5  C 132.32 0.5  147.5 15.68  147.5 35  C 147.5 54.32  132.32 69.5  113 69.5  C 93.68 69.5  78.5 54.32  78.5 35  C 78.5 15.68  93.68 0.5  113 0.5  Z " stroke-width="1" stroke="#797979" fill="none" />
  <path d="M 113 52.5  C 103.2 52.5  95.5 44.8  95.5 35  C 95.5 25.2  103.2 17.5  113 17.5  C 122.8 17.5  130.5 25.2  130.5 35  C 130.5 44.8  122.8 52.5  113 52.5  " fill-rule="nonzero" fill="#797979" stroke="none" />
</svg>