<?xml version="1.0" standalone="no"?><!DOCTYPE svg PUBLIC "-//W3C//DTD SVG 1.1//EN" "http://www.w3.org/Graphics/SVG/1.1/DTD/svg11.dtd"><svg t="1571983385106" class="icon" viewBox="0 0 1024 1024" version="1.1" xmlns="http://www.w3.org/2000/svg" p-id="26651" xmlns:xlink="http://www.w3.org/1999/xlink" width="200" height="200"><defs><style type="text/css"></style></defs><path d="M675.515 492.257c-0.81-7.399-3.85-12.254-4.905-19.621h1.963c9.247-6.85 37.558-10.884 50.033-15.696-1.003-0.79-0.27-0.349-1.963-0.982-4.02-3.363-12.131-3.02-13.733-8.83a27630.5 27630.5 0 0 1 7.849-16.676l21.582 8.828V72.361h0.981c4.521 5.385 13.45 7.022 19.621 10.793 9.888 6.037 19.974 13.157 29.433 19.62 2.058 1.407 7.555 2.942 8.83 4.907v64.75c-2.027 3.281-0.981 11.682-0.981 16.678v40.223c1.007 48.553-0.233 98.645 0 148.143 0.842 178.864 0.929 359.071 0.981 538.607-8.61 2.654-16.242 11.081-23.546 15.696-11.439 7.234-23.723 12.738-35.319 19.625V474.6h-1.962c-4.665 3.18-10.71 2.934-16.679 4.907-13.156 4.345-27.465 10.677-42.185 12.75z" p-id="26652"></path><path d="M796.186 174.391c8.336 4.18 14.359 11.469 21.585 16.679 18.512 13.348 35.835 27.891 53.957 41.205 19.681 14.457 38.465 29.897 57.882 44.147 7.289 5.349 18.506 10.241 23.544 17.659 4.32 6.354 5.688 14.329 8.831 21.584 7.688 17.739 18.802 38.349 21.586 59.843h-1.961c-3.026-4.149-7.609-5.774-11.776-8.828-12.455-9.14-24.535-19.104-37.277-28.451-31.912-23.409-62.292-50.144-94.185-73.581-9.711-7.137-18.942-14.734-28.451-21.584-3.577-2.577-11.932-5.882-13.734-9.811l-0.001-58.862z" p-id="26653"></path><path d="M151.622 188.125l74.562 32.375c-1.526 6.589-5.054 12.914-7.848 18.641-6.529-1.464-12.178-5.453-17.661-7.848-13.442-5.876-26.629-10.537-39.241-16.678-5.725-2.787-15.872-3.188-17.661-9.811 2.617-5.559 5.234-11.119 7.849-16.679z m111.843 49.054c7.31 0.888 12.918 5.349 18.641 7.849 12.467 5.449 24.576 10.576 36.298 15.698 6.16 2.691 17.699 4.012 20.603 9.811-4.047 4.824-3.54 15.081-10.792 16.679-4.894-4.198-12.293-5.082-18.641-7.848-12.377-5.4-25.882-12.27-38.26-17.661-5.58-2.43-11.693-2.984-15.698-6.866 3.48-3.751 6.438-12.345 7.849-17.662z m172.667 45.13l4.906 24.527h-7.848v1.961c4.701 0.55 23.965 9.601 25.507 12.754-3.778 5.041-5.13 16.702-10.793 19.622-3.517-3.261-18.067-9.917-23.544-10.791v0.98c1.916 1.493 2.18 2.132 2.944 4.906-9.045 1.33-13.339 8.207-22.564 9.811-1.621-6.311-5.766-9.168-8.83-13.735-6.888-10.27-12.542-20.313-19.621-30.415-2.976-4.241-7.112-7.016-8.831-12.752l68.674-6.868z" p-id="26654"></path><path d="M796.186 325.475c18.818 10.873 34.707 27.507 51.997 40.224 36.21 26.634 70.819 55.177 106.936 81.428 11.412 8.296 22.151 17.432 33.357 25.509 3.572 2.575 11.935 5.885 13.732 9.811v10.792c4.323 6.801 0.15 38.841 0 48.072h-0.978c-68.339-52.318-136.704-104.652-205.045-156.972l0.001-58.864z" p-id="26655"></path><path d="M489.109 333.323c17.701 7.503 35.732 16.028 52.979 23.547 7.418 3.233 17.146 4.529 22.564 9.811-4.036 4.806-3.931 15.804-10.791 17.658-5.319-4.684-13.634-5.785-20.602-8.83-10.092-4.403-21.302-10.317-31.396-14.714-6.185-2.696-17.663-4.012-20.603-9.813 3.445-3.828 6.437-12.339 7.849-17.659z m112.825 49.054c8.34 1.681 15.53 6.736 22.564 9.81 11.893 5.198 23.261 9.325 34.337 14.717 5.725 2.787 15.872 3.188 17.66 9.811-2.616 5.558-5.232 11.119-7.85 16.678-18.092-7.87-37.012-16.703-54.939-24.526-6.07-2.649-17.132-3.733-19.622-9.811l7.85-16.679z" p-id="26656"></path><path d="M796.186 481.466c14.651 9.252 27.385 22.209 41.205 32.375 34.882 25.656 68.155 53.354 103.014 78.484 11.465 8.266 22.155 17.429 33.356 25.509 5.965 4.298 14.314 5.716 14.715 15.696-2.712 4.04-2.228 9.532-3.924 14.719-3.271 9.48-6.543 18.966-9.81 28.446-14.314-7.09-25.636-20.319-38.267-29.429-31.177-22.499-60.53-47.082-91.237-69.657-12.72-9.353-24.827-19.297-37.281-28.449-2.939-2.164-10.244-4.646-11.771-7.851v-59.843z" p-id="26657"></path><path d="M629.404 484.408h1.963c0.706 5.211 6.634 16.784 4.902 19.623-4.422 3.275-10.813 2.97-16.678 4.904-13.396 4.423-28.839 8.905-42.186 13.734-4.749 1.72-15.473 5.298-18.64 3.927-3.042-3.98-5.139-13.104-5.887-18.641h1.963c5.185-3.793 12.837-3.633 19.621-5.888 11.124-3.698 24.188-8.097 35.318-11.773 6.623-2.185 14.733-1.956 19.624-5.886z m-171.687 23.548c14.303 5.253 32.929 6.752 48.071 10.789 6.292 1.68 16.623 0.022 19.623 4.906-6.405 4.386-11.017 12.434-15.698 18.642-8.745 11.593-21.286 21.071-29.431 33.356h-0.982v-0.982c-5.078-2.788-17.09-8.652-18.641-14.717 2.229-1.44 2.952-2.062 3.924-4.903h-0.979c-4.273 3.281-19.974 8.271-26.489 8.828l-6.868-21.582c4.708-1.688 22.569-6.534 24.526-9.812-4.083-0.323-3.607 0.182-4.904-2.943 4.065-5.397 5.217-15.172 7.848-21.582z m-134.408 90.257c-0.876-7.32-4.171-12.038-4.905-19.622h0.98v-0.98c7.469-0.48 13.659-3.904 19.622-5.888 12.556-4.169 23.801-5.66 36.3-9.81 4.265-1.416 17.265-7.937 20.603-5.887 3.075 3.975 5.127 13.008 5.885 18.641h-0.979v0.982c-25.834 7.519-51.671 15.043-77.506 22.564z m-39.241 12.752c-10.515 0.683-20.541 5.903-29.433 8.829-9.268 3.054-17.394 3.593-26.489 6.871-5.114 1.84-17.082 7.645-21.583 5.887-3.079-3.976-5.128-13.009-5.889-18.642h0.982v-0.981c7.457-0.423 13.675-3.921 19.621-5.887 19.387-6.407 38.477-11.868 57.885-16.678 0.936 7.694 4.38 12.287 4.906 20.601z m-124.597 14.719c2.42 1.269 0.667-0.42 1.963 1.959 2.213 2.755 6.084 15.597 4.904 17.661-4.423 3.277-10.814 2.971-16.679 4.906-13.398 4.419-28.839 8.906-42.184 13.736-4.751 1.717-15.474 5.293-18.642 3.919l-5.886-18.633c19.072-3.817 38.926-11.71 56.902-17.661 6.605-2.187 14.757-1.945 19.622-5.887z" p-id="26658"></path><path d="M796.186 638.438c5.339 1.828 8.581 6.802 12.754 9.813 10.154 7.317 19.605 15.336 29.432 22.563 24.115 17.729 47.48 35.272 71.617 52.977 10.887 7.988 20.867 18.089 32.38 25.509-6.623 14.469-16.531 27.038-24.527 40.225-8.326-4.132-14.45-11.429-21.589-16.679-22.289-16.396-43.538-34.04-65.729-50.032-5.128-3.696-32.715-21.968-34.337-25.509l-0.001-58.867z m0 166.779c23.884 13.921 42.12 37.211 66.712 50.037v1.961c-9.99 6.667-24.732 29.005-36.299 31.393-4.047-5.564-16.737-14.42-22.565-18.635-2.035-1.478-6.8-2.707-7.848-4.909v-59.847z" p-id="26659"></path></svg>