<?xml version="1.0" encoding="utf-8"?>
<svg version="1.1" xmlns:xlink="http://www.w3.org/1999/xlink" width="70px" height="70px" viewBox="275 762  70 70" xmlns="http://www.w3.org/2000/svg">
  <path d="M 310 762  C 329.6 762  345 777.4  345 797  C 345 816.6  329.6 832  310 832  C 290.4 832  275 816.6  275 797  C 275 777.4  290.4 762  310 762  Z " fill-rule="nonzero" fill="#ffffff" stroke="none" />
  <path d="M 310 762.5  C 329.32 762.5  344.5 777.68  344.5 797  C 344.5 816.32  329.32 831.5  310 831.5  C 290.68 831.5  275.5 816.32  275.5 797  C 275.5 777.68  290.68 762.5  310 762.5  Z " stroke-width="1" stroke="#797979" fill="none" />
  <path d="M 310 814.5  C 300.2 814.5  292.5 806.8  292.5 797  C 292.5 787.2  300.2 779.5  310 779.5  C 319.8 779.5  327.5 787.2  327.5 797  C 327.5 806.8  319.8 814.5  310 814.5  " fill-rule="nonzero" fill="#797979" stroke="none" />
</svg>