<?xml version="1.0" encoding="utf-8"?>
<svg version="1.1" xmlns:xlink="http://www.w3.org/1999/xlink" width="70px" height="70px" viewBox="1025 273  70 70" xmlns="http://www.w3.org/2000/svg">
  <path d="M 1060 273  C 1079.6 273  1095 288.4  1095 308  C 1095 327.6  1079.6 343  1060 343  C 1040.4 343  1025 327.6  1025 308  C 1025 288.4  1040.4 273  1060 273  Z " fill-rule="nonzero" fill="#ffffff" stroke="none" />
  <path d="M 1060 273.5  C 1079.32 273.5  1094.5 288.68  1094.5 308  C 1094.5 327.32  1079.32 342.5  1060 342.5  C 1040.68 342.5  1025.5 327.32  1025.5 308  C 1025.5 288.68  1040.68 273.5  1060 273.5  Z " stroke-width="1" stroke="#797979" fill="none" />
  <path d="M 1060 325.5  C 1050.2 325.5  1042.5 317.8  1042.5 308  C 1042.5 298.2  1050.2 290.5  1060 290.5  C 1069.8 290.5  1077.5 298.2  1077.5 308  C 1077.5 317.8  1069.8 325.5  1060 325.5  " fill-rule="nonzero" fill="#797979" stroke="none" />
</svg>