<?xml version="1.0" encoding="utf-8"?>
<svg version="1.1" xmlns:xlink="http://www.w3.org/1999/xlink" width="100px" height="100px" xmlns="http://www.w3.org/2000/svg">
  <g transform="matrix(1 0 0 1 -28 -212 )">
    <path d="M 28 212  L 128 212  L 128 312  L 28 312  L 28 212  " fill-rule="nonzero" fill="#cccccc" stroke="none" />
    <path d="M 35 219  L 121 219  L 121 305  L 35 305  L 35 219  " fill-rule="nonzero" fill="#ffffff" stroke="none" />
    <path d="M 87.5 242  C 83.3 242  80 238.7  80 234.5  C 80 230.3  83.3 227  87.5 227  C 91.7 227  95 230.3  95 234.5  C 95 238.7  91.7 242  87.5 242  " fill-rule="nonzero" fill="#cccccc" stroke="none" />
    <path d="M 38 303  L 38 258.45  L 58.25 238.2  L 86.6 254.4  L 102.8 250.35  L 119 254.4  L 119 303  L 38 303  " fill-rule="nonzero" fill="#169bd5" stroke="none" />
  </g>
</svg>