<?xml version="1.0" encoding="utf-8"?>
<svg version="1.1" xmlns:xlink="http://www.w3.org/1999/xlink" width="40px" height="60px" xmlns="http://www.w3.org/2000/svg">
  <g transform="matrix(1 0 0 1 0 -74 )">
    <path d="M 38.6805555555556 1.11328125  C 39.5601851851852 1.85546874999999  40 2.73437499999999  40 3.75  L 40 56.25  C 40 57.265625  39.5601851851852 58.14453125  38.6805555555556 58.88671875  C 37.8009259259259 59.62890625  36.7592592592593 60  35.5555555555556 60  C 34.3518518518519 60  33.3101851851852 59.62890625  32.4305555555556 58.88671875  L 1.31944444444444 32.63671875  C 0.439814814814815 31.89453125  0 31.015625  0 30  C 0 28.984375  0.439814814814815 28.10546875  1.31944444444444 27.36328125  L 32.4305555555556 1.11328125  C 33.3101851851852 0.371093749999996  34.3518518518519 0  35.5555555555556 0  C 36.7592592592593 0  37.8009259259259 0.371093749999996  38.6805555555556 1.11328125  Z " fill-rule="nonzero" fill="#4d0388" stroke="none" transform="matrix(1 0 0 1 0 74 )" />
  </g>
</svg>