<?xml version="1.0" encoding="utf-8"?>
<svg version="1.1" xmlns:xlink="http://www.w3.org/1999/xlink" width="40px" height="60px" xmlns="http://www.w3.org/2000/svg">
  <g transform="matrix(1 0 0 1 -451 -76 )">
    <path d="M 38.6805555555556 27.36328125  C 39.5601851851852 28.10546875  40 28.984375  40 30  C 40 31.015625  39.5601851851852 31.89453125  38.6805555555556 32.63671875  L 7.56944444444444 58.88671875  C 6.68981481481481 59.62890625  5.64814814814815 60  4.44444444444444 60  C 3.24074074074074 60  2.19907407407407 59.62890625  1.31944444444444 58.88671875  C 0.439814814814815 58.14453125  0 57.265625  0 56.25  L 0 3.75  C 0 2.73437499999999  0.439814814814815 1.85546874999999  1.31944444444444 1.11328125  C 2.19907407407407 0.371093749999996  3.24074074074074 0  4.44444444444444 0  C 5.64814814814815 0  6.68981481481481 0.371093749999996  7.56944444444444 1.11328125  L 38.6805555555556 27.36328125  Z " fill-rule="nonzero" fill="#4d0388" stroke="none" transform="matrix(1 0 0 1 451 76 )" />
  </g>
</svg>