<?xml version="1.0" standalone="no"?><!DOCTYPE svg PUBLIC "-//W3C//DTD SVG 1.1//EN" "http://www.w3.org/Graphics/SVG/1.1/DTD/svg11.dtd"><svg t="1571989478083" class="icon" viewBox="0 0 1024 1024" version="1.1" xmlns="http://www.w3.org/2000/svg" p-id="31369" xmlns:xlink="http://www.w3.org/1999/xlink" width="200" height="200"><defs><style type="text/css"></style></defs><path d="M319.968 960c-5.92 0-11.904-1.664-17.184-4.992-12.672-8.064-18.016-23.84-12.896-37.952L402.304 608H160c-12.928 0-24.608-7.776-29.568-19.744s-2.208-25.728 6.944-34.88l480-480c12.512-12.512 32.736-12.512 45.248 0s12.512 32.736 0 45.248L237.248 544H448a31.952 31.952 0 0 1 26.208 13.664c6.016 8.544 7.424 19.456 3.872 29.28l-78.72 216.448L786.752 416H576c-17.696 0-32-14.336-32-32s14.304-32 32-32h288c12.928 0 24.64 7.808 29.568 19.744a31.997 31.997 0 0 1-6.944 34.88l-544 544A32.035 32.035 0 0 1 319.968 960z" fill="#272636" p-id="31370"></path></svg>