<?xml version="1.0" encoding="utf-8"?>
<svg version="1.1" xmlns:xlink="http://www.w3.org/1999/xlink" width="10px" height="23px" xmlns="http://www.w3.org/2000/svg">
  <g transform="matrix(1 0 0 1 -18 -54 )">
    <path d="M 8.53136708984375 22.8653889160156  C 8.3450195703125 22.8653889160156  8.15517895507813 22.8218015429688  7.97824752929688 22.7306020703125  C 7.748920078125 22.6129008984375  2.35608022460938 19.7860984179688  1.0154259375 14.3063115917969  C -0.978204072265623 6.159643984375  3.6678787890625 1.0271135546875  3.86652798828125 0.812593701171878  C 4.32199358398437 0.320906523437507  5.08993671875 0.291443291015625  5.58169984375 0.746908886718757  C 6.07255166992187 1.20191886718751  6.10239463867187 1.96743209960938  5.6499665234375 2.45911920898438  C 5.62604662109375 2.48600064453125  4.63211716796875 3.59641625  3.86364240234375 5.52861387695313  C 2.83759190429687 8.10642143554688  2.67258249023438 10.8659443457031  3.37324619140625 13.7294240234375  C 4.44698459960938 18.1173996582031  9.0439367578125 20.549029921875  9.09003004882813 20.5729498242188  C 9.68400329101562 20.8817065625  9.917279453125 21.6129725683594  9.60988956054688 22.2074014257812  C 9.39445840820312 22.6252785253906  8.97103791015625 22.8653889160156  8.53136708984375 22.8653889160156  Z " fill-rule="nonzero" fill="#95f204" stroke="none" transform="matrix(1 0 0 1 18 54 )" />
  </g>
</svg>