<?xml version="1.0" encoding="utf-8"?>
<svg version="1.1" xmlns:xlink="http://www.w3.org/1999/xlink" width="22px" height="27px" xmlns="http://www.w3.org/2000/svg">
  <g transform="matrix(1 0 0 1 -36 -46 )">
    <path d="M 21.3819068847656 3.65599147460936  C 21.4466808105469 3.87658622070312  21.4791055761719 4.19430350585938  21.4791055761719 4.60921907226562  C 21.4791055761719 4.8557840234375  21.4660445605469 5.07318946289062  21.44022625 5.26090389648437  C 21.4141041503906 5.44907387695312  21.3752248242187 5.60474321289063  21.3235122558594 5.7278358203125  C 21.2715718457031 5.85123221679687  21.2067982617188 5.93886264648437  21.1290395410156 5.99049926757812  C 21.0512048730469 6.04259150390625  20.9666878710937 6.06833393554687  20.8760199609375 6.06833393554687  C 20.7203506933594 6.06833393554687  20.4608006054687 5.94524125976562  20.0977494335937 5.69875225585938  C 19.7344704882812 5.45256697265625  19.2481748144531 5.18018364257812  18.6385586230469 4.88160240234375  C 18.0287906054687 4.58340076171875  17.299195234375 4.31109344726562  16.4498483886719 4.06452849609375  C 15.6002737695312 3.818267265625  14.5919163867187 3.69487086914063  13.4245486035156 3.69487086914063  C 12.0365100585937 3.69487086914063  10.7914595019531 3.94781450195313  9.68909307617187 4.45362575195312  C 8.58665077148437 4.9594370703125  7.65271090820313 5.6598729296875  6.88750146484375 6.55485745117188  C 6.12206417968749 7.44976602539062  5.53545672851562 8.51340495117187  5.12676788085937 9.74554638671875  C 4.71823092773437 10.9779155957031  4.51396245117187 12.3136340625  4.51396245117187 13.7533092285156  C 4.51396245117187 15.361790625  4.73767062499999 16.788328828125  5.18523879882812 18.0335312792969  C 5.63265514648437 19.2785818359375  6.25183918945312 20.3292356933594  7.04317080078124 21.1853408203125  C 7.83427457031249 22.0412941210937  8.77778235351563 22.690093359375  9.87399787109374 23.1308273046875  C 10.9697578417969 23.5719409179687  12.1728156445312 23.792307890625  13.4829435742187 23.792307890625  C 14.2610622070312 23.792307890625  15.0490525488281 23.6983747949219  15.8467627734375 23.5101287988281  C 16.6443970507812 23.3222625390625  17.3868256640625 23.0402353417969  18.07442828125 22.6638194335937  L 18.07442828125 15.3291380175781  L 12.2378170019531 15.3291380175781  C 12.0171463085937 15.3291380175781  11.8517571582031 15.2191064257812  11.7417255664062 14.9984356640625  C 11.6313143066406 14.7779927441406  11.5763364160156 14.434229375  11.5763364160156 13.9672974511719  C 11.5763364160156 13.7210362207031  11.5891696582031 13.5100853417969  11.6152157421875 13.3349763769531  C 11.64111 13.159943359375  11.6832545800781 13.0173351074219  11.7417254980469 12.9069237792969  C 11.8000445214844 12.7968921875  11.8682352539062 12.715792265625  11.946069921875 12.6637759082031  C 12.0239045898437 12.6120633398437  12.1211029394531 12.5859412402344  12.2378928808594 12.5859412402344  L 20.2341307617187 12.5859412402344  C 20.3767390136719 12.5859412402344  20.5191953710937 12.6120633398437  20.662183359375 12.6637759082031  C 20.8047156640625 12.7157163183594  20.9345666210937 12.7935509179687  21.0512806835937 12.89727984375  C 21.1679187304687 13.0011605957031  21.258586640625 13.1437688476562  21.3235880664062 13.325180546875  C 21.3883616503906 13.5070478613281  21.4209383105469 13.7142778710937  21.4209383105469 13.9477818066406  L 21.4209383105469 23.5392882421875  C 21.4209383105469 23.8767488769531  21.3625433398437 24.1685718359375  21.2457533984375 24.4149090136719  C 21.1291153515625 24.6613980175781  20.882474453125 24.8788035253906  20.5065140917969 25.0666697851562  C 20.1300981835937 25.2547638183594  19.6437265625 25.4591082421875  19.04732328125 25.6794752148437  C 18.4506162792969 25.9001459082031  17.8343178222656 26.0880121679687  17.1990352148437 26.2436815039062  C 16.5633729394531 26.3993507714844  15.9214079980469 26.516064765625  15.2729124804687 26.5938994335937  C 14.6242651367187 26.6717341015625  13.9821483007812 26.7106134277344  13.3467897460937 26.7106134277344  C 11.4013032617187 26.7106134277344  9.66304685546874 26.4090706542969  8.13277972656249 25.8059090917969  C 6.60213292968749 25.2028234765625  5.30840721679686 24.3437568164062  4.25145069335937 23.2281774804687  C 3.19411450195312 22.1127500390625  2.38676041015624 20.7767278515625  1.82923652343749 19.2203386914062  C 1.27140891601562 17.6638735839844  0.992646972656239 15.9259208984375  0.992646972656239 14.006328671875  C 0.992646972656239 12.009053671875  1.29418974609374 10.1997209472656  1.89727536132812 8.57825441406249  C 2.50043692382812 6.95709160156248  3.34978376953124 5.57573552734373  4.44599928710937 4.43426193359373  C 5.54191108398436 3.29309212890623  6.8584176953125 2.40782742187498  8.39544310546874 1.77854382812498  C 9.93239256835937 1.14956395507811  11.6348071289062 0.834960097656229  13.5024589453125 0.834960097656229  C 14.4622170507812 0.834960097656229  15.363428359375 0.919477099609352  16.2067762597656 1.08790373046873  C 17.0496685449219 1.25663408203123  17.7987794921875 1.4545238769531  18.4538055175781 1.68126953124998  C 19.1086037011719 1.9083948535156  19.6600526953125 2.15488385742185  20.107544921875 2.42058478515623  C 20.5549612695312 2.68658943359373  20.8629586035156 2.90391892578123  21.0316889550781 3.07234555664061  C 21.2000395703125 3.24099996093748  21.3167535644531 3.43562450195311  21.3819068847656 3.65599147460936  Z " fill-rule="nonzero" fill="#95f204" stroke="none" transform="matrix(1 0 0 1 36 46 )" />
  </g>
</svg>