<?xml version="1.0" encoding="utf-8"?>
<svg version="1.1" xmlns:xlink="http://www.w3.org/1999/xlink" width="60px" height="60px" viewBox="65 20  60 60" xmlns="http://www.w3.org/2000/svg">
  <path d="M 95 20  C 111.8 20  125 33.2  125 50  C 125 66.8  111.8 80  95 80  C 78.2 80  65 66.8  65 50  C 65 33.2  78.2 20  95 20  Z " fill-rule="nonzero" fill="#ffffff" stroke="none" />
  <path d="M 95 20.5  C 111.52 20.5  124.5 33.48  124.5 50  C 124.5 66.52  111.52 79.5  95 79.5  C 78.48 79.5  65.5 66.52  65.5 50  C 65.5 33.48  78.48 20.5  95 20.5  Z " stroke-width="1" stroke="#797979" fill="none" />
  <path d="M 95 65  C 86.6 65  80 58.4  80 50  C 80 41.6  86.6 35  95 35  C 103.4 35  110 41.6  110 50  C 110 58.4  103.4 65  95 65  " fill-rule="nonzero" fill="#797979" stroke="none" />
</svg>