<?xml version="1.0" encoding="utf-8"?>
<svg version="1.1" xmlns:xlink="http://www.w3.org/1999/xlink" width="42px" height="53px" xmlns="http://www.w3.org/2000/svg">
  <g transform="matrix(1 0 0 1 -10 -34 )">
    <path d="M 23.3761078417969 52.0725060742188  C 19.936423984375 52.0725060742188  16.4515580664063 51.2981842578125  13.0758885253906 49.7633609765625  C 8.63756716796875 47.7450516601563  5.08785171875 44.1693660058594  3.0827553125 39.6943674511719  C 1.66829094726563 36.5386851464844  0.914775673828128 33.2921831054688  0.842712177734379 30.0444660449219  C 0.774065830078129 26.9727692480469  1.31298530273438 23.9831594824219  2.44443529296876 21.1575720214844  C 4.57748424804688 15.8309485449219  8.7279312890625 11.4736511621094  13.9198438671875 9.06852266601563  L 13.9198438671875 5.65480901367188  C 13.9198438671875 2.89278018554688  16.1667212304688 0.645826875000004  18.928370390625 0.645826875000004  L 27.8229340625 0.645826874999999  C 30.5845832226563 0.645826874999999  32.8314605859375 2.89270423828125  32.8314605859375 5.65480901367188  L 32.8314605859375 9.4432680078125  C 33.171730859375 9.97808694335938  33.2562479296875 10.6641708886719  32.9981406347656 11.2957325585937  C 32.5755554882813 12.3302879199219  31.3948229003906 12.8262274609375  30.3606472070313 12.4040219824219  C 29.4037746191406 12.0134059863281  28.7850461914063 11.0944256152344  28.7850461914063 10.0633633496094  L 28.7850461914063 5.65480901367187  C 28.7850461914063 5.13289926757812  28.3445400878906 4.69193748046875  27.8229340625 4.69193748046875  L 18.9283704589844 4.69193754882813  C 18.4067644335938 4.69193754882813  17.9654229785156 5.13289926757813  17.9654229785156 5.65480908203125  L 17.9654229785156 10.0629078027344  C 17.9654229785156 11.0939700683594  17.347529765625 12.0129504394531  16.3902016308594 12.4035664355469  C 11.7696332910156 14.2906579492188  8.05543999023438 18.0296065039063  6.20046952148438 22.6615652246094  C 4.27768798828125 27.4624061914063  4.48195646484375 32.9238164453125  6.77447157226563 38.0397168164063  C 8.37649840820313 41.6146431347656  11.2094517285156 44.4699976171875  14.7505104199219 46.079845859375  C 24.7172178125 50.6116446972656  33.7043476660156 46.5945417089844  38.1900532128906 40.6030964453125  C 38.859583046875 39.7088712597656  40.1273385546875 39.5271558398438  41.0216396191406 40.1966856738281  C 41.9158648046875 40.8662155078125  42.0983395605469 42.133971015625  41.4284300585937 43.0282720800781  C 38.4041174511719 47.067928125  34.0672469433594 50.0077237304688  29.2174270996094 51.3057778222656  C 27.3052766796875 51.8179678222656  25.3478682519531 52.0725060742188  23.3761078417969 52.0725060742188  Z " fill-rule="nonzero" fill="#95f204" stroke="none" transform="matrix(1 0 0 1 10 34 )" />
  </g>
</svg>