<?xml version="1.0" encoding="utf-8"?>
<svg version="1.1" xmlns:xlink="http://www.w3.org/1999/xlink" width="34px" height="60px" xmlns="http://www.w3.org/2000/svg">
  <g transform="matrix(1 0 0 1 -640 -486 )">
    <path d="M 32.8784722222222 27.36328125  C 33.6261574074074 28.10546875  34 28.984375  34 30  C 34 31.015625  33.6261574074074 31.89453125  32.8784722222222 32.63671875  L 6.43402777777778 58.88671875  C 5.68634259259259 59.62890625  4.80092592592593 60  3.77777777777778 60  C 2.75462962962963 60  1.86921296296296 59.62890625  1.12152777777778 58.88671875  C 0.373842592592593 58.14453125  0 57.265625  0 56.25  L 0 3.75  C 0 2.73437499999999  0.373842592592593 1.85546874999999  1.12152777777778 1.11328125  C 1.86921296296296 0.371093749999996  2.75462962962963 0  3.77777777777778 0  C 4.80092592592593 0  5.68634259259259 0.371093749999996  6.43402777777778 1.11328125  L 32.8784722222222 27.36328125  Z " fill-rule="nonzero" fill="#000000" stroke="none" transform="matrix(1 0 0 1 640 486 )" />
  </g>
</svg>