<?xml version="1.0" encoding="utf-8"?>
<svg version="1.1" xmlns:xlink="http://www.w3.org/1999/xlink" width="34px" height="60px" xmlns="http://www.w3.org/2000/svg">
  <g transform="matrix(1 0 0 1 -504 -486 )">
    <path d="M 32.8784722222222 1.11328125  C 33.6261574074074 1.85546874999999  34 2.73437499999999  34 3.75  L 34 56.25  C 34 57.265625  33.6261574074074 58.14453125  32.8784722222222 58.88671875  C 32.130787037037 59.62890625  31.2453703703704 60  30.2222222222222 60  C 29.1990740740741 60  28.3136574074074 59.62890625  27.5659722222222 58.88671875  L 1.12152777777778 32.63671875  C 0.373842592592593 31.89453125  0 31.015625  0 30  C 0 28.984375  0.373842592592593 28.10546875  1.12152777777778 27.36328125  L 27.5659722222222 1.11328125  C 28.3136574074074 0.371093749999996  29.1990740740741 0  30.2222222222222 0  C 31.2453703703704 0  32.130787037037 0.371093749999996  32.8784722222222 1.11328125  Z " fill-rule="nonzero" fill="#000000" stroke="none" transform="matrix(1 0 0 1 504 486 )" />
  </g>
</svg>