<?xml version="1.0" encoding="utf-8"?>
<svg version="1.1" xmlns:xlink="http://www.w3.org/1999/xlink" width="60px" height="60px" viewBox="510 817  60 60" xmlns="http://www.w3.org/2000/svg">
  <path d="M 540 817  C 556.8 817  570 830.2  570 847  C 570 863.8  556.8 877  540 877  C 523.2 877  510 863.8  510 847  C 510 830.2  523.2 817  540 817  Z " fill-rule="nonzero" fill="#ffffff" stroke="none" />
  <path d="M 540 817.5  C 556.52 817.5  569.5 830.48  569.5 847  C 569.5 863.52  556.52 876.5  540 876.5  C 523.48 876.5  510.5 863.52  510.5 847  C 510.5 830.48  523.48 817.5  540 817.5  Z " stroke-width="1" stroke="#797979" fill="none" />
  <path d="M 540 862  C 531.6 862  525 855.4  525 847  C 525 838.6  531.6 832  540 832  C 548.4 832  555 838.6  555 847  C 555 855.4  548.4 862  540 862  " fill-rule="nonzero" fill="#797979" stroke="none" />
</svg>