<?xml version="1.0" encoding="utf-8"?>
<svg version="1.1" xmlns:xlink="http://www.w3.org/1999/xlink" width="60px" height="60px" viewBox="927 817  60 60" xmlns="http://www.w3.org/2000/svg">
  <path d="M 957 817  C 973.8 817  987 830.2  987 847  C 987 863.8  973.8 877  957 877  C 940.2 877  927 863.8  927 847  C 927 830.2  940.2 817  957 817  Z " fill-rule="nonzero" fill="#ffffff" stroke="none" />
  <path d="M 957 817.5  C 973.52 817.5  986.5 830.48  986.5 847  C 986.5 863.52  973.52 876.5  957 876.5  C 940.48 876.5  927.5 863.52  927.5 847  C 927.5 830.48  940.48 817.5  957 817.5  Z " stroke-width="1" stroke="#797979" fill="none" />
  <path d="M 957 862  C 948.6 862  942 855.4  942 847  C 942 838.6  948.6 832  957 832  C 965.4 832  972 838.6  972 847  C 972 855.4  965.4 862  957 862  " fill-rule="nonzero" fill="#797979" stroke="none" />
</svg>