<?xml version="1.0" encoding="utf-8"?>
<svg version="1.1" xmlns:xlink="http://www.w3.org/1999/xlink" width="60px" height="60px" viewBox="928 84  60 60" xmlns="http://www.w3.org/2000/svg">
  <path d="M 958 84  C 974.8 84  988 97.2  988 114  C 988 130.8  974.8 144  958 144  C 941.2 144  928 130.8  928 114  C 928 97.2  941.2 84  958 84  Z " fill-rule="nonzero" fill="#ffffff" stroke="none" />
  <path d="M 958 84.5  C 974.52 84.5  987.5 97.48  987.5 114  C 987.5 130.52  974.52 143.5  958 143.5  C 941.48 143.5  928.5 130.52  928.5 114  C 928.5 97.48  941.48 84.5  958 84.5  Z " stroke-width="1" stroke="#797979" fill="none" />
  <path d="M 958 129  C 949.6 129  943 122.4  943 114  C 943 105.6  949.6 99  958 99  C 966.4 99  973 105.6  973 114  C 973 122.4  966.4 129  958 129  " fill-rule="nonzero" fill="#797979" stroke="none" />
</svg>