<?xml version="1.0" encoding="utf-8"?>
<svg version="1.1" xmlns:xlink="http://www.w3.org/1999/xlink" width="80px" height="80px" xmlns="http://www.w3.org/2000/svg">
  <g transform="matrix(1 0 0 1 -688 -982 )">
    <path d="M 26.0998376623377 37  L 26.0998376623377 36.5198863636364  L 26.0998376623377 43  L 37 43  L 37 53.9001623376623  L 43 53.9001623376623  L 43 43  L 53.9001623376623 43  L 53.9001623376623 37  L 43 37  L 43 26.0998376623377  L 37 26.0998376623377  L 37 37  L 26.0998376623377 37  Z M 56.5178571428571 24.1923701298701  C 55.7061688311688 21.4630681818182  52.6724837662338 18.1655844155844  50.1156655844156 17.2828733766234  C 48.5227272727273 16.7248376623377  47.6806006493507 14.9898538961039  48.2284902597403 13.3969155844156  C 48.7763798701299 11.8039772727273  50.5215097402597 10.9618506493506  52.1144480519481 11.5097402597403  C 56.5787337662338 13.0519480519481  61.0024350649351 17.8814935064935  62.3721590909091 22.4472402597403  C 62.8287337662338 24.0604707792208  61.9155844155844 25.7345779220779  60.3125 26.2114448051948  C 58.7094155844156 26.6883116883117  57.0150162337662 25.7954545454545  56.5178571428571 24.1923701298701  Z M 11 33.8920454545455  L 11 61  L 73.6140422077922 61  C 76.9926948051948 61.387987012987  79.7219967532468 64.1274350649351  79.7219967532468 67.4959415584416  L 79.7219967532468 73.6038961038961  C 79.7219967532468 76.9825487012987  76.9825487012987 79.7118506493507  73.6140422077922 79  L 6.38595779220779 79  C 3.00730519480519 79.7118506493507  0.278003246753245 76.9724025974026  0.278003246753245 73.6038961038961  L 0.278003246753245 67.4959415584416  C 0.278003246753245 64.117288961039  3.0174512987013 61.387987012987  7 61.387987012987  L 7 33.8920454545454  C 6.38595779220779 15.3246753246753  21.4326298701299 0.278003246753241  40 0.278003246753241  C 58.557224025974 0.278003246753241  73.6140422077922 15.3246753246753  73 33.8920454545454  L 73 52.2260551948052  C 73.6140422077922 53.9103084415584  73.3603896103896 55.523538961039  71.6659902597402 55.523538961039  C 69.981737012987 55.523538961039  69.4845779220779 53.9103084415584  69 52.2260551948052  L 69 33.8920454545455  C 69.4845779220779 18.7033279220779  55.1887175324675 4.40746753246753  40 4.40746753246753  C 24.8112824675325 4.40746753246753  10.5154220779221 18.7033279220779  11 33.8920454545455  Z M 5 65  L 5 75  L 75.5316558441558 75  L 75.5316558441558 65  L 5 65  Z " fill-rule="nonzero" fill="#ffffff" stroke="none" transform="matrix(1 0 0 1 688 982 )" />
  </g>
</svg>