<?xml version="1.0" encoding="utf-8"?>
<svg version="1.1" xmlns:xlink="http://www.w3.org/1999/xlink" width="36px" height="50px" xmlns="http://www.w3.org/2000/svg">
  <g transform="matrix(1 0 0 1 -1844 -992 )">
    <path d="M 35.1724137933055 49.3555555556641  C 34.6965517241379 49.7111111113281  34.0689655171067 49.8888888891602  33.4482758619343 49.8888888891602  C 32.8275862067619 49.8888888891602  32.1999999997306 49.7111111113281  31.7241379311692 49.3555555556641  L 0.827586206694503 26.2888888891602  C -0.124137931034482 25.5777777783203  -0.124137931034482 24.4222222226562  0.827586206694503 23.7111111108398  L 31.7241379311692 0.644444444335938  C 32.6758620688982 -0.0666666665039063  34.2206896549704 -0.0666666665039063  35.1724137933055 0.644444444335938  C 36.1241379310345 1.35555555517578  36.1241379310345 2.51111111083984  35.1724137933055 3.22222222216797  L 6.00000000020205 25  L 35.1724137933055 46.777777777832  C 36.1241379310345 47.4888888886719  36.1241379310345 48.6444444443359  35.1724137933055 49.3555555556641  Z " fill-rule="nonzero" fill="#ffffff" stroke="none" transform="matrix(1 0 0 1 1844 992 )" />
  </g>
</svg>