<?xml version="1.0" encoding="utf-8"?>
<svg version="1.1" xmlns:xlink="http://www.w3.org/1999/xlink" width="200px" height="200px" xmlns="http://www.w3.org/2000/svg">
  <defs>
    <filter x="1701px" y="25px" width="200px" height="200px" filterUnits="userSpaceOnUse" id="filter374">
      <feOffset dx="0" dy="0" in="SourceAlpha" result="shadowOffsetInner" />
      <feGaussianBlur stdDeviation="5" in="shadowOffsetInner" result="shadowGaussian" />
      <feComposite in2="shadowGaussian" operator="atop" in="SourceAlpha" result="shadowComposite" />
      <feColorMatrix type="matrix" values="0 0 0 0 0  0 0 0 0 0  0 0 0 0 0  0 0 0 0.698039215686274 0  " in="shadowComposite" />
    </filter>
    <g id="widget375">
      <path d="M 1801 35  C 1851.4 35  1891 74.6  1891 125  C 1891 175.4  1851.4 215  1801 215  C 1750.6 215  1711 175.4  1711 125  C 1711 74.6  1750.6 35  1801 35  Z " fill-rule="nonzero" fill="#673ab7" stroke="none" />
      <path d="M 1801 35.5  C 1851.12 35.5  1890.5 74.88  1890.5 125  C 1890.5 175.12  1851.12 214.5  1801 214.5  C 1750.88 214.5  1711.5 175.12  1711.5 125  C 1711.5 74.88  1750.88 35.5  1801 35.5  Z " stroke-width="1" stroke="#ffffff" fill="none" />
    </g>
  </defs>
  <g transform="matrix(1 0 0 1 -1701 -25 )">
    <use xlink:href="#widget375" filter="url(#filter374)" />
    <use xlink:href="#widget375" />
  </g>
</svg>