<?xml version="1.0" encoding="utf-8"?>
<svg version="1.1" xmlns:xlink="http://www.w3.org/1999/xlink" width="35px" height="35px" xmlns="http://www.w3.org/2000/svg">
  <defs>
    <filter x="-2px" y="-2px" width="35px" height="35px" filterUnits="userSpaceOnUse" id="filter330">
      <feOffset dx="3" dy="3" in="SourceAlpha" result="shadowOffsetInner" />
      <feGaussianBlur stdDeviation="2.5" in="shadowOffsetInner" result="shadowGaussian" />
      <feComposite in2="shadowGaussian" operator="atop" in="SourceAlpha" result="shadowComposite" />
      <feColorMatrix type="matrix" values="0 0 0 0 0  0 0 0 0 0  0 0 0 0 0  0 0 0 0.349019607843137 0  " in="shadowComposite" />
    </filter>
    <g id="widget331">
      <path d="M 12.5 1  C 18.94 1  24 6.06  24 12.5  C 24 18.94  18.94 24  12.5 24  C 6.06 24  1 18.94  1 12.5  C 1 6.06  6.06 1  12.5 1  Z " fill-rule="nonzero" fill="#871cdb" stroke="none" fill-opacity="0" />
      <path d="M 12.5 1  C 18.94 1  24 6.06  24 12.5  C 24 18.94  18.94 24  12.5 24  C 6.06 24  1 18.94  1 12.5  C 1 6.06  6.06 1  12.5 1  Z " stroke-width="2" stroke="#c280ff" fill="none" />
    </g>
  </defs>
  <g transform="matrix(1 0 0 1 2 2 )">
    <use xlink:href="#widget331" filter="url(#filter330)" />
    <use xlink:href="#widget331" />
  </g>
</svg>