<?xml version="1.0" encoding="utf-8"?>
<svg version="1.1" xmlns:xlink="http://www.w3.org/1999/xlink" width="35px" height="35px" xmlns="http://www.w3.org/2000/svg">
  <defs>
    <filter x="319px" y="-3px" width="35px" height="35px" filterUnits="userSpaceOnUse" id="filter332">
      <feOffset dx="2" dy="2" in="SourceAlpha" result="shadowOffsetInner" />
      <feGaussianBlur stdDeviation="2.5" in="shadowOffsetInner" result="shadowGaussian" />
      <feComposite in2="shadowGaussian" operator="atop" in="SourceAlpha" result="shadowComposite" />
      <feColorMatrix type="matrix" values="0 0 0 0 0  0 0 0 0 0  0 0 0 0 0  0 0 0 0.349019607843137 0  " in="shadowComposite" />
    </filter>
    <g id="widget333">
      <path d="M 334.5 1  C 340.94 1  346 6.06  346 12.5  C 346 18.94  340.94 24  334.5 24  C 328.06 24  323 18.94  323 12.5  C 323 6.06  328.06 1  334.5 1  Z " fill-rule="nonzero" fill="#c280ff" stroke="none" fill-opacity="0" />
      <path d="M 334.5 1  C 340.94 1  346 6.06  346 12.5  C 346 18.94  340.94 24  334.5 24  C 328.06 24  323 18.94  323 12.5  C 323 6.06  328.06 1  334.5 1  Z " stroke-width="2" stroke="#c280ff" fill="none" />
    </g>
  </defs>
  <g transform="matrix(1 0 0 1 -319 3 )">
    <use xlink:href="#widget333" filter="url(#filter332)" />
    <use xlink:href="#widget333" />
  </g>
</svg>