<?xml version="1.0" encoding="utf-8"?>
<svg version="1.1" xmlns:xlink="http://www.w3.org/1999/xlink" width="481px" height="522px" xmlns="http://www.w3.org/2000/svg">
  <g transform="matrix(1 0 0 1 -495 -203 )">
    <path d="M 362.002604166667 19.8080357142857  L 459.705729166667 110.691964285714  C 465.551215277778 116.129464285714  470.561631944444 123.508928571429  474.736979166667 132.830357142857  C 478.912326388889 142.151785714286  481 150.696428571429  481 158.464285714286  L 481 494.035714285714  C 481 501.803571428571  478.077256944444 508.40625  472.231770833333 513.84375  C 466.386284722222 519.28125  459.288194444444 522  450.9375 522  L 30.0625 522  C 21.7118055555556 522  14.6137152777778 519.28125  8.76822916666667 513.84375  C 2.92274305555556 508.40625  0 501.803571428571  0 494.035714285714  L 0 27.9642857142857  C 0 20.1964285714286  2.92274305555556 13.59375  8.76822916666667 8.15625  C 14.6137152777778 2.71875000000002  21.7118055555556 0  30.0625 0  L 310.645833333333 0  C 318.996527777778 0  328.182291666667 1.94196428571431  338.203125 5.82589285714287  C 348.223958333333 9.70982142857142  356.157118055556 14.3705357142857  362.002604166667 19.8080357142857  Z M 333.505859375 46.0245535714286  C 331.000651041667 43.6941964285714  326.720920138889 41.5580357142857  320 39.6160714285714  L 320 150  L 438.411458333333 150  C 436.323784722222 143.511160714286  434.02734375 139.530133928571  431.522135416667 137.199776785714  L 333.505859375 46.0245535714286  Z M 40 484  L 441 484  L 441 187  L 310.645833333333 187  C 302.295138888889 186.428571428571  295.197048611111 183.709821428571  289.3515625 178.272321428571  C 283.506076388889 172.834821428571  280.583333333333 166.232142857143  280 158.464285714286  L 280 38  L 40 38  L 40 484  Z M 121 251.678571428571  L 121 233.035714285714  C 120.25 230.316964285714  121.189453125 228.083705357143  123.068359375 226.3359375  C 124.947265625 224.588169642857  127.348090277778 223.714285714286  130.270833333333 224  L 350.729166666667 224  C 353.651909722222 223.714285714286  356.052734375 224.588169642857  357.931640625 226.3359375  C 359.810546875 228.083705357143  360.75 230.316964285714  360 233.035714285714  L 360 251.678571428571  C 360.75 254.397321428571  359.810546875 256.630580357143  357.931640625 258.378348214286  C 356.052734375 260.126116071429  353.651909722222 261  350.729166666667 261  L 130.270833333333 261  C 127.348090277778 261  124.947265625 260.126116071429  123.068359375 258.378348214286  C 121.189453125 256.630580357143  120.25 254.397321428571  121 251.678571428571  Z M 130.270833333333 298  L 350.729166666667 298  C 353.651909722222 298.285714285714  356.052734375 299.159598214286  357.931640625 300.907366071429  C 359.810546875 302.655133928571  360.75 304.888392857143  360 307.607142857143  L 360 326.25  C 360.75 328.96875  359.810546875 331.202008928571  357.931640625 332.949776785714  C 356.052734375 334.697544642857  353.651909722222 335.571428571429  350.729166666667 335  L 130.270833333333 335  C 127.348090277778 335.571428571429  124.947265625 334.697544642857  123.068359375 332.949776785714  C 121.189453125 331.202008928571  120.25 328.96875  121 326.25  L 121 307.607142857143  C 120.25 304.888392857143  121.189453125 302.655133928571  123.068359375 300.907366071429  C 124.947265625 299.159598214286  127.348090277778 298.285714285714  130.270833333333 298  Z M 130.270833333333 372  L 350.729166666667 372  C 353.651909722222 372.857142857143  356.052734375 373.731026785714  357.931640625 375.478794642857  C 359.810546875 377.2265625  360.75 379.459821428571  360 382.178571428571  L 360 400.821428571429  C 360.75 403.540178571429  359.810546875 405.7734375  357.931640625 407.521205357143  C 356.052734375 409.268973214286  353.651909722222 410.142857142857  350.729166666667 410  L 130.270833333333 410  C 127.348090277778 410.142857142857  124.947265625 409.268973214286  123.068359375 407.521205357143  C 121.189453125 405.7734375  120.25 403.540178571429  121 400.821428571429  L 121 382.178571428571  C 120.25 379.459821428571  121.189453125 377.2265625  123.068359375 375.478794642857  C 124.947265625 373.731026785714  127.348090277778 372.857142857143  130.270833333333 372  Z " fill-rule="nonzero" fill="#000000" stroke="none" transform="matrix(1 0 0 1 495 203 )" />
  </g>
</svg>