<?xml version="1.0" encoding="utf-8"?>
<svg version="1.1" xmlns:xlink="http://www.w3.org/1999/xlink" width="200px" height="238px" xmlns="http://www.w3.org/2000/svg">
  <g transform="matrix(1 0 0 1 -75 -40 )">
    <path d="M 198.671875 172.069661458333  C 199.557291666667 179.868706597222  200 188.158420138889  200 196.938802083333  C 200 208.198350694444  196.744791666667 217.856770833333  190.234375 225.9140625  C 183.723958333333 233.971354166667  175.885416666667 238  166.71875 238  L 33.28125 238  C 24.1145833333333 238  16.2760416666667 233.971354166667  9.765625 225.9140625  C 3.25520833333333 217.856770833333  0 208.198350694444  0 196.938802083333  C 0 188.158420138889  0.442708333333334 179.868706597222  1.328125 172.069661458333  C 2.21354166666667 164.270616319444  3.85416666666667 156.419921875  6.25 148.517578125  C 8.64583333333334 140.615234375  11.6927083333333 133.849175347222  15.390625 128.219401041667  C 19.0885416666667 122.589626736111  23.984375 117.992838541667  30.078125 114.429036458333  C 36.171875 110.865234375  43.1770833333333 109.083333333333  51.09375 109.083333333333  C 64.7395833333333 122.305555555556  81.0416666666667 128.916666666667  100 128.916666666667  C 118.958333333333 128.916666666667  135.260416666667 122.305555555556  148.90625 109.083333333333  C 156.822916666667 109.083333333333  163.828125 110.865234375  169.921875 114.429036458333  C 176.015625 117.992838541667  180.911458333333 122.589626736111  184.609375 128.219401041667  C 188.307291666667 133.849175347222  191.354166666667 140.615234375  193.75 148.517578125  C 196.145833333333 156.419921875  197.786458333333 164.270616319444  198.671875 172.069661458333  Z M 142.421875 17.431640625  C 154.140625 29.052734375  160 43.0755208333333  160 59.5  C 160 75.9244791666667  154.140625 89.947265625  142.421875 101.568359375  C 130.703125 113.189453125  116.5625 119  100 119  C 83.4375 119  69.296875 113.189453125  57.578125 101.568359375  C 45.859375 89.947265625  40 75.9244791666667  40 59.5  C 40 43.0755208333333  45.859375 29.052734375  57.578125 17.431640625  C 69.296875 5.810546875  83.4375 0  100 0  C 116.5625 0  130.703125 5.810546875  142.421875 17.431640625  Z " fill-rule="nonzero" fill="#333333" stroke="none" transform="matrix(1 0 0 1 75 40 )" />
  </g>
</svg>