<?xml version="1.0" encoding="utf-8"?>
<svg version="1.1" xmlns:xlink="http://www.w3.org/1999/xlink" width="110px" height="126px" xmlns="http://www.w3.org/2000/svg">
  <defs>
    <filter x="1559px" y="35px" width="110px" height="126px" filterUnits="userSpaceOnUse" id="filter344">
      <feOffset dx="0" dy="0" in="SourceAlpha" result="shadowOffsetInner" />
      <feGaussianBlur stdDeviation="2.5" in="shadowOffsetInner" result="shadowGaussian" />
      <feComposite in2="shadowGaussian" operator="atop" in="SourceAlpha" result="shadowComposite" />
      <feColorMatrix type="matrix" values="0 0 0 0 0  0 0 0 0 0  0 0 0 0 0  0 0 0 0.349019607843137 0  " in="shadowComposite" />
    </filter>
    <g id="widget345">
      <path d="M 75.2604166666667 4.40178571428572  L 95.5729166666667 24.5982142857143  C 96.7881944444445 25.8065476190476  97.8298611111111 27.4464285714286  98.6979166666667 29.5178571428571  C 99.5659722222222 31.5892857142857  100 33.4880952380952  100 35.2142857142857  L 100 109.785714285714  C 100 111.511904761905  99.3923611111111 112.979166666667  98.1770833333333 114.1875  C 96.9618055555556 115.395833333333  95.4861111111111 116  93.75 116  L 6.25 116  C 4.51388888888889 116  3.03819444444444 115.395833333333  1.82291666666667 114.1875  C 0.607638888888889 112.979166666667  0 111.511904761905  0 109.785714285714  L 0 6.21428571428572  C 0 4.48809523809524  0.607638888888889 3.02083333333333  1.82291666666667 1.8125  C 3.03819444444444 0.604166666666671  4.51388888888889 0  6.25 0  L 64.5833333333333 0  C 66.3194444444445 0  68.2291666666667 0.431547619047624  70.3125 1.29464285714286  C 72.3958333333333 2.15773809523809  74.0451388888889 3.19345238095238  75.2604166666667 4.40178571428572  Z M 69.3359375 10.2276785714286  C 68.8151041666667 9.70982142857142  67.9253472222222 9.23511904761903  66 8.80357142857142  L 66 34  L 91.1458333333333 34  C 90.7118055555556 31.891369047619  90.234375 31.0066964285714  89.7135416666667 30.4888392857143  L 69.3359375 10.2276785714286  Z M 9 107  L 91 107  L 91 42  L 64.5833333333333 42  C 62.8472222222222 41.4285714285714  61.3715277777778 40.8244047619048  60.15625 39.6160714285714  C 58.9409722222222 38.4077380952381  58.3333333333333 36.9404761904762  58 35.2142857142857  L 58 9  L 9 9  L 9 107  Z M 25 50  L 50 50  C 52.2569444444445 49.7142857142857  54.2100694444445 50.5342261904762  55.859375 52.1741071428571  C 57.5086805555556 53.8139880952381  58.3333333333333 55.7559523809524  58 58  L 58 82.8571428571429  C 58.3333333333333 85.1011904761905  57.5086805555556 87.0431547619048  55.859375 88.6830357142857  C 54.2100694444445 90.3229166666667  52.2569444444445 91.1428571428571  50 91  L 25 91  C 22.7430555555556 91.1428571428571  20.7899305555556 90.3229166666667  19.140625 88.6830357142857  C 17.4913194444444 87.0431547619048  16.6666666666667 85.1011904761905  17 82.8571428571429  L 17 58  C 16.6666666666667 55.7559523809524  17.4913194444444 53.8139880952381  19.140625 52.1741071428571  C 20.7899305555556 50.5342261904762  22.7430555555556 49.7142857142857  25 50  Z M 81.25 49.7142857142857  C 81.4236111111111 49.7142857142857  81.6840277777778 49.7574404761905  82.03125 49.84375  C 82.8993055555556 50.1889880952381  83.3333333333333 50.8363095238095  83 51.7857142857143  L 83 89.0714285714286  C 83.3333333333333 90.0208333333333  82.8993055555556 90.6681547619048  82.03125 91.0133928571429  C 81.6840277777778 91.0997023809524  81.4236111111111 91.1428571428571  81.25 91.1428571428571  C 80.6423611111111 91.1428571428571  80.1432291666667 90.9486607142857  79.7526041666667 90.5602678571429  L 62.5 73.3415178571429  L 62.5 67.515625  L 79.7526041666667 50.296875  C 80.1432291666667 49.9084821428571  80.6423611111111 49.7142857142857  81.25 49.7142857142857  Z " fill-rule="nonzero" fill="#000000" stroke="none" transform="matrix(1 0 0 1 1564 40 )" />
    </g>
  </defs>
  <g transform="matrix(1 0 0 1 -1559 -35 )">
    <use xlink:href="#widget345" filter="url(#filter344)" />
    <use xlink:href="#widget345" />
  </g>
</svg>