<?xml version="1.0" encoding="utf-8"?>
<svg version="1.1" xmlns:xlink="http://www.w3.org/1999/xlink" width="120px" height="120px" xmlns="http://www.w3.org/2000/svg">
  <defs>
    <filter x="315px" y="370px" width="120px" height="120px" filterUnits="userSpaceOnUse" id="filter324">
      <feOffset dx="0" dy="0" in="SourceAlpha" result="shadowOffsetInner" />
      <feGaussianBlur stdDeviation="5" in="shadowOffsetInner" result="shadowGaussian" />
      <feComposite in2="shadowGaussian" operator="atop" in="SourceAlpha" result="shadowComposite" />
      <feColorMatrix type="matrix" values="0 0 0 0 0  0 0 0 0 0  0 0 0 0 0  0 0 0 0.349019607843137 0  " in="shadowComposite" />
    </filter>
    <g id="widget325">
      <path d="M 325.5 430  A 49.5 49.5 0 0 1 375 380.5 A 49.5 49.5 0 0 1 424.5 430 A 49.5 49.5 0 0 1 375 479.5 A 49.5 49.5 0 0 1 325.5 430 Z " fill-rule="nonzero" fill="#b39ddb" stroke="none" fill-opacity="0" />
      <path d="M 325.5 430  A 49.5 49.5 0 0 1 375 380.5 A 49.5 49.5 0 0 1 424.5 430 A 49.5 49.5 0 0 1 375 479.5 A 49.5 49.5 0 0 1 325.5 430 Z " stroke-width="1" stroke="#797979" fill="none" />
    </g>
  </defs>
  <g transform="matrix(1 0 0 1 -315 -370 )">
    <use xlink:href="#widget325" filter="url(#filter324)" />
    <use xlink:href="#widget325" />
  </g>
</svg>