<?xml version="1.0" encoding="utf-8"?>
<svg version="1.1" xmlns:xlink="http://www.w3.org/1999/xlink" width="37px" height="34px" xmlns="http://www.w3.org/2000/svg">
  <g transform="matrix(1 0 0 1 -39 -41 )">
    <path d="M 30.579560546875 29.804806577621  C 29.3982998657227 28.1270955141129  29.2732577514649 25.7205544354839  30.4683505249023 23.6852885584677  C 31.6842309570313 21.6156092489919  33.9076409912109 20.5291494455645  36.0128854370117 20.7765662802419  C 36.31853515625 19.4840007560484  36.4853106689453 18.1363287550403  36.4853106689453 16.747345640121  C 36.4853106689453 15.52345703125  36.3602685546875 14.3339068800403  36.1170608520508 13.1787701612903  C 33.9909497070313 13.4537777217742  31.7188507080078 12.3604202368952  30.4960147094727 10.2564774445565  C 29.2524700927735 8.11797127016129  29.453786315918 5.58082409274193  30.8227682495117 3.90311302923387  C 28.9466622924805 2.1771931703629  26.6885534667969 0.850064264112899  24.1873950195313 0.05248235887096  C 23.4091619873047 2.08774823588709  21.2762533569336 3.55238092237903  18.7679022216797 3.55238092237903  C 16.2595510864258 3.55238092237903  14.1266424560547 2.0877482358871  13.3484094238281 0.05248235887096  C 10.8679595947266 0.836268901209668  8.63071746826172 2.14967741935483  6.76172515869142 3.84800655241936  C 8.12351440429688 5.53261529737903  8.3110775756836 8.07666015624999  7.06041931152345 10.2082686491935  C 5.83062774658204 12.3054637096774  3.55181030273438 13.3917735635081  1.4326547241211 13.109943296371  C 1.18241241455078 14.2788004032258  1.05049377441407 15.5027639868952  1.05049377441407 16.747345640121  C 1.05049377441407 18.1088130040323  1.21031372070313 19.4357919606855  1.50205230712891 20.7079643397177  C 3.60042022705079 20.4672202620968  5.82390930175782 21.5674754284274  7.03283416748048 23.6371547379032  C 8.22089233398438 25.6792433215726  8.08873657226564 28.0790366683468  6.88676727294923 29.7566727570564  C 8.76982879638673 31.4343838205645  11.0140264892578 32.7271742691532  13.494397277832 33.4902677671371  C 14.3698501586914 31.6406394909274  16.3987414550781 30.3480739667339  18.7610256958008 30.3480739667339  C 21.1232308959961 30.3480739667339  23.1522012329102 31.6406394909274  24.0276541137696 33.4902677671371  C 26.4873162841797 32.7339969758064  28.7106472778321 31.4618995715726  30.579560546875 29.804806577621  Z M 26.4732470703125 16.747345640121  C 26.4731680297852 20.9553061995968  23.0200454711914 24.3728824344758  18.7678231811523 24.3728824344758  C 14.5155218505859 24.3728824344758  11.0623992919922 20.9553811743952  11.0623992919922 16.747345640121  C 11.0623992919922 12.5392351310484  14.5155218505859 9.12180884576613  18.7678231811523 9.12180884576613  C 23.0201245117187 9.12180884576613  26.4732470703125 12.5322624747984  26.4732470703125 16.747345640121  Z " fill-rule="nonzero" fill="#c92a52" stroke="none" transform="matrix(1 0 0 1 39 41 )" />
  </g>
</svg>