<?xml version="1.0" encoding="utf-8"?>
<svg version="1.1" xmlns:xlink="http://www.w3.org/1999/xlink" width="75px" height="77px" xmlns="http://www.w3.org/2000/svg">
  <g transform="matrix(1 0 0 1 -2 -3 )">
    <path d="M 74.2463423073508 53.661304773448  C 68.2599716729391 67.8196296392973  54.3350862258603 77.0184533075916  38.9170130171342 76.9999722041365  C 17.7375042308205 76.9986760900709  0.568809771011591 59.8895264806627  0.568809771011591 38.7847690548336  C 0.568809771011591 17.6790951039869  17.7389396562569 0.569565833464517  38.9193682537886 0.569565833464517  C 54.1694784040953 0.569565833464517  67.9704616667251 9.57330299623514  74.0694234286222 23.5013998940169  C 74.185804445455 23.7712200723562  74.2458242358988 24.0618308712191  74.2458242358988 24.3555178298469  C 74.2458242358988 25.5501079728225  73.2739875647603 26.5185146233336  72.0751662769144 26.5185146233336  C 71.2168320564139 26.5185146233336  70.4391075661581 26.0145158091787  70.0910179554332 25.2327014418494  C 64.6810531178419 12.8746510580456  52.4365751590468 4.8854950998498  38.9061317319911 4.8854950998498  C 20.1158295640748 4.8854950998498  4.883279980837 20.0642826047159  4.883279980837 38.7882658880451  C 4.883279980837 57.5122491713743  20.1158295640748 72.6910366762405  38.9061317319911 72.6910366762405  C 52.5828305086606 72.6910366762405  64.9300543783946 64.5304392889488  70.2497913041548 51.9752070200094  C 70.5825755990532 51.1606701647825  71.3772399184053 50.6280804874975  72.2598065836415 50.6280804874975  C 73.4583773232744 50.6280804874975  74.4300108849555 51.5962847454099  74.4300108849555 52.7906252244626  C 74.4300108849555 53.0903999622164  74.3674645195155 53.3869005501898  74.2463423073508 53.661304773448  Z " fill-rule="nonzero" fill="#ffffff" stroke="none" transform="matrix(1 0 0 1 2 3 )" />
  </g>
</svg>