<?xml version="1.0" encoding="utf-8"?>
<svg version="1.1" xmlns:xlink="http://www.w3.org/1999/xlink" width="80px" height="78px" xmlns="http://www.w3.org/2000/svg">
  <g transform="matrix(1 0 0 1 0 -2 )">
    <path d="M 79.43968078125 17.646464609375  C 79.752812109375 16.31313125  78.904327265625 14.969696953125  77.550791953125 14.666666640625  L 67.682105078125 12.45454546875  C 66.61139796875 12.21212125  65.52048890625 12.6969696875  64.964933359375 13.636363671875  C 64.4093778125 14.575757578125  64.5406909375 15.767676796875  65.267963671875 16.58585859375  C 70.84372125 22.73737375  73.924529296875 30.747474765625  73.91442828125 39.050505078125  C 73.91442828125 57.525252578125  58.884125234375 72.555555546875  40.399276796875 72.555555546875  C 35.16695359375 72.555555546875  30.16695359375 71.383838359375  25.510387890625 69.080808046875  C 24.702307109375 68.656565625  23.732610078125 68.707070703125  22.975034375 69.202020234375  C 22.217458671875 69.696969765625  21.78311515625 70.5656565625  21.84372125 71.4747475  C 21.90432734375 72.3838384375  22.459882890625 73.181818203125  23.278064609375 73.5656565625  C 28.5911959375 76.212121171875  34.449781796875 77.58585859375  40.38917578125 77.5656565625  C 61.6316 77.5656565625  78.91442828125 60.28282828125  78.91442828125 39.0404040625  C 78.91442828125 31.838383828125  76.91442828125 24.84848484375  73.187155546875 18.818181796875  L 76.43968078125 19.54545453125  C 77.793216171875 19.84848484375  79.13665046875 19  79.43968078125 17.646464609375  Z M 6.89422625 39.06060609375  C 6.89422625 20.58585859375  21.924529296875 5.54545460937499  40.399276796875 5.54545453125  C 45.78311515625 5.54545453125  50.9346303125 6.78787875  55.69220609375 9.2222221875  C 56.924529296875 9.858585859375  58.439680859375 9.37373734375  59.0659434375 8.141414140625  C 59.702307109375 6.9090909375  59.21745859375 5.393939375  57.985135390625 4.767676796875  C 52.5406909375 1.989898984375  46.52048890625 0.535353593750001  40.399276796875 0.535353515625001  C 19.156852578125 0.535353515625001  1.8841253125 17.818181796875  1.884125234375 39.06060609375  C 1.884125234375 44.96969703125  3.21745859375 50.707070703125  5.762913125 55.929292890625  L 3.581094921875 55.41414140625  C 2.22755953125 55.101010078125  0.884125234375004 55.93939390625  0.560892890625004 57.28282828125  C 0.247761562500004 58.636363671875  1.086145390625 59.97979796875  2.429579765625 60.3030303125  L 10.318468671875 62.161616171875  C 11.3285696875 62.404040390625  12.38917578125 61.989898984375  12.964933359375 61.121212109375  C 13.550791953125 60.26262625  13.5406909375 59.131313125  12.944731328125 58.272727265625  C 8.99523640625 52.646464609375  6.884125234375 45.93939390625  6.89422625 39.06060609375  Z " fill-rule="nonzero" fill="#fffefe" stroke="none" transform="matrix(1 0 0 1 0 2 )" />
  </g>
</svg>