<?xml version="1.0" encoding="utf-8"?>
<svg version="1.1" xmlns:xlink="http://www.w3.org/1999/xlink" width="43px" height="41px" xmlns="http://www.w3.org/2000/svg">
  <g transform="matrix(1 0 0 1 -18 -19 )">
    <path d="M 5 40.78787875  L 4.52048890625 40.78787875  L 8 40.78787875  L 8 30.272727265625  L 5 30.272727265625  L 5 40.78787875  Z M 15 25.28282828125  L 15 40.78787875  L 19 40.78787875  L 19 25.28282828125  L 15 25.28282828125  Z M 26.863923203125 21.333333359375  L 26.863923203125 40.78787875  L 30 40.78787875  L 30 21.333333359375  L 26.863923203125 21.333333359375  Z M 38 15.555555546875  L 38 40.78787875  L 41 40.78787875  L 41 15.555555546875  L 38 15.555555546875  Z M 35.793216171875 7.929292890625  L 40.00533734375 11.353535390625  L 42.36897375 0.313131328125007  L 29.490185859375 2.93939390625  L 33.429579765625 6.0909090625  L 22.38917578125 15.818181796875  L 16.87402421875 11.616161640625  L 0.843721250000002 25.80808078125  L 3.207357578125 27.646464609375  L 16.87402421875 15.555555546875  L 22.38917578125 19.75757578125  L 35.793216171875 7.929292890625  Z " fill-rule="nonzero" fill="#fffefe" stroke="none" transform="matrix(1 0 0 1 18 19 )" />
  </g>
</svg>