<?xml version="1.0" encoding="utf-8"?>
<svg version="1.1" xmlns:xlink="http://www.w3.org/1999/xlink" width="70px" height="70px" xmlns="http://www.w3.org/2000/svg">
  <g transform="matrix(1 0 0 1 -5 -5 )">
    <path d="M 58.1481481119792 5  L 11.8518518880208 5  C 11.8518518880208 4.90740738932292  11.8518518066406 4.90740738932292  11.8518518066406 4.90740738932292  C 8.01654105890846 4.90740738932292  4.90740738932292 8.01654105890846  4.90740738932292 11.8518518066406  C 4.90740738932292 11.8518518066406  4.90740738932292 11.8518518880208  5 11.8518518880208  L 5 58.1481481119792  C 4.90740738932292 58.1481481119792  4.90740738932292 58.1481481933594  4.90740738932292 58.1481481933594  C 4.90740738932292 61.9834589410915  8.01654105890846 65.0925926106771  11.8518518066406 65.0925926106771  C 11.8518525084112 65.0925926106771  11.8518511862502 65.0925926106771  11.8518518880208 65  L 58.1481481119792 65  C 58.1481474102088 65.0925926106771  58.1481488951298 65.0925926106771  58.1481481933594 65.0925926106771  C 61.9834589410915 65.0925926106771  65.0925926106771 61.9834589410915  65.0925926106771 58.1481481933594  C 65.0925926106771 58.148147491589  65.0925926106771 58.1481488137495  65 58.1481481119792  L 65 11.8518518880208  C 65.0925926106771 11.8518525897914  65.0925926106771 11.85185110487  65.0925926106771 11.8518518066406  C 65.0925926106771 8.01654105890846  61.9834589410915 4.90740738932292  58.1481481933594 4.90740738932292  C 58.1481481933594 4.90740738932292  58.1481481119792 4.90740738932292  58.1481481119792 5  Z M 11.8518518066406 0.277777750651039  C 11.8518518066406 0.277777750651039  11.8518518880208 0.277777750651039  11.8518518880208 1  L 58.1481481119792 1  C 58.1481481119792 0.277777750651039  58.1481481933594 0.277777750651039  58.1481481933594 0.277777750651039  C 64.5403327878947 0.277777750651039  69.722222249349 5.45966721210534  69.722222249349 11.8518518066406  C 69.722222249349 11.8518518066406  69.722222249349 11.8518518880208  69 11.8518518880208  L 69 58.1481481119792  C 69.722222249349 58.1481481119792  69.722222249349 58.1481481933594  69.722222249349 58.1481481933594  C 69.722222249349 64.5403327878947  64.5403327878947 69.722222249349  58.1481481933594 69.722222249349  C 58.1481481933594 69.722222249349  58.1481481119792 69.722222249349  58.1481481119792 69  L 11.8518518880208 69  C 11.8518518880208 69.722222249349  11.8518518066406 69.722222249349  11.8518518066406 69.722222249349  C 5.45966721210534 69.722222249349  0.277777750651039 64.5403327878947  0.277777750651039 58.1481481933594  C 0.277777750651039 58.1481481933594  0.277777750651039 58.1481481119792  1 58.1481481119792  L 1 11.8518518880208  C 0.277777750651039 11.8518518880208  0.277777750651039 11.8518518066406  0.277777750651039 11.8518518066406  C 0.277777750651039 5.45966721210534  5.45966721210534 0.277777750651039  11.8518518066406 0.277777750651039  Z " fill-rule="nonzero" fill="#ffffff" stroke="none" transform="matrix(1 0 0 1 5 5 )" />
  </g>
</svg>