<?xml version="1.0" encoding="utf-8"?>
<svg version="1.1" xmlns:xlink="http://www.w3.org/1999/xlink" width="130px" height="130px" xmlns="http://www.w3.org/2000/svg">
  <defs>
    <filter x="-15px" y="490px" width="130px" height="130px" filterUnits="userSpaceOnUse" id="filter396">
      <feOffset dx="0" dy="0" in="SourceAlpha" result="shadowOffsetInner" />
      <feGaussianBlur stdDeviation="10" in="shadowOffsetInner" result="shadowGaussian" />
      <feComposite in2="shadowGaussian" operator="atop" in="SourceAlpha" result="shadowComposite" />
      <feColorMatrix type="matrix" values="0 0 0 0 0  0 0 0 0 0  0 0 0 0 0  0 0 0 0.349019607843137 0  " in="shadowComposite" />
    </filter>
    <g id="widget397">
      <path d="M 50 510  C 75.2 510  95 529.8  95 555  C 95 580.2  75.2 600  50 600  C 24.8 600  5 580.2  5 555  C 5 529.8  24.8 510  50 510  Z " fill-rule="nonzero" fill="#320b86" stroke="none" />
      <path d="M 50 510.5  C 74.92 510.5  94.5 530.08  94.5 555  C 94.5 579.92  74.92 599.5  50 599.5  C 25.08 599.5  5.5 579.92  5.5 555  C 5.5 530.08  25.08 510.5  50 510.5  Z " stroke-width="1" stroke="#797979" fill="none" />
    </g>
  </defs>
  <g transform="matrix(1 0 0 1 15 -490 )">
    <use xlink:href="#widget397" filter="url(#filter396)" />
    <use xlink:href="#widget397" />
  </g>
</svg>