<?xml version="1.0" encoding="utf-8"?>
<svg version="1.1" xmlns:xlink="http://www.w3.org/1999/xlink" width="100px" height="100px" xmlns="http://www.w3.org/2000/svg">
  <defs>
    <filter x="2526px" y="985px" width="100px" height="100px" filterUnits="userSpaceOnUse" id="filter251">
      <feOffset dx="0" dy="0" in="SourceAlpha" result="shadowOffsetInner" />
      <feGaussianBlur stdDeviation="2.5" in="shadowOffsetInner" result="shadowGaussian" />
      <feComposite in2="shadowGaussian" operator="atop" in="SourceAlpha" result="shadowComposite" />
      <feColorMatrix type="matrix" values="0 0 0 0 0  0 0 0 0 0  0 0 0 0 0  0 0 0 0.349019607843137 0  " in="shadowComposite" />
    </filter>
    <g id="widget252">
      <path d="M 2576 990  C 2601.2 990  2621 1009.8  2621 1035  C 2621 1060.2  2601.2 1080  2576 1080  C 2550.8 1080  2531 1060.2  2531 1035  C 2531 1009.8  2550.8 990  2576 990  Z " fill-rule="nonzero" fill="#ffffff" stroke="none" />
      <path d="M 2576 990.5  C 2600.92 990.5  2620.5 1010.08  2620.5 1035  C 2620.5 1059.92  2600.92 1079.5  2576 1079.5  C 2551.08 1079.5  2531.5 1059.92  2531.5 1035  C 2531.5 1010.08  2551.08 990.5  2576 990.5  Z " stroke-width="1" stroke="#797979" fill="none" />
    </g>
  </defs>
  <g transform="matrix(1 0 0 1 -2526 -985 )">
    <use xlink:href="#widget252" filter="url(#filter251)" />
    <use xlink:href="#widget252" />
  </g>
</svg>