<?xml version="1.0" encoding="utf-8"?>
<svg version="1.1" xmlns:xlink="http://www.w3.org/1999/xlink" width="90px" height="90px" xmlns="http://www.w3.org/2000/svg">
  <defs>
    <path d="M 0 0  L 1024 0  L 1024 1024  L 0 1024  Z " fill-rule="evenodd" fill="black" id="path253" />
    <clipPath id="clip254">
      <use xlink:href="#path253" />
    </clipPath>
    <defs>
      <style type="text/css"></style>
    </defs>
    <path d="M530.241411 1023.99965A493.692218 493.692218 0 1 1 982.763412 332.865583a27.94319 27.94319 0 0 1-51.214582 22.366232 437.981031 437.981031 0 1 0 2.043912 345.479437 27.93735 27.93735 0 1 1 51.448172 21.782256 492.874653 492.874653 0 0 1-454.799503 301.506142z" fill="" p-id="13748"></path>
    <path d="M929.212932 0m27.913991 0l0.058397 0q27.913991 0 27.913991 27.913991l0 316.747881q0 27.913991-27.913991 27.913991l-0.058397 0q-27.913991 0-27.913991-27.913991l0-316.747881q0-27.913991 27.913991-27.913991Z" fill="" p-id="13749"></path>
    <path d="M783.277652 420.403392a55.594392 55.594392 0 0 1-10.861929 57.463111 79.65415 79.65415 0 0 0 0 106.283397 55.594392 55.594392 0 0 1 10.861929 57.463111 275.052087 275.052087 0 0 1-40.119062 69.376195 55.127212 55.127212 0 0 1-54.192853 19.504756 78.95338 78.95338 0 0 0-56.411957 8.701223 80.705305 80.705305 0 0 0-35.739252 44.440475 55.244007 55.244007 0 0 1-44.498873 37.958356c-12.964239 1.109552-27.096426 2.160706-40.119062 2.160706a251.634701 251.634701 0 0 1-40.119062-3.21186 55.360802 55.360802 0 0 1-44.440476-37.958356 78.369406 78.369406 0 0 0-92.151209-53.141699 54.543238 54.543238 0 0 1-54.426442-19.62155 296.191972 296.191972 0 0 1-40.119063-69.434593 55.711187 55.711187 0 0 1 10.920327-57.346316 79.537355 79.537355 0 0 0 0-106.224999 55.711187 55.711187 0 0 1-10.803532-57.463112 275.402472 275.402472 0 0 1 40.002268-69.434592 56.353559 56.353559 0 0 1 55.18561-19.679948 78.894983 78.894983 0 0 0 56.411956-8.642826 80.997292 80.997292 0 0 0 35.79765-44.498872 55.010417 55.010417 0 0 1 44.440475-37.899959 329.303338 329.303338 0 0 1 80.238125 0 55.010417 55.010417 0 0 1 44.440475 37.899959 76.559084 76.559084 0 0 0 35.79765 44.498872 78.778188 78.778188 0 0 0 56.470354 8.642826 53.900866 53.900866 0 0 1 54.25125 19.504755 374.210993 374.210993 0 0 1 39.184703 70.66094z m-40.119062 16.292894a244.860595 244.860595 0 0 0-34.688098-58.39747 9.869173 9.869173 0 0 0-10.861929-3.270259A120.824367 120.824367 0 0 1 610.888319 362.064319a117.612506 117.612506 0 0 1-55.360803-69.609785 9.2268 9.2268 0 0 0-8.642825-7.591672 243.459056 243.459056 0 0 0-68.325041 0 10.62834 10.62834 0 0 0-8.701223 7.591672 117.378916 117.378916 0 0 1-55.302405 69.434592 122.634689 122.634689 0 0 1-87.596206 12.964239 12.088276 12.088276 0 0 0-10.803532 3.270258 266.292467 266.292467 0 0 0-34.688098 58.397471 11.679494 11.679494 0 0 0 2.160706 11.679494 122.634689 122.634689 0 0 1 0 164.797662 10.277955 10.277955 0 0 0-2.160706 10.86193 257.708038 257.708038 0 0 0 33.578546 58.397471 14.07379 14.07379 0 0 0 10.861929 4.321413 122.634689 122.634689 0 0 1 143.132201 82.398831 10.511545 10.511545 0 0 0 8.642826 7.591671c10.86193 1.051154 22.775014 2.160706 33.636943 2.160706 11.679494 0 22.775014-1.109552 34.688098-2.160706a10.511545 10.511545 0 0 0 8.642825-7.591671 117.670904 117.670904 0 0 1 55.302405-69.376195 122.634689 122.634689 0 0 1 87.596206-13.022636 12.205071 12.205071 0 0 0 10.86193-3.270259 268.628365 268.628365 0 0 0 34.688097-58.39747 12.146674 12.146674 0 0 0-2.160706-11.679495 122.634689 122.634689 0 0 1 0-164.797662 11.679494 11.679494 0 0 0 1.927116-11.737892z m-235.575397 203.048006a108.444103 108.444103 0 1 1 108.444103-108.444103 108.794488 108.794488 0 0 1-108.444103 108.444103z m0-43.389321a65.054782 65.054782 0 1 0-65.054783-65.054782 65.229975 65.229975 0 0 0 65.054783 64.762795z" fill="" p-id="13750"></path>
    <filter x="-50.00%" y="-50.00%" width="200.00%" height="200.00%" filterUnits="objectBoundingBox" id="filter255">
      <feColorMatrix type="matrix" values="1 0 0 0 0  0 1 0 0 0  0 0 1 0 0  0 0 0 1 0  " in="SourceGraphic" />
    </filter>
    <filter x="2527px" y="789px" width="90px" height="90px" filterUnits="userSpaceOnUse" id="filter256">
      <feOffset dx="0" dy="0" in="SourceAlpha" result="shadowOffsetInner" />
      <feGaussianBlur stdDeviation="5" in="shadowOffsetInner" result="shadowGaussian" />
      <feComposite in2="shadowGaussian" operator="atop" in="SourceAlpha" result="shadowComposite" />
      <feColorMatrix type="matrix" values="0 0 0 0 0  0 0 0 0 0  0 0 0 0 0  0 0 0 0.349019607843137 0  " in="shadowComposite" />
    </filter>
    <g id="widget257">
      <g transform="matrix(0.068359375 0 0 0.068359375 2537 799 )" clip-path="url(#clip254)" filter="url(#filter255)">
        <path d="M530.241411 1023.99965A493.692218 493.692218 0 1 1 982.763412 332.865583a27.94319 27.94319 0 0 1-51.214582 22.366232 437.981031 437.981031 0 1 0 2.043912 345.479437 27.93735 27.93735 0 1 1 51.448172 21.782256 492.874653 492.874653 0 0 1-454.799503 301.506142z" fill="" p-id="13748"></path>
        <path d="M929.212932 0m27.913991 0l0.058397 0q27.913991 0 27.913991 27.913991l0 316.747881q0 27.913991-27.913991 27.913991l-0.058397 0q-27.913991 0-27.913991-27.913991l0-316.747881q0-27.913991 27.913991-27.913991Z" fill="" p-id="13749"></path>
        <path d="M783.277652 420.403392a55.594392 55.594392 0 0 1-10.861929 57.463111 79.65415 79.65415 0 0 0 0 106.283397 55.594392 55.594392 0 0 1 10.861929 57.463111 275.052087 275.052087 0 0 1-40.119062 69.376195 55.127212 55.127212 0 0 1-54.192853 19.504756 78.95338 78.95338 0 0 0-56.411957 8.701223 80.705305 80.705305 0 0 0-35.739252 44.440475 55.244007 55.244007 0 0 1-44.498873 37.958356c-12.964239 1.109552-27.096426 2.160706-40.119062 2.160706a251.634701 251.634701 0 0 1-40.119062-3.21186 55.360802 55.360802 0 0 1-44.440476-37.958356 78.369406 78.369406 0 0 0-92.151209-53.141699 54.543238 54.543238 0 0 1-54.426442-19.62155 296.191972 296.191972 0 0 1-40.119063-69.434593 55.711187 55.711187 0 0 1 10.920327-57.346316 79.537355 79.537355 0 0 0 0-106.224999 55.711187 55.711187 0 0 1-10.803532-57.463112 275.402472 275.402472 0 0 1 40.002268-69.434592 56.353559 56.353559 0 0 1 55.18561-19.679948 78.894983 78.894983 0 0 0 56.411956-8.642826 80.997292 80.997292 0 0 0 35.79765-44.498872 55.010417 55.010417 0 0 1 44.440475-37.899959 329.303338 329.303338 0 0 1 80.238125 0 55.010417 55.010417 0 0 1 44.440475 37.899959 76.559084 76.559084 0 0 0 35.79765 44.498872 78.778188 78.778188 0 0 0 56.470354 8.642826 53.900866 53.900866 0 0 1 54.25125 19.504755 374.210993 374.210993 0 0 1 39.184703 70.66094z m-40.119062 16.292894a244.860595 244.860595 0 0 0-34.688098-58.39747 9.869173 9.869173 0 0 0-10.861929-3.270259A120.824367 120.824367 0 0 1 610.888319 362.064319a117.612506 117.612506 0 0 1-55.360803-69.609785 9.2268 9.2268 0 0 0-8.642825-7.591672 243.459056 243.459056 0 0 0-68.325041 0 10.62834 10.62834 0 0 0-8.701223 7.591672 117.378916 117.378916 0 0 1-55.302405 69.434592 122.634689 122.634689 0 0 1-87.596206 12.964239 12.088276 12.088276 0 0 0-10.803532 3.270258 266.292467 266.292467 0 0 0-34.688098 58.397471 11.679494 11.679494 0 0 0 2.160706 11.679494 122.634689 122.634689 0 0 1 0 164.797662 10.277955 10.277955 0 0 0-2.160706 10.86193 257.708038 257.708038 0 0 0 33.578546 58.397471 14.07379 14.07379 0 0 0 10.861929 4.321413 122.634689 122.634689 0 0 1 143.132201 82.398831 10.511545 10.511545 0 0 0 8.642826 7.591671c10.86193 1.051154 22.775014 2.160706 33.636943 2.160706 11.679494 0 22.775014-1.109552 34.688098-2.160706a10.511545 10.511545 0 0 0 8.642825-7.591671 117.670904 117.670904 0 0 1 55.302405-69.376195 122.634689 122.634689 0 0 1 87.596206-13.022636 12.205071 12.205071 0 0 0 10.86193-3.270259 268.628365 268.628365 0 0 0 34.688097-58.39747 12.146674 12.146674 0 0 0-2.160706-11.679495 122.634689 122.634689 0 0 1 0-164.797662 11.679494 11.679494 0 0 0 1.927116-11.737892z m-235.575397 203.048006a108.444103 108.444103 0 1 1 108.444103-108.444103 108.794488 108.794488 0 0 1-108.444103 108.444103z m0-43.389321a65.054782 65.054782 0 1 0-65.054783-65.054782 65.229975 65.229975 0 0 0 65.054783 64.762795z" fill="" p-id="13750"></path>
      </g>
    </g>
  </defs>
  <g transform="matrix(1 0 0 1 -2527 -789 )">
    <use xlink:href="#widget257" filter="url(#filter256)" />
    <use xlink:href="#widget257" />
  </g>
</svg>