<?xml version="1.0" encoding="utf-8"?>
<svg version="1.1" xmlns:xlink="http://www.w3.org/1999/xlink" width="335px" height="224px" xmlns="http://www.w3.org/2000/svg">
  <g transform="matrix(1 0 0 1 -1335 -791 )">
    <path d="M 1335 791  L 1670 791  L 1670 1015  L 1335 1015  L 1335 791  " fill-rule="nonzero" fill="#cccccc" stroke="none" />
    <path d="M 1351 807  L 1654 807  L 1654 999  L 1351 999  L 1351 807  " fill-rule="nonzero" fill="#ffffff" stroke="none" />
    <path d="M 1526 858.2  C 1516.592 858.2  1509.2 850.808  1509.2 841.4  C 1509.2 831.992  1516.592 824.6  1526 824.6  C 1535.408 824.6  1542.8 831.992  1542.8 841.4  C 1542.8 850.808  1535.408 858.2  1526 858.2  " fill-rule="nonzero" fill="#cccccc" stroke="none" />
    <path d="M 1357 994  L 1357 894.45  L 1430 849.2  L 1532.2 921.383880597015  L 1590.6 876.35  L 1649 921.383880597015  L 1649 994  L 1357 994  " fill-rule="nonzero" fill="#169bd5" stroke="none" />
  </g>
</svg>