<?xml version="1.0" encoding="utf-8"?>
<svg version="1.1" xmlns:xlink="http://www.w3.org/1999/xlink" width="90px" height="90px" xmlns="http://www.w3.org/2000/svg">
  <defs>
    <path d="M 0 0  L 1024 0  L 1024 1024  L 0 1024  Z " fill-rule="evenodd" fill="black" id="path382" />
    <clipPath id="clip383">
      <use xlink:href="#path382" />
    </clipPath>
    <defs>
      <style type="text/css"></style>
    </defs>
    <path d="M63.844 63.868V959.48h256.05v-63.919H127.857V127.912h768.149v255.8h64.18V63.868z" fill="#0F589E" p-id="2335"></path>
    <path d="M191.869 320.145h640.124v63.567H191.869zM191.869 575.968h256.05v63.919h-256.05z" fill="#0F589E" p-id="2336"></path>
    <path d="M882.849 827.91c15.383-27.605 43.513-42.096 70.148-38.796 3.867-17.24 5.977-35.215 5.977-53.741 0-16.324-1.582-32.19-4.659-47.597-26.899 3.668-55.645-10.915-71.116-38.977-15.733-28.523-13.186-62.363 4.134-84.74-23.736-23.02-52.305-40.721-83.949-51.359-9.846 27.146-36.831 46.681-68.566 46.681s-58.72-19.535-68.566-46.681c-31.382 10.454-59.687 27.972-83.333 50.624 17.229 22.469 19.602 56.401 3.779 84.832-15.559 27.972-44.39 42.461-71.201 38.702-3.166 15.59-4.835 31.915-4.835 48.515 0 18.159 2.022 35.858 5.713 52.826 26.548-3.211 54.679 11.464 69.974 39.069 15.031 27.237 13.359 59.245-1.848 81.621 23.824 22.377 52.217 39.62 83.598 49.798 11.076-24.67 36.745-41.91 66.632-41.91 29.886 0 55.556 17.24 66.632 41.91 31.119-10.087 59.248-27.054 82.893-49.156-14.945-22.377-16.527-54.475-1.407-81.621z m-148.032 9.171c-53.799 0-97.487-45.582-97.487-101.708 0-56.127 43.688-101.708 97.487-101.708 53.799 0 97.487 45.488 97.487 101.708-0.001 56.125-43.689 101.708-97.487 101.708z m0 0" fill="#C92A52" p-id="2337"></path>
    <filter x="-50.00%" y="-50.00%" width="200.00%" height="200.00%" filterUnits="objectBoundingBox" id="filter384">
      <feColorMatrix type="matrix" values="1 0 0 0 0  0 1 0 0 0  0 0 1 0 0  0 0 0 1 0  " in="SourceGraphic" />
    </filter>
    <filter x="2527px" y="887px" width="90px" height="90px" filterUnits="userSpaceOnUse" id="filter385">
      <feOffset dx="0" dy="0" in="SourceAlpha" result="shadowOffsetInner" />
      <feGaussianBlur stdDeviation="5" in="shadowOffsetInner" result="shadowGaussian" />
      <feComposite in2="shadowGaussian" operator="atop" in="SourceAlpha" result="shadowComposite" />
      <feColorMatrix type="matrix" values="0 0 0 0 0  0 0 0 0 0  0 0 0 0 0  0 0 0 0.349019607843137 0  " in="shadowComposite" />
    </filter>
    <g id="widget386">
      <g transform="matrix(0.068359375 0 0 0.068359375 2537 897 )" clip-path="url(#clip383)" filter="url(#filter384)">
        <path d="M63.844 63.868V959.48h256.05v-63.919H127.857V127.912h768.149v255.8h64.18V63.868z" fill="#0F589E" p-id="2335"></path>
        <path d="M191.869 320.145h640.124v63.567H191.869zM191.869 575.968h256.05v63.919h-256.05z" fill="#0F589E" p-id="2336"></path>
        <path d="M882.849 827.91c15.383-27.605 43.513-42.096 70.148-38.796 3.867-17.24 5.977-35.215 5.977-53.741 0-16.324-1.582-32.19-4.659-47.597-26.899 3.668-55.645-10.915-71.116-38.977-15.733-28.523-13.186-62.363 4.134-84.74-23.736-23.02-52.305-40.721-83.949-51.359-9.846 27.146-36.831 46.681-68.566 46.681s-58.72-19.535-68.566-46.681c-31.382 10.454-59.687 27.972-83.333 50.624 17.229 22.469 19.602 56.401 3.779 84.832-15.559 27.972-44.39 42.461-71.201 38.702-3.166 15.59-4.835 31.915-4.835 48.515 0 18.159 2.022 35.858 5.713 52.826 26.548-3.211 54.679 11.464 69.974 39.069 15.031 27.237 13.359 59.245-1.848 81.621 23.824 22.377 52.217 39.62 83.598 49.798 11.076-24.67 36.745-41.91 66.632-41.91 29.886 0 55.556 17.24 66.632 41.91 31.119-10.087 59.248-27.054 82.893-49.156-14.945-22.377-16.527-54.475-1.407-81.621z m-148.032 9.171c-53.799 0-97.487-45.582-97.487-101.708 0-56.127 43.688-101.708 97.487-101.708 53.799 0 97.487 45.488 97.487 101.708-0.001 56.125-43.689 101.708-97.487 101.708z m0 0" fill="#C92A52" p-id="2337"></path>
      </g>
    </g>
  </defs>
  <g transform="matrix(1 0 0 1 -2527 -887 )">
    <use xlink:href="#widget386" filter="url(#filter385)" />
    <use xlink:href="#widget386" />
  </g>
</svg>