<?xml version="1.0" encoding="utf-8"?>
<svg version="1.1" xmlns:xlink="http://www.w3.org/1999/xlink" width="37px" height="35px" xmlns="http://www.w3.org/2000/svg">
  <g transform="matrix(1 0 0 1 -39 -40 )">
    <path d="M 30.579560546875 30.6814185357863  C 29.3982998657227 28.9543630292339  29.2732577514649 26.4770413306452  30.4683505249023 24.3819146925403  C 31.6842309570313 22.2513624621976  33.9076409912109 21.1329479586693  36.0128854370117 21.3876417590726  C 36.31853515625 20.0570596018145  36.4853106689453 18.6697501890121  36.4853106689453 17.2399146295363  C 36.4853106689453 15.980029296875  36.3602685546875 14.7554923765121  36.1170608520508 13.5663810483871  C 33.9909497070313 13.8494770665323  31.7188507080078 12.7239620085685  30.4960147094727 10.5581385458669  C 29.2524700927735 8.35673513104839  29.453786315918 5.74496597782258  30.8227682495117 4.01791047127016  C 28.9466622924805 2.24122826360887  26.6885534667969 0.875066154233867  24.1873950195313 0.0540259576612823  C 23.4091619873047 2.14915259576612  21.2762533569336 3.65686271421371  18.7679022216797 3.65686271421371  C 16.2595510864258 3.65686271421371  14.1266424560547 2.14915259576613  13.3484094238281 0.0540259576612823  C 10.8679595947266 0.860865045362894  8.63071746826172 2.21290322580644  6.76172515869142 3.96118321572581  C 8.12351440429688 5.69533927671371  8.3110775756836 8.31420898437499  7.06041931152345 10.5085118447581  C 5.83062774658204 12.6673891129032  3.55181030273438 13.7856492565524  1.4326547241211 13.4955298639113  C 1.18241241455078 14.6987651209677  1.05049377441407 15.9587276335685  1.05049377441407 17.2399146295363  C 1.05049377441407 18.6414251512097  1.21031372070313 20.0074329007056  1.50205230712891 21.3170221144153  C 3.60042022705079 21.069197328629  5.82390930175782 22.2018129410282  7.03283416748048 24.332365171371  C 8.22089233398438 26.4345151839718  8.08873657226564 28.904890688004  6.88676727294923 30.6318690146169  C 8.76982879638673 32.3589245211693  11.0140264892578 33.689738218246  13.494397277832 34.4752756426411  C 14.3698501586914 32.5712465347782  16.3987414550781 31.2406643775202  18.7610256958008 31.2406643775202  C 21.1232308959961 31.2406643775202  23.1522012329102 32.5712465347782  24.0276541137696 34.4752756426411  C 26.4873162841797 33.6967615927419  28.7106472778321 32.3872495589718  30.579560546875 30.6814185357863  Z M 26.4732470703125 17.2399146295363  C 26.4731680297852 21.571638734879  23.0200454711914 25.0897319178427  18.7678231811523 25.0897319178427  C 14.5155218505859 25.0897319178427  11.0623992919922 21.5717159148185  11.0623992919922 17.2399146295363  C 11.0623992919922 12.9080361643145  14.5155218505859 9.39009734122984  18.7678231811523 9.39009734122984  C 23.0201245117187 9.39009734122984  26.4732470703125 12.9008584299395  26.4732470703125 17.2399146295363  Z " fill-rule="nonzero" fill="#c92a52" stroke="none" transform="matrix(1 0 0 1 39 40 )" />
  </g>
</svg>