<?xml version="1.0" encoding="utf-8"?>
<svg version="1.1" xmlns:xlink="http://www.w3.org/1999/xlink" width="43px" height="46px" xmlns="http://www.w3.org/2000/svg">
  <g transform="matrix(1 0 0 1 -18 -19 )">
    <path d="M 39.4533248481188 8.87258706745427  C 40.6580022207155 10.5652938321888  41.6742896056744 12.3823506265246  42.4844195240543 14.2919903353659  C 43.0692227816856 15.800227668367  42.7439014525742 17.5066394025646  41.644205546618 18.6991744393102  C 39.5486027191481 21.0191310006906  39.5486027191481 24.5307169809215  41.644205546618 26.8506735423018  C 42.7439014525742 28.0432085790475  43.0692227816856 29.749620313245  42.4844195240543 31.2578576462462  C 41.7175127442802 33.1721910471853  40.6719601550502 34.964837740069  39.3810484143709 36.5787262604802  C 38.3784059016108 37.8190186485563  36.7588762442698 38.3969503637553  35.1890128590152 38.0746607669589  C 33.701409282024 37.7497720489847  32.1450496218104 37.987789179219  30.8253206671464 38.7420087580983  C 29.5161563725143 39.506710628216  28.5332171956258 40.718560983497  28.0607455098684 42.1504102801067  C 27.568084922659 43.6928541175566  26.2324721262328 44.8224629252891  24.6185783704256 45.0616599542683  C 23.6157422430099 45.1467580259146  22.5225606314248 45.2273772113186  21.5152072607422 45.2273772113186  C 20.4757758640356 45.2275519989948  19.4380002672171 45.145176433988  18.4118361510588 44.9810407688643  C 16.8005841825424 44.738254120879  15.4679916644413 43.609718740232  14.9741862548828 42.0697910947028  C 14.0342689606065 39.0755188371505  10.9305433310662 37.3008928527449  7.84591890573602 37.994041504859  C 6.2677320522454 38.332495839467  4.633130378045 37.748211262648  3.63581429995888 36.4891493792874  C 2.36265830462947 34.8617274290921  1.31863500349277 33.0701960452956  0.532443112921468 31.163801878811  C -0.0452386271766887 29.6571078281453  0.281419270052934 27.9563120918772  1.37717441097862 26.7655754706555  C 3.47420872197148 24.4478733836452  3.47420872197148 20.9362573409165  1.37717441097862 18.6185552539063  C 0.280999562628723 17.424115430856  -0.0423318068127377 15.7189742734917  0.541477676809212 14.211371073266  C 1.3055468772724 12.2961710790264  2.34802506086221 10.502068114341  3.63581429995888 8.88602364948552  C 4.66239988901032 7.63139111489878  6.3090163972254 7.04918108850756  7.90464360968339 7.37665263767149  C 9.39167225754395 7.7033300638369  10.9481595902215 7.46689095280522  12.2683357241982 6.71378345607851  C 13.5786762458728 5.94723283221811  14.5629365168498 4.7341413422231  15.037428202097 3.30090312452363  C 15.5270692984312 1.75904231925388  16.8621877105954 0.630107289268777  18.475078020919 0.394132259908536  C 20.5362576087311 0.143286494125944  22.6206407298276 0.143286494125944  24.6818203176398 0.394132259908536  C 26.2947106279634 0.630107289268773  27.6298290401276 1.75904231925388  28.1194701364618 3.30090312452363  C 28.5639736287843 4.75007023799294  29.5561056084925 5.97286353466959  30.8885626143606 6.71378345607851  C 32.2096948410392 7.46885541035774  33.7683405582939 7.70537754290012  35.2567720494963 7.37665263767149  C 36.8296480657128 7.02936123617323  38.4635577998624 7.61179685506355  39.4533248481188 8.87258706745427  Z M 39.3584619659745 15.5415882459985  L 39.3810484143709 15.5415882459985  C 38.7008292314521 13.9322939908838  37.7977211351305 12.4248457945583  36.6977842547286 11.062742652439  C 36.4989890929968 10.8119614749138  36.1629662414608 10.7116540413404  35.8575702772924 10.8119272470465  C 33.5748297893185 11.325031338803  31.1810011665813 10.9702108616109  29.1494099555407 9.81762355135289  C 27.07216574153 8.66240142823207  25.534648520284 6.74560047634527  24.8670287613076 4.47883954554116  C 24.8084093490939 4.15391259354351  24.531009647175 3.91232377909408  24.1984714203845 3.89658954935213  C 22.4454909877394 3.65026456611538  20.6662346087347 3.65026456611538  18.9132541760896 3.89658954935213  C 18.5928492469908 3.94236558089294  18.3293600002146 4.17029960024725  18.2401795145456 4.47883954554116  C 17.5722652796091 6.74072430591795  16.0363613635914 8.65271173796137  13.9623156409334 9.80418696932165  C 11.9074010463329 10.9607773216662  9.49110605070547 11.3153463546986  7.18639612870065 10.7984907417111  C 6.88314638789842 10.7400954444097  6.57037762107629 10.8339658615707  6.35069939453124 11.0493060704078  C 5.2671211957956 12.4225712891126  4.36536614017165 13.9277610454021  3.66743523488897 15.5281517406631  C 3.55442711280262 15.8346367525716  3.61845816954617 16.1778058206222  3.83457455078125 16.423920859375  C 7.11509005607348 20.0092516237438  7.11509005607347 25.4778924873462  3.83457455078125 29.0632232517149  C 3.61983107754831 29.2848620050002  3.55459029426619 29.6100388434393  3.66743523488898 29.8962885766006  C 4.33187271556434 31.4954856753395  5.20514321640146 33.0012952662126  6.26487107627467 34.375134246856  C 6.48323085235792 34.6011688393363  6.78979478036623 34.7220974274829  7.10508505371093 34.7065688376525  C 11.8876249364063 33.6640972460014  16.6845476827082 36.4021104677552  18.1769375673314 41.0262200338224  C 18.2634026832544 41.3347149713811  18.5258005310768 41.5632385380831  18.8454949856085 41.6084699533156  C 19.6857090403988 41.6890891387195  20.6072340928248 41.7741872103659  21.4474480702611 41.7741872103659  C 22.3509039949116 41.7741872103659  23.2091871774774 41.6890891387195  24.1307122299034 41.6084699533156  C 24.4504066549245 41.5632385098944  24.7128044662153 41.3347149485671  24.7992695708265 41.0262200338224  C 25.470401586601 38.7671244614972  27.005595588588 36.8576280812312  29.0771334444387 35.7053514195884  C 31.1314560636503 34.547235825161  33.547783778634 34.1910648243665  35.8530529566715 34.7065688376525  C 36.1576765861968 34.7649249456922  36.4717745845075 34.6711623903884  36.6932670114617 34.4557534322599  C 37.775218834917 33.0813858685302  38.6768458495465 31.5764098178451  39.37653109375 29.9769078387005  C 39.4818990368299 29.6698296125988  39.4185876830578 29.3305177030947  39.2093917778577 29.0811386432927  C 35.9288762725655 25.4958078789239  35.9288762725655 20.0271670153215  39.2093917778577 16.4418362509528  C 39.4210257467205 16.1911982965143  39.4781597353343 15.8461611035352  39.3584619659745 15.5415882459985  Z M 29.5469305345395 22.7973182302782  C 29.5320535207081 27.3846662642479  25.7850553292389 31.0997841534641  21.1583421805613 31.1145345903201  C 16.5254527600509 31.1145345903201  12.7697538265831 27.3907899869725  12.7697538265831 22.7973182302782  C 12.7697538265831 18.2038464735839  16.5254527600509 14.4801018702363  21.1583421805613 14.4801018702363  C 25.7912316010716 14.4801018702363  29.5469305345395 18.2038464735839  29.5469305345395 22.7973182302782  Z M 21.1583421805613 27.7643580525915  L 21.1583421805613 27.7867522537157  C 23.9375767775114 27.7867522537157  26.1905916359992 25.5529065517096  26.1905916359992 22.7973182302782  C 26.1905916359992 20.0417299088468  23.9375767775114 17.8078842068407  21.1583421032072 17.8078842068407  C 18.3791074289031 17.8078842068407  16.1260925704153 20.0417299088468  16.1260925704153 22.7973182302782  C 16.145902956704 25.5410932873252  18.3909610272481 27.7570590489033  21.1583421805613 27.7643580525915  Z " fill-rule="nonzero" fill="#ffffff" stroke="none" transform="matrix(1 0 0 1 18 19 )" />
  </g>
</svg>