<?xml version="1.0" encoding="utf-8"?>
<svg version="1.1" xmlns:xlink="http://www.w3.org/1999/xlink" width="32px" height="44px" xmlns="http://www.w3.org/2000/svg">
  <g transform="matrix(1 0 0 1 -24 -18 )">
    <path d="M 31.2643678162716 43.4328888889844  C 30.8413793103448 43.7457777779687  30.2835249040948 43.9022222224609  29.7318007661638 43.9022222224609  C 29.1800766282328 43.9022222224609  28.6222222219828 43.7457777779687  28.1992337165948 43.4328888889844  L 0.735632183728448 23.1342222224609  C -0.110344827586207 22.5084444449219  -0.110344827586207 21.4915555559375  0.735632183728448 20.8657777775391  L 28.1992337165948 0.567111111015625  C 29.0452107279095 -0.0586666665234375  30.4183908044181 -0.0586666665234375  31.2643678162716 0.567111111015625  C 32.1103448275862 1.19288888855469  32.1103448275862 2.20977777753906  31.2643678162716 2.83555555550781  L 5.33333333351293 22  L 31.2643678162716 41.1644444444922  C 32.1103448275862 41.7902222220312  32.1103448275862 42.8071111110156  31.2643678162716 43.4328888889844  Z " fill-rule="nonzero" fill="#ffffff" stroke="none" transform="matrix(1 0 0 1 24 18 )" />
  </g>
</svg>