<?xml version="1.0" encoding="utf-8"?>
<svg version="1.1" xmlns:xlink="http://www.w3.org/1999/xlink" width="80px" height="80px" xmlns="http://www.w3.org/2000/svg">
  <defs>
    <filter x="10px" y="515px" width="80px" height="80px" filterUnits="userSpaceOnUse" id="filter398">
      <feOffset dx="0" dy="0" in="SourceAlpha" result="shadowOffsetInner" />
      <feGaussianBlur stdDeviation="10" in="shadowOffsetInner" result="shadowGaussian" />
      <feComposite in2="shadowGaussian" operator="atop" in="SourceAlpha" result="shadowComposite" />
      <feColorMatrix type="matrix" values="0 0 0 0 0  0 0 0 0 0  0 0 0 0 0  0 0 0 0.349019607843137 0  " in="shadowComposite" />
    </filter>
    <g id="widget399">
      <path d="M 22.8490028545673 2.90598292267628  L 22.8490028545673 17.1509971454327  L 37.0940170773237 17.1509971454327  C 38.6674777860491 17.1509971454327  39.9430198118145 18.4265391711981  39.9430198118145 20  C 39.9430198118145 21.5734608288019  38.6674777860491 22.8490028545673  37.0940169572472 22.8490028545673  L 22.8490028545673 22.8490028545673  L 22.8490028545673 37.0940170773237  C 22.8490028545673 38.6674778212187  21.5734608288019 39.9430198469841  20 39.9430198469841  C 18.4265392043563 39.9430198469841  17.1509971923255 38.6674778729674  17.1509971454327 37.0940170773237  L 17.1509971454327 22.8490028545673  L 2.90598292267628 22.8490028545673  C 1.33252200896746 22.8490028545673  0.0569799832020716 21.5734608288019  0.0569799832020716 20  C 0.0569799832020716 18.4265391711981  1.33252200896746 17.1509971454327  2.90598283776938 17.1509971454327  L 17.1509971454327 17.1509971454327  L 17.1509971454327 2.90598292267628  C 17.1509971454327 1.33252200896746  18.4265391711981 0.0569799832020716  20 0.0569799832020716  C 21.5734608288019 0.0569799832020716  22.8490028545673 1.33252200896746  22.8490028545673 2.90598283776938  Z " fill-rule="nonzero" fill="#ffffff" stroke="none" transform="matrix(1 0 0 1 30 535 )" />
    </g>
  </defs>
  <g transform="matrix(1 0 0 1 -10 -515 )">
    <use xlink:href="#widget399" filter="url(#filter398)" />
    <use xlink:href="#widget399" />
  </g>
</svg>