<?xml version="1.0" encoding="utf-8"?>
<svg version="1.1" xmlns:xlink="http://www.w3.org/1999/xlink" width="80px" height="80px" xmlns="http://www.w3.org/2000/svg">
  <defs>
    <filter x="10px" y="515px" width="80px" height="80px" filterUnits="userSpaceOnUse" id="filter400">
      <feOffset dx="0" dy="0" in="SourceAlpha" result="shadowOffsetInner" />
      <feGaussianBlur stdDeviation="10" in="shadowOffsetInner" result="shadowGaussian" />
      <feComposite in2="shadowGaussian" operator="atop" in="SourceAlpha" result="shadowComposite" />
      <feColorMatrix type="matrix" values="0 0 0 0 0  0 0 0 0 0  0 0 0 0 0  0 0 0 0.349019607843137 0  " in="shadowComposite" />
    </filter>
    <g id="widget401">
      <path d="M 39.248826309419 39.092331756162  C 40.1877934639084 38.1533646016725  40.1877934639084 36.7449138974472  39.248826309419 35.9624412962148  C 39.248826309419 35.9624412962148  39.0923318111796 35.9624412962148  39.092331756162 35.8059467979754  L 23.1298904599472 20  L 39.092331756162 3.88106415052817  C 40.0312989106514 2.94209699603873  40.0312989106514 1.53364629181338  39.092331756162 0.751173690580985  C 38.1533646016725 -0.18779346390845  36.7449138974472 -0.18779346390845  35.9624412962148 0.751173690580985  C 35.9624412962148 0.751173690580985  35.9624412962148 0.907668188820422  35.8059467979754 0.907668243838028  L 20 16.8701095400528  L 3.88106415052817 0.907668243838028  C 3.09859154929577 0.125195642605635  1.69014084507042 0.125195642605635  0.751173690580985 0.907668243838028  C -0.0312989106514084 1.69014084507042  -0.0312989106514084 3.09859154929577  0.751173690580985 4.03755870378521  L 16.8701095400528 20  L 0.907668243838028 36.1189358494718  C 0.125195642605635 36.9014084507042  0.125195642605635 38.3098591549296  0.907668243838028 39.248826309419  C 1.69014084507042 40.0312989106514  3.09859154929577 40.0312989106514  3.88106415052817 39.248826309419  L 20 23.1298904599472  L 36.1189358494718 39.092331756162  C 37.0579030039613 40.0312989106514  38.4663537081866 40.0312989106514  39.248826309419 39.092331756162  Z " fill-rule="nonzero" fill="#ffffff" stroke="none" transform="matrix(1 0 0 1 30 535 )" />
    </g>
  </defs>
  <g transform="matrix(1 0 0 1 -10 -515 )">
    <use xlink:href="#widget401" filter="url(#filter400)" />
    <use xlink:href="#widget401" />
  </g>
</svg>